<svg width="305" height="173" viewBox="0 0 305 173" fill="none" xmlns="http://www.w3.org/2000/svg">
<g filter="url(#filter0_d_26_50)">
<path d="M25.0701 67.7581C25.0701 68.3849 23.5755 68.8911 20.5862 69.2768C17.6452 69.6625 14.7042 69.8554 11.7632 69.8554C8.82219 69.8554 6.94187 69.6866 6.12224 69.3491C5.30261 69.0116 4.8928 68.4813 4.8928 67.7581V23.4259C4.8928 22.1724 6.24277 21.0635 8.94272 20.0992C11.6909 19.1349 14.8489 18.6528 18.4166 18.6528C21.3577 18.6528 23.2621 19.2314 24.1299 20.3885C24.7567 21.2081 25.0701 21.9554 25.0701 22.6304V34.5632H25.6486C25.6486 34.3221 26.3718 32.3213 27.8182 28.5606C30.5664 21.4733 32.5673 17.9296 33.8208 17.9296C36.1833 17.9296 39.51 18.6287 43.801 20.0269C45.8741 20.7019 47.658 21.6902 49.1526 22.992C50.6473 24.2455 51.3946 25.6437 51.3946 27.1866C51.3946 28.1508 50.4062 30.0311 48.4294 32.8275C46.5009 35.5757 43.5599 39.264 39.6064 43.8925C40.5225 44.8567 41.6796 46.0862 43.0778 47.5808C44.476 49.0754 46.3322 51.3173 48.6464 54.3066C51.0089 57.2476 52.1901 59.3449 52.1901 60.5984C52.1901 61.8519 51.0571 63.3225 48.791 65.0099C46.525 66.6492 44.1144 67.9991 41.559 69.0598C39.0037 70.0723 37.0993 70.5786 35.8458 70.5786C35.0261 70.5786 33.8931 69.3491 32.4467 66.8902C31.0485 64.3831 29.337 60.6466 27.312 55.6806L25.0701 58.3565V67.7581ZM75.693 32.6106V68.2643C75.693 68.7947 74.2948 69.2286 71.4984 69.5661C68.7502 69.8554 65.9056 70 62.9646 70C60.0718 70 58.1915 69.8795 57.3237 69.6384C56.504 69.3491 56.0942 68.8911 56.0942 68.2643V33.9123C56.0942 32.8516 57.4442 31.815 60.1442 30.8026C62.8923 29.7419 65.8815 29.2115 69.1118 29.2115C73.4992 29.2115 75.693 30.3445 75.693 32.6106ZM65.8574 13.5904C69.0395 13.5904 71.5225 14.0725 73.3064 15.0368C75.1385 15.9528 76.0546 17.6403 76.0546 20.0992C76.0546 24.4384 72.6796 26.608 65.9298 26.608C59.1799 26.608 55.805 24.4384 55.805 20.0992C55.805 15.76 59.1558 13.5904 65.8574 13.5904ZM90.418 68.7706C89.2609 68.2402 88.0073 67.4447 86.6574 66.384C85.3556 65.3233 84.2708 64.0698 83.403 62.6234C81.378 59.152 80.3655 54.6199 80.3655 49.0272C80.3655 45.5558 80.92 42.4702 82.0289 39.7702C83.1378 37.0221 84.4878 34.9007 86.0788 33.4061C87.6698 31.9115 89.5019 30.682 91.5751 29.7178C94.9018 28.1749 98.2286 27.4035 101.555 27.4035C107.148 27.4035 111.029 27.8374 113.199 28.7053C115.417 29.5731 116.526 31.0436 116.526 33.1168C116.526 35.19 116.14 37.4078 115.368 39.7702C114.645 42.0845 113.681 43.2416 112.476 43.2416C112.09 43.2416 110.909 42.8318 108.932 42.0122C107.003 41.1925 105.316 40.7827 103.87 40.7827C102.471 40.7827 101.387 41.3613 100.615 42.5184C99.8919 43.6273 99.5303 45.821 99.5303 49.0995C99.5303 52.3298 99.8678 54.5476 100.543 55.753C101.218 56.9101 102.254 57.4886 103.653 57.4886C105.099 57.4886 106.883 57.0065 109.004 56.0422C111.126 55.078 112.307 54.5958 112.548 54.5958C113.464 54.5958 114.332 55.6806 115.151 57.8502C116.019 60.0198 116.453 61.9484 116.453 63.6358C116.453 66.2394 115.103 68.0715 112.403 69.1322C109.703 70.1446 106.039 70.6509 101.411 70.6509C96.8304 70.6509 93.1662 70.0241 90.418 68.7706ZM140.377 68.2643C140.377 68.7947 139.027 69.2286 136.327 69.5661C133.627 69.8554 130.807 70 127.866 70C124.925 70 123.02 69.8795 122.152 69.6384C121.285 69.3491 120.851 68.8911 120.851 68.2643V18.2189C120.851 17.1582 122.201 16.1216 124.901 15.1091C127.649 14.0966 130.59 13.5904 133.724 13.5904C138.159 13.5904 140.377 14.6993 140.377 16.9171V43.9648H141.317C143.631 32.9239 145.343 27.4035 146.452 27.4035C149.248 27.4035 152.623 28.0544 156.577 29.3562C160.53 30.6579 162.507 32.1043 162.507 33.6954C162.507 34.8525 161.543 37.0703 159.614 40.3488C157.686 43.6273 155.685 46.3031 153.612 48.3763C160.506 56.6208 163.953 61.5145 163.953 63.0573C163.953 64.5037 161.76 66.2635 157.372 68.3366C152.985 70.4098 149.899 71.4464 148.115 71.4464C147.247 71.4464 146.331 70.4098 145.367 68.3366C144.403 66.2153 143.366 63.0573 142.257 58.8627L140.377 61.1046V68.2643ZM186.499 70.6509C178.495 70.6509 172.637 69.8795 168.925 68.3366C167.044 67.517 166.104 66.7215 166.104 65.9501C166.104 63.9733 166.683 61.6591 167.84 59.0074C168.997 56.3556 170.01 55.0298 170.877 55.0298C171.36 55.0298 172.975 55.5601 175.723 56.6208C178.519 57.6815 180.858 58.2118 182.738 58.2118C184.666 58.2118 185.92 58.0913 186.499 57.8502C187.125 57.6092 187.439 57.1511 187.439 56.4762C187.439 55.753 186.957 55.1985 185.992 54.8128C185.028 54.3789 183.823 54.0896 182.376 53.945C180.93 53.8003 179.363 53.511 177.675 53.0771C176.036 52.6432 174.493 52.0887 173.047 51.4138C171.601 50.7388 170.395 49.6299 169.431 48.087C168.467 46.496 167.985 44.8085 167.985 43.0246C167.985 41.1925 168.033 39.8426 168.129 38.9747C168.226 38.0587 168.611 36.8051 169.286 35.2141C170.01 33.5748 170.998 32.249 172.251 31.2365C173.553 30.224 175.53 29.3079 178.182 28.4883C180.882 27.6687 183.895 27.2589 187.222 27.2589C190.548 27.2589 193.321 27.3794 195.539 27.6205C197.805 27.8133 199.564 28.0785 200.818 28.416C202.12 28.7535 203.18 29.1392 204 29.5731C205.398 30.2963 206.097 31.0918 206.097 31.9597C206.097 33.84 205.422 36.0096 204.072 38.4685C202.722 40.9274 201.637 42.1568 200.818 42.1568C200.046 42.1568 198.335 41.747 195.683 40.9274C193.031 40.0595 191.079 39.6256 189.825 39.6256C187.8 39.6256 186.788 40.2042 186.788 41.3613C186.788 42.0845 187.463 42.6389 188.813 43.0246C190.211 43.3621 191.874 43.7237 193.803 44.1094C195.731 44.4951 197.66 45.0496 199.588 45.7728C201.565 46.4478 203.229 47.7013 204.579 49.5334C205.977 51.3655 206.676 53.6798 206.676 56.4762C206.676 65.926 199.95 70.6509 186.499 70.6509ZM25.0701 150.758C25.0701 151.385 23.5755 151.891 20.5862 152.277C17.6452 152.663 14.7042 152.855 11.7632 152.855C8.82219 152.855 6.94187 152.687 6.12224 152.349C5.30261 152.012 4.8928 151.481 4.8928 150.758V106.426C4.8928 105.172 6.24277 104.063 8.94272 103.099C11.6909 102.135 14.8489 101.653 18.4166 101.653C21.3577 101.653 23.2621 102.231 24.1299 103.388C24.7567 104.208 25.0701 104.955 25.0701 105.63V117.563H25.6486C25.6486 117.322 26.3718 115.321 27.8182 111.561C30.5664 104.473 32.5673 100.93 33.8208 100.93C36.1833 100.93 39.51 101.629 43.801 103.027C45.8741 103.702 47.658 104.69 49.1526 105.992C50.6473 107.246 51.3946 108.644 51.3946 110.187C51.3946 111.151 50.4062 113.031 48.4294 115.828C46.5009 118.576 43.5599 122.264 39.6064 126.892C40.5225 127.857 41.6796 129.086 43.0778 130.581C44.476 132.075 46.3322 134.317 48.6464 137.307C51.0089 140.248 52.1901 142.345 52.1901 143.598C52.1901 144.852 51.0571 146.322 48.791 148.01C46.525 149.649 44.1144 150.999 41.559 152.06C39.0037 153.072 37.0993 153.579 35.8458 153.579C35.0261 153.579 33.8931 152.349 32.4467 149.89C31.0485 147.383 29.337 143.647 27.312 138.681L25.0701 141.356V150.758ZM75.693 115.611V151.264C75.693 151.795 74.2948 152.229 71.4984 152.566C68.7502 152.855 65.9056 153 62.9646 153C60.0718 153 58.1915 152.879 57.3237 152.638C56.504 152.349 56.0942 151.891 56.0942 151.264V116.912C56.0942 115.852 57.4442 114.815 60.1442 113.803C62.8923 112.742 65.8815 112.212 69.1118 112.212C73.4992 112.212 75.693 113.345 75.693 115.611ZM65.8574 96.5904C69.0395 96.5904 71.5225 97.0725 73.3064 98.0368C75.1385 98.9528 76.0546 100.64 76.0546 103.099C76.0546 107.438 72.6796 109.608 65.9298 109.608C59.1799 109.608 55.805 107.438 55.805 103.099C55.805 98.76 59.1558 96.5904 65.8574 96.5904ZM124.698 128.99V151.264C124.698 151.795 123.324 152.229 120.575 152.566C117.827 152.855 114.983 153 112.042 153C109.149 153 107.269 152.879 106.401 152.638C105.581 152.349 105.171 151.891 105.171 151.264V128.267C105.171 126.097 105.075 124.675 104.882 124C104.737 123.325 104.593 122.722 104.448 122.192C104.111 121.276 103.508 120.818 102.64 120.818C101.29 120.818 100.615 121.468 100.615 122.77V151.264C100.615 151.795 99.241 152.229 96.4929 152.566C93.7929 152.855 90.9724 153 88.0314 153C85.1386 153 83.2583 152.879 82.3905 152.638C81.5226 152.349 81.0887 151.891 81.0887 151.264V115.611C81.0887 114.598 82.4628 113.586 85.211 112.573C88.0073 111.561 90.9483 111.054 94.034 111.054C97.1196 111.054 98.8553 111.946 99.241 113.73L99.8919 116.912H100.398C101.796 114.116 104.207 112.163 107.63 111.054C109.028 110.62 110.571 110.404 112.259 110.404C117.128 110.404 120.407 111.874 122.094 114.815C123.83 117.708 124.698 122.433 124.698 128.99ZM143.346 153.651C141.562 153.651 139.898 153.386 138.355 152.855C136.813 152.325 135.535 151.674 134.522 150.903C133.558 150.131 132.714 149.095 131.991 147.793C131.268 146.491 130.714 145.262 130.328 144.105C129.942 142.899 129.653 141.429 129.46 139.693C129.171 137.138 129.026 134.221 129.026 130.942C129.026 124.241 130.256 119.154 132.714 115.683C135.173 112.163 138.548 110.404 142.839 110.404C147.227 110.404 150.409 111.44 152.386 113.513C152.819 113.995 153.157 114.574 153.398 115.249H153.977L153.109 110.259V101.219C153.109 100.158 154.459 99.1216 157.159 98.1091C159.859 97.0966 162.775 96.5904 165.909 96.5904C169.188 96.5904 171.285 97.2172 172.201 98.4707C172.539 98.9528 172.707 99.435 172.707 99.9171V151.264C172.707 151.795 171.357 152.229 168.658 152.566C166.006 152.855 163.426 153 160.919 153C158.46 153 156.869 152.928 156.146 152.783C155.471 152.59 155.037 152.397 154.844 152.204C154.7 152.012 154.603 151.698 154.555 151.264L153.977 147.142H153.398C152.964 148.83 152.096 150.252 150.794 151.409C149.155 152.904 146.672 153.651 143.346 153.651ZM151.445 143.092C152.217 143.092 152.795 142.61 153.181 141.646V122.336C153.181 121.854 152.916 121.493 152.386 121.252C151.903 120.962 151.469 120.818 151.084 120.818C149.444 120.818 148.625 124.578 148.625 132.1C148.625 136.101 148.842 138.946 149.276 140.633C149.758 142.273 150.481 143.092 151.445 143.092ZM200.049 153.651C196.433 153.651 193.323 153.337 190.72 152.711C188.116 152.084 185.754 150.975 183.632 149.384C179.245 146.202 177.051 140.272 177.051 131.593C177.051 123.879 179.293 118.359 183.777 115.032C187.971 111.946 193.395 110.404 200.049 110.404C202.893 110.404 205.328 110.548 207.353 110.837C209.378 111.079 211.427 111.633 213.5 112.501C215.622 113.369 217.309 114.55 218.563 116.044C219.865 117.539 220.925 119.612 221.745 122.264C222.565 124.868 222.974 127.977 222.974 131.593C222.974 138.922 220.901 144.442 216.755 148.155C212.608 151.819 207.04 153.651 200.049 153.651ZM197.518 139.548C197.855 141.284 198.193 142.321 198.53 142.658C198.916 142.996 199.398 143.164 199.977 143.164C200.603 143.164 201.085 142.996 201.423 142.658C201.809 142.321 202.146 141.284 202.435 139.548C202.773 137.813 202.942 135.643 202.942 133.04C202.942 130.388 202.869 128.363 202.725 126.965C202.628 125.518 202.484 124.409 202.291 123.638C202.146 122.867 201.929 122.264 201.64 121.83C201.206 121.203 200.676 120.89 200.049 120.89C199.47 120.89 198.988 121.083 198.602 121.468C198.217 121.806 197.855 122.867 197.518 124.651C197.18 126.386 197.011 128.869 197.011 132.1C197.011 135.33 197.18 137.813 197.518 139.548ZM293.166 129.134V151.264C293.166 151.795 291.792 152.229 289.044 152.566C286.344 152.855 283.523 153 280.582 153C277.69 153 275.809 152.879 274.941 152.638C274.074 152.349 273.64 151.891 273.64 151.264V131.232C273.64 124.337 272.941 120.89 271.542 120.89C271.205 120.89 270.867 121.035 270.53 121.324C270.192 121.613 270.024 122.119 270.024 122.843V151.264C270.024 151.795 268.65 152.229 265.901 152.566C263.201 152.855 260.381 153 257.44 153C254.499 153 252.594 152.879 251.727 152.638C250.907 152.349 250.497 151.891 250.497 151.264V131.232C250.497 125.88 250.16 122.674 249.485 121.613C249.147 121.131 248.713 120.89 248.183 120.89C247.267 120.89 246.809 121.541 246.809 122.843V151.264C246.809 151.795 245.435 152.229 242.687 152.566C239.938 152.855 237.094 153 234.153 153C231.26 153 229.38 152.879 228.512 152.638C227.692 152.349 227.282 151.891 227.282 151.264V115.611C227.282 114.598 228.657 113.586 231.405 112.573C234.201 111.561 237.142 111.054 240.228 111.054C243.313 111.054 245.049 111.946 245.435 113.73L246.086 116.912H246.592C247.99 114.164 250.304 112.212 253.535 111.054C254.885 110.62 256.62 110.404 258.742 110.404C262.984 110.404 266.07 112.573 267.999 116.912C268.625 115.466 270.192 114.02 272.699 112.573C275.207 111.127 277.979 110.404 281.016 110.404C285.789 110.404 288.996 111.898 290.635 114.887C292.322 117.828 293.166 122.577 293.166 129.134Z" fill="#E57B5C"/>
<path d="M32.75 74.158C32.75 74.7848 31.2554 75.2911 28.2662 75.6768C25.3252 76.0625 22.3841 76.2553 19.4431 76.2553C16.5021 76.2553 14.6218 76.0866 13.8022 75.7491C12.9825 75.4116 12.5727 74.8812 12.5727 74.158V29.8259C12.5727 28.5723 13.9227 27.4634 16.6227 26.4992C19.3708 25.5349 22.5288 25.0528 26.0966 25.0528C29.0376 25.0528 30.942 25.6313 31.8099 26.7884C32.4366 27.6081 32.75 28.3554 32.75 29.0304V40.9632H33.3286C33.3286 40.7221 34.0518 38.7212 35.4982 34.9606C38.2463 27.8732 40.2472 24.3296 41.5007 24.3296C43.8632 24.3296 47.1899 25.0286 51.4809 26.4268C53.5541 27.1018 55.338 28.0902 56.8326 29.392C58.3272 30.6455 59.0745 32.0437 59.0745 33.5865C59.0745 34.5508 58.0861 36.4311 56.1094 39.2275C54.1808 41.9756 51.2398 45.664 47.2863 50.2924C48.2024 51.2567 49.3595 52.4861 50.7577 53.9808C52.1559 55.4754 54.0121 57.7173 56.3263 60.7065C58.6888 63.6475 59.87 65.7448 59.87 66.9984C59.87 68.2519 58.737 69.7224 56.471 71.4099C54.205 73.0491 51.7943 74.3991 49.239 75.4598C46.6837 76.4723 44.7792 76.9785 43.5257 76.9785C42.7061 76.9785 41.5731 75.7491 40.1267 73.2902C38.7285 70.7831 37.0169 67.0466 34.9919 62.0806L32.75 64.7564V74.158ZM83.3729 39.0105V74.6643C83.3729 75.1946 81.9747 75.6285 79.1783 75.966C76.4302 76.2553 73.5856 76.4 70.6446 76.4C67.7518 76.4 65.8714 76.2794 65.0036 76.0384C64.184 75.7491 63.7742 75.2911 63.7742 74.6643V40.3123C63.7742 39.2516 65.1241 38.215 67.8241 37.2025C70.5722 36.1418 73.5615 35.6115 76.7918 35.6115C81.1792 35.6115 83.3729 36.7445 83.3729 39.0105ZM73.5374 19.9904C76.7194 19.9904 79.2024 20.4725 80.9863 21.4368C82.8184 22.3528 83.7345 24.0403 83.7345 26.4992C83.7345 30.8384 80.3596 33.008 73.6097 33.008C66.8598 33.008 63.4849 30.8384 63.4849 26.4992C63.4849 22.16 66.8357 19.9904 73.5374 19.9904ZM98.0979 75.1705C96.9408 74.6402 95.6873 73.8447 94.3373 72.784C93.0355 71.7233 91.9507 70.4697 91.0829 69.0233C89.0579 65.552 88.0454 61.0199 88.0454 55.4272C88.0454 51.9558 88.5999 48.8701 89.7088 46.1702C90.8177 43.422 92.1677 41.3007 93.7587 39.806C95.3498 38.3114 97.1819 37.082 99.255 36.1177C102.582 34.5749 105.908 33.8035 109.235 33.8035C114.828 33.8035 118.709 34.2374 120.879 35.1052C123.097 35.9731 124.205 37.4436 124.205 39.5168C124.205 41.5899 123.82 43.8077 123.048 46.1702C122.325 48.4844 121.361 49.6416 120.156 49.6416C119.77 49.6416 118.589 49.2317 116.612 48.4121C114.683 47.5925 112.996 47.1827 111.549 47.1827C110.151 47.1827 109.066 47.7612 108.295 48.9184C107.572 50.0273 107.21 52.221 107.21 55.4995C107.21 58.7298 107.548 60.9476 108.223 62.1529C108.898 63.31 109.934 63.8886 111.332 63.8886C112.779 63.8886 114.563 63.4065 116.684 62.4422C118.806 61.4779 119.987 60.9958 120.228 60.9958C121.144 60.9958 122.012 62.0806 122.831 64.2502C123.699 66.4198 124.133 68.3483 124.133 70.0358C124.133 72.6393 122.783 74.4714 120.083 75.5321C117.383 76.5446 113.719 77.0508 109.091 77.0508C104.51 77.0508 100.846 76.4241 98.0979 75.1705ZM148.057 74.6643C148.057 75.1946 146.707 75.6285 144.007 75.966C141.307 76.2553 138.487 76.4 135.546 76.4C132.605 76.4 130.7 76.2794 129.832 76.0384C128.964 75.7491 128.531 75.2911 128.531 74.6643V24.6188C128.531 23.5581 129.88 22.5216 132.58 21.5091C135.329 20.4966 138.27 19.9904 141.403 19.9904C145.839 19.9904 148.057 21.0993 148.057 23.3171V50.3648H148.997C151.311 39.3239 153.023 33.8035 154.132 33.8035C156.928 33.8035 160.303 34.4544 164.257 35.7561C168.21 37.0579 170.187 38.5043 170.187 40.0953C170.187 41.2524 169.223 43.4703 167.294 46.7488C165.366 50.0273 163.365 52.7031 161.291 54.7763C168.186 63.0208 171.633 67.9144 171.633 69.4572C171.633 70.9036 169.44 72.6634 165.052 74.7366C160.665 76.8098 157.579 77.8464 155.795 77.8464C154.927 77.8464 154.011 76.8098 153.047 74.7366C152.083 72.6152 151.046 69.4572 149.937 65.2627L148.057 67.5046V74.6643ZM194.178 77.0508C186.175 77.0508 180.317 76.2794 176.605 74.7366C174.724 73.917 173.784 73.1215 173.784 72.35C173.784 70.3733 174.363 68.0591 175.52 65.4073C176.677 62.7556 177.689 61.4297 178.557 61.4297C179.039 61.4297 180.655 61.9601 183.403 63.0208C186.199 64.0815 188.537 64.6118 190.418 64.6118C192.346 64.6118 193.6 64.4913 194.178 64.2502C194.805 64.0091 195.119 63.5511 195.119 62.8761C195.119 62.1529 194.636 61.5985 193.672 61.2128C192.708 60.7788 191.503 60.4896 190.056 60.3449C188.61 60.2003 187.043 59.911 185.355 59.4771C183.716 59.0432 182.173 58.4887 180.727 57.8137C179.281 57.1387 178.075 56.0298 177.111 54.487C176.147 52.896 175.665 51.2085 175.665 49.4246C175.665 47.5925 175.713 46.2425 175.809 45.3747C175.906 44.4586 176.291 43.2051 176.966 41.614C177.689 39.9748 178.678 38.6489 179.931 37.6364C181.233 36.624 183.21 35.7079 185.862 34.8883C188.562 34.0687 191.575 33.6588 194.902 33.6588C198.228 33.6588 201.001 33.7794 203.218 34.0204C205.484 34.2133 207.244 34.4785 208.498 34.816C209.8 35.1535 210.86 35.5392 211.68 35.9731C213.078 36.6963 213.777 37.4918 213.777 38.3596C213.777 40.24 213.102 42.4096 211.752 44.8684C210.402 47.3273 209.317 48.5568 208.498 48.5568C207.726 48.5568 206.015 48.1469 203.363 47.3273C200.711 46.4595 198.759 46.0256 197.505 46.0256C195.48 46.0256 194.468 46.6041 194.468 47.7612C194.468 48.4844 195.143 49.0389 196.493 49.4246C197.891 49.7621 199.554 50.1237 201.483 50.5094C203.411 50.8951 205.34 51.4496 207.268 52.1728C209.245 52.8477 210.908 54.1013 212.258 55.9334C213.657 57.7655 214.356 60.0797 214.356 62.8761C214.356 72.3259 207.63 77.0508 194.178 77.0508ZM32.75 157.158C32.75 157.785 31.2554 158.291 28.2662 158.677C25.3252 159.062 22.3841 159.255 19.4431 159.255C16.5021 159.255 14.6218 159.087 13.8022 158.749C12.9825 158.412 12.5727 157.881 12.5727 157.158V112.826C12.5727 111.572 13.9227 110.463 16.6227 109.499C19.3708 108.535 22.5288 108.053 26.0966 108.053C29.0376 108.053 30.942 108.631 31.8099 109.788C32.4366 110.608 32.75 111.355 32.75 112.03V123.963H33.3286C33.3286 123.722 34.0518 121.721 35.4982 117.961C38.2463 110.873 40.2472 107.33 41.5007 107.33C43.8632 107.33 47.1899 108.029 51.4809 109.427C53.5541 110.102 55.338 111.09 56.8326 112.392C58.3272 113.646 59.0745 115.044 59.0745 116.587C59.0745 117.551 58.0861 119.431 56.1094 122.227C54.1808 124.976 51.2398 128.664 47.2863 133.292C48.2024 134.257 49.3595 135.486 50.7577 136.981C52.1559 138.475 54.0121 140.717 56.3263 143.707C58.6888 146.648 59.87 148.745 59.87 149.998C59.87 151.252 58.737 152.722 56.471 154.41C54.205 156.049 51.7943 157.399 49.239 158.46C46.6837 159.472 44.7792 159.979 43.5257 159.979C42.7061 159.979 41.5731 158.749 40.1267 156.29C38.7285 153.783 37.0169 150.047 34.9919 145.081L32.75 147.756V157.158ZM83.3729 122.011V157.664C83.3729 158.195 81.9747 158.629 79.1783 158.966C76.4302 159.255 73.5856 159.4 70.6446 159.4C67.7518 159.4 65.8714 159.279 65.0036 159.038C64.184 158.749 63.7742 158.291 63.7742 157.664V123.312C63.7742 122.252 65.1241 121.215 67.8241 120.203C70.5722 119.142 73.5615 118.611 76.7918 118.611C81.1792 118.611 83.3729 119.744 83.3729 122.011ZM73.5374 102.99C76.7194 102.99 79.2024 103.472 80.9863 104.437C82.8184 105.353 83.7345 107.04 83.7345 109.499C83.7345 113.838 80.3596 116.008 73.6097 116.008C66.8598 116.008 63.4849 113.838 63.4849 109.499C63.4849 105.16 66.8357 102.99 73.5374 102.99ZM132.378 135.39V157.664C132.378 158.195 131.004 158.629 128.255 158.966C125.507 159.255 122.663 159.4 119.722 159.4C116.829 159.4 114.948 159.279 114.081 159.038C113.261 158.749 112.851 158.291 112.851 157.664V134.667C112.851 132.497 112.755 131.075 112.562 130.4C112.417 129.725 112.273 129.122 112.128 128.592C111.791 127.676 111.188 127.218 110.32 127.218C108.97 127.218 108.295 127.868 108.295 129.17V157.664C108.295 158.195 106.921 158.629 104.173 158.966C101.473 159.255 98.6524 159.4 95.7114 159.4C92.8186 159.4 90.9382 159.279 90.0704 159.038C89.2026 158.749 88.7686 158.291 88.7686 157.664V122.011C88.7686 120.998 90.1427 119.986 92.8909 118.973C95.6873 117.961 98.6283 117.454 101.714 117.454C104.8 117.454 106.535 118.346 106.921 120.13L107.572 123.312H108.078C109.476 120.516 111.887 118.563 115.31 117.454C116.708 117.02 118.251 116.803 119.939 116.803C124.808 116.803 128.087 118.274 129.774 121.215C131.51 124.108 132.378 128.833 132.378 135.39ZM151.025 160.051C149.242 160.051 147.578 159.786 146.035 159.255C144.493 158.725 143.215 158.074 142.202 157.303C141.238 156.531 140.394 155.495 139.671 154.193C138.948 152.891 138.394 151.662 138.008 150.505C137.622 149.299 137.333 147.829 137.14 146.093C136.851 143.538 136.706 140.621 136.706 137.342C136.706 130.641 137.936 125.554 140.394 122.083C142.853 118.563 146.228 116.803 150.519 116.803C154.907 116.803 158.089 117.84 160.065 119.913C160.499 120.395 160.837 120.974 161.078 121.649H161.656L160.789 116.659V107.619C160.789 106.558 162.139 105.522 164.839 104.509C167.539 103.497 170.455 102.99 173.589 102.99C176.868 102.99 178.965 103.617 179.881 104.871C180.219 105.353 180.387 105.835 180.387 106.317V157.664C180.387 158.195 179.037 158.629 176.337 158.966C173.686 159.255 171.106 159.4 168.599 159.4C166.14 159.4 164.549 159.328 163.826 159.183C163.151 158.99 162.717 158.797 162.524 158.604C162.38 158.412 162.283 158.098 162.235 157.664L161.656 153.542H161.078C160.644 155.23 159.776 156.652 158.474 157.809C156.835 159.304 154.352 160.051 151.025 160.051ZM159.125 149.492C159.897 149.492 160.475 149.01 160.861 148.046V128.736C160.861 128.254 160.596 127.893 160.065 127.651C159.583 127.362 159.149 127.218 158.764 127.218C157.124 127.218 156.305 130.978 156.305 138.499C156.305 142.501 156.522 145.346 156.956 147.033C157.438 148.672 158.161 149.492 159.125 149.492ZM207.729 160.051C204.113 160.051 201.003 159.737 198.4 159.111C195.796 158.484 193.434 157.375 191.312 155.784C186.925 152.602 184.731 146.672 184.731 137.993C184.731 130.279 186.973 124.759 191.457 121.432C195.651 118.346 201.075 116.803 207.729 116.803C210.573 116.803 213.008 116.948 215.033 117.237C217.058 117.478 219.107 118.033 221.18 118.901C223.302 119.769 224.989 120.95 226.243 122.444C227.545 123.939 228.605 126.012 229.425 128.664C230.244 131.267 230.654 134.377 230.654 137.993C230.654 145.322 228.581 150.842 224.435 154.555C220.288 158.219 214.72 160.051 207.729 160.051ZM205.198 145.948C205.535 147.684 205.873 148.721 206.21 149.058C206.596 149.396 207.078 149.564 207.657 149.564C208.283 149.564 208.765 149.396 209.103 149.058C209.489 148.721 209.826 147.684 210.115 145.948C210.453 144.213 210.622 142.043 210.622 139.44C210.622 136.788 210.549 134.763 210.405 133.365C210.308 131.918 210.164 130.809 209.971 130.038C209.826 129.267 209.609 128.664 209.32 128.23C208.886 127.603 208.356 127.29 207.729 127.29C207.15 127.29 206.668 127.483 206.282 127.868C205.897 128.206 205.535 129.267 205.198 131.051C204.86 132.786 204.691 135.269 204.691 138.499C204.691 141.73 204.86 144.213 205.198 145.948ZM300.846 135.534V157.664C300.846 158.195 299.472 158.629 296.724 158.966C294.024 159.255 291.203 159.4 288.262 159.4C285.369 159.4 283.489 159.279 282.621 159.038C281.753 158.749 281.32 158.291 281.32 157.664V137.632C281.32 130.737 280.62 127.29 279.222 127.29C278.885 127.29 278.547 127.435 278.21 127.724C277.872 128.013 277.704 128.519 277.704 129.243V157.664C277.704 158.195 276.329 158.629 273.581 158.966C270.881 159.255 268.061 159.4 265.12 159.4C262.179 159.4 260.274 159.279 259.407 159.038C258.587 158.749 258.177 158.291 258.177 157.664V137.632C258.177 132.28 257.84 129.074 257.165 128.013C256.827 127.531 256.393 127.29 255.863 127.29C254.947 127.29 254.489 127.941 254.489 129.243V157.664C254.489 158.195 253.115 158.629 250.367 158.966C247.618 159.255 244.774 159.4 241.833 159.4C238.94 159.4 237.06 159.279 236.192 159.038C235.372 158.749 234.962 158.291 234.962 157.664V122.011C234.962 120.998 236.336 119.986 239.085 118.973C241.881 117.961 244.822 117.454 247.908 117.454C250.993 117.454 252.729 118.346 253.115 120.13L253.766 123.312H254.272C255.67 120.564 257.984 118.611 261.215 117.454C262.565 117.02 264.3 116.803 266.422 116.803C270.664 116.803 273.75 118.973 275.679 123.312C276.305 121.866 277.872 120.419 280.379 118.973C282.886 117.527 285.659 116.803 288.696 116.803C293.469 116.803 296.675 118.298 298.315 121.287C300.002 124.228 300.846 128.977 300.846 135.534Z" fill="#A6E6E6"/>
<path d="M28.2662 75.6768L28.0205 73.7725L28.0165 73.7731L28.2662 75.6768ZM13.8022 75.7491L14.5332 73.9737L14.5332 73.9737L13.8022 75.7491ZM16.6227 26.4992L15.987 24.6874L15.9769 24.691L16.6227 26.4992ZM31.8099 26.7884L30.2739 27.9404L30.2792 27.9476L30.2847 27.9547L31.8099 26.7884ZM32.75 40.9632H30.83V42.8832H32.75V40.9632ZM33.3286 40.9632V42.8832H35.2486V40.9632H33.3286ZM35.4982 34.9606L33.708 34.2665L33.7062 34.2714L35.4982 34.9606ZM51.4809 26.4268L50.8861 28.2524L50.8865 28.2525L51.4809 26.4268ZM56.8326 29.392L55.5716 30.8398L55.5851 30.8515L55.5988 30.863L56.8326 29.392ZM56.1094 39.2275L54.5415 38.1192L54.5377 38.1246L56.1094 39.2275ZM47.2863 50.2924L45.8264 49.0454L44.7029 50.3607L45.8943 51.6148L47.2863 50.2924ZM50.7577 53.9808L49.3556 55.2924L49.3556 55.2924L50.7577 53.9808ZM56.3263 60.7065L54.8081 61.8819L54.8187 61.8955L54.8295 61.9089L56.3263 60.7065ZM56.471 71.4099L57.5963 72.9655L57.6071 72.9577L57.6177 72.9498L56.471 71.4099ZM49.239 75.4598L49.9462 77.2448L49.9607 77.2391L49.9751 77.2331L49.239 75.4598ZM40.1267 73.2902L38.4498 74.2254L38.4606 74.2447L38.4717 74.2637L40.1267 73.2902ZM34.9919 62.0806L36.7698 61.3556L35.5666 58.405L33.5202 60.8475L34.9919 62.0806ZM32.75 64.7564L31.2783 63.5234L30.83 64.0584V64.7564H32.75ZM30.83 74.158C30.83 73.4608 31.2639 73.1103 31.3099 73.0755C31.3622 73.0358 31.3055 73.0903 31.0131 73.1893C30.45 73.38 29.4809 73.5841 28.0205 73.7725L28.5119 77.581C30.0407 77.3837 31.3135 77.1418 32.245 76.8263C32.6999 76.6722 33.2037 76.4585 33.6297 76.1356C34.0493 75.8175 34.67 75.1687 34.67 74.158H30.83ZM28.0165 73.7731C25.1576 74.148 22.2999 74.3353 19.4431 74.3353V78.1753C22.4683 78.1753 25.4928 77.9769 28.5158 77.5805L28.0165 73.7731ZM19.4431 74.3353C18.0022 74.3353 16.8596 74.2937 15.9988 74.2164C15.0844 74.1344 14.6572 74.0248 14.5332 73.9737L13.0711 77.5245C13.7668 77.8109 14.6895 77.9544 15.6555 78.0411C16.6749 78.1326 17.9431 78.1753 19.4431 78.1753V74.3353ZM14.5332 73.9737C14.3371 73.8929 14.3428 73.851 14.3994 73.9242C14.4288 73.9623 14.4565 74.0124 14.4745 74.0677C14.492 74.1213 14.4927 74.1557 14.4927 74.158H10.6527C10.6527 74.9088 10.8751 75.6436 11.3608 76.2722C11.8272 76.8757 12.4476 77.2677 13.0711 77.5245L14.5332 73.9737ZM14.4927 74.158V29.8259H10.6527V74.158H14.4927ZM14.4927 29.8259C14.4927 29.9751 14.3894 29.8782 14.8039 29.5377C15.2336 29.1847 16.0109 28.7564 17.2684 28.3073L15.9769 24.691C14.5345 25.2062 13.2868 25.8144 12.3665 26.5704C11.4311 27.3388 10.6527 28.4231 10.6527 29.8259H14.4927ZM17.2583 28.3109C19.7622 27.4323 22.6983 26.9728 26.0966 26.9728V23.1328C22.3593 23.1328 18.9795 23.6374 15.987 24.6874L17.2583 28.3109ZM26.0966 26.9728C27.4592 26.9728 28.4653 27.1089 29.1726 27.3238C29.8781 27.5381 30.1618 27.791 30.2739 27.9404L33.3459 25.6364C32.5901 24.6288 31.4877 24.0138 30.2888 23.6496C29.0916 23.2859 27.675 23.1328 26.0966 23.1328V26.9728ZM30.2847 27.9547C30.7834 28.6069 30.83 28.9478 30.83 29.0304H34.67C34.67 27.7629 34.0899 26.6092 33.335 25.6221L30.2847 27.9547ZM30.83 29.0304V40.9632H34.67V29.0304H30.83ZM32.75 42.8832H33.3286V39.0432H32.75V42.8832ZM35.2486 40.9632C35.2486 41.2238 35.1856 41.4056 35.2182 41.2829C35.2284 41.2446 35.2507 41.1681 35.2915 41.0418C35.3717 40.7932 35.4984 40.4274 35.6766 39.9344C36.0315 38.9526 36.5683 37.5267 37.2902 35.6498L33.7062 34.2714C32.9816 36.1552 32.4336 37.61 32.0653 38.6291C31.8819 39.1365 31.7375 39.5511 31.6369 39.863C31.5872 40.017 31.5418 40.1657 31.5068 40.2976C31.4941 40.3452 31.4086 40.6423 31.4086 40.9632H35.2486ZM37.2883 35.6547C38.6524 32.1369 39.8002 29.5814 40.7318 27.9313C41.2022 27.0983 41.5718 26.5788 41.8346 26.2927C42.1775 25.9193 42.048 26.2496 41.5007 26.2496V22.4096C40.3267 22.4096 39.477 23.1828 39.0063 23.6953C38.4555 24.2951 37.9181 25.1045 37.388 26.0433C36.3189 27.9369 35.0921 30.6969 33.708 34.2665L37.2883 35.6547ZM41.5007 26.2496C43.5527 26.2496 46.6458 26.8707 50.8861 28.2524L52.0757 24.6013C47.7341 23.1866 44.1737 22.4096 41.5007 22.4096V26.2496ZM50.8865 28.2525C52.739 28.8557 54.2902 29.7237 55.5716 30.8398L58.0936 27.9441C56.3858 26.4567 54.3691 25.348 52.0753 24.6012L50.8865 28.2525ZM55.5988 30.863C56.783 31.8563 57.1545 32.756 57.1545 33.5865H60.9945C60.9945 31.3314 59.8714 29.4348 58.0664 27.9209L55.5988 30.863ZM57.1545 33.5865C57.1545 33.5596 57.1175 33.9062 56.6337 34.8266C56.1949 35.6614 55.5069 36.7536 54.5415 38.1192L57.6772 40.3358C58.6886 38.905 59.4832 37.6588 60.0327 36.6133C60.5373 35.6534 60.9945 34.5777 60.9945 33.5865H57.1545ZM54.5377 38.1246C52.6615 40.7983 49.7666 44.4325 45.8264 49.0454L48.7463 51.5395C52.7131 46.8954 55.7002 43.153 57.681 40.3304L54.5377 38.1246ZM45.8943 51.6148C46.8057 52.5742 47.9592 53.7997 49.3556 55.2924L52.1598 52.6691C50.7599 51.1726 49.5991 49.9392 48.6783 48.97L45.8943 51.6148ZM49.3556 55.2924C50.6923 56.7213 52.5054 58.9076 54.8081 61.8819L57.8445 59.5311C55.5188 56.527 53.6195 54.2294 52.1598 52.6691L49.3556 55.2924ZM54.8295 61.9089C55.9774 63.338 56.7924 64.5063 57.3112 65.4275C57.8636 66.4083 57.95 66.8854 57.95 66.9984H61.79C61.79 65.8578 61.2858 64.6595 60.657 63.543C59.9946 62.3669 59.0377 61.0161 57.8232 59.5041L54.8295 61.9089ZM57.95 66.9984C57.95 67.0403 57.9263 67.3154 57.4993 67.8696C57.0805 68.4132 56.3815 69.0826 55.3242 69.87L57.6177 72.9498C58.8264 72.0497 59.827 71.1401 60.5412 70.2133C61.2472 69.2969 61.79 68.21 61.79 66.9984H57.95ZM55.3456 69.8543C53.1991 71.407 50.9189 72.6836 48.5029 73.6865L49.9751 77.2331C52.6696 76.1146 55.2108 74.6912 57.5963 72.9655L55.3456 69.8543ZM48.5317 73.6748C45.997 74.6791 44.3863 75.0585 43.5257 75.0585V78.8985C45.1722 78.8985 47.3703 78.2654 49.9462 77.2448L48.5317 73.6748ZM43.5257 75.0585C43.8018 75.0585 43.9323 75.1592 43.8752 75.1232C43.8228 75.0903 43.6881 74.9886 43.4731 74.7553C43.0413 74.2867 42.4768 73.4985 41.7816 72.3167L38.4717 74.2637C39.223 75.5407 39.9481 76.5967 40.6493 77.3576C41.0008 77.739 41.3934 78.0984 41.8292 78.3728C42.2603 78.6442 42.8397 78.8985 43.5257 78.8985V75.0585ZM41.8035 72.355C40.4628 69.9509 38.7859 66.2999 36.7698 61.3556L33.2141 62.8056C35.2479 67.7932 36.9942 71.6153 38.4498 74.2254L41.8035 72.355ZM33.5202 60.8475L31.2783 63.5234L34.2217 65.9895L36.4637 63.3137L33.5202 60.8475ZM30.83 64.7564V74.158H34.67V64.7564H30.83ZM79.1783 75.966L79.3793 77.8755L79.3939 77.874L79.4084 77.8722L79.1783 75.966ZM65.0036 76.0384L64.3646 77.8489L64.4265 77.8708L64.4897 77.8883L65.0036 76.0384ZM67.8241 37.2025L68.4982 39.0003L68.5069 38.997L68.5154 38.9937L67.8241 37.2025ZM80.9863 21.4368L80.0733 23.1258L80.1003 23.1404L80.1277 23.1541L80.9863 21.4368ZM81.4529 39.0105V74.6643H85.2929V39.0105H81.4529ZM81.4529 74.6643C81.4529 73.8573 81.9956 73.4807 82.0207 73.4634C82.0807 73.422 82.0328 73.4676 81.7552 73.5538C81.2259 73.718 80.3161 73.8948 78.9483 74.0599L79.4084 77.8722C80.8369 77.6998 82.0245 77.4909 82.8933 77.2212C83.3148 77.0904 83.7912 76.907 84.2008 76.6245C84.5754 76.3662 85.2929 75.7364 85.2929 74.6643H81.4529ZM78.9773 74.0566C76.3 74.3384 73.5227 74.48 70.6446 74.48V78.32C73.6485 78.32 76.5603 78.1722 79.3793 77.8755L78.9773 74.0566ZM70.6446 74.48C69.22 74.48 68.0714 74.4502 67.1876 74.3935C66.2689 74.3346 65.7488 74.2527 65.5175 74.1884L64.4897 77.8883C65.1262 78.0651 65.9802 78.164 66.9419 78.2256C67.9384 78.2895 69.1763 78.32 70.6446 78.32V74.48ZM65.6426 74.2278C65.4183 74.1487 65.4314 74.1071 65.5124 74.1976C65.5582 74.2488 65.6098 74.3254 65.6471 74.4242C65.6842 74.5224 65.6942 74.608 65.6942 74.6643H61.8542C61.8542 75.4397 62.124 76.1695 62.6507 76.7581C63.1415 77.3067 63.7693 77.6388 64.3646 77.8489L65.6426 74.2278ZM65.6942 74.6643V40.3123H61.8542V74.6643H65.6942ZM65.6942 40.3123C65.6942 40.6656 65.4671 40.6375 65.956 40.2622C66.4117 39.9122 67.221 39.4792 68.4982 39.0003L67.1499 35.4048C65.7272 35.9383 64.5115 36.5298 63.6173 37.2165C62.7562 37.8777 61.8542 38.8983 61.8542 40.3123H65.6942ZM68.5154 38.9937C71.0227 38.026 73.775 37.5315 76.7918 37.5315V33.6915C73.3479 33.6915 70.1218 34.2576 67.1327 35.4113L68.5154 38.9937ZM76.7918 37.5315C78.8826 37.5315 80.1587 37.8119 80.8465 38.1671C81.1625 38.3303 81.2921 38.4774 81.3484 38.5646C81.3988 38.6427 81.4529 38.7675 81.4529 39.0105H85.2929C85.2929 38.1206 85.0728 37.2539 84.5748 36.4823C84.0826 35.7197 83.3896 35.1587 82.6087 34.7553C81.1029 33.9776 79.0884 33.6915 76.7918 33.6915V37.5315ZM73.5374 21.9104C76.5648 21.9104 78.6855 22.3756 80.0733 23.1258L81.8993 19.7477C79.7194 18.5694 76.8741 18.0704 73.5374 18.0704V21.9104ZM80.1277 23.1541C80.7167 23.4486 81.1025 23.831 81.3601 24.3054C81.6285 24.7999 81.8145 25.5021 81.8145 26.4992H85.6545C85.6545 25.0373 85.3825 23.6663 84.7348 22.4734C84.0764 21.2604 83.088 20.341 81.845 19.7195L80.1277 23.1541ZM81.8145 26.4992C81.8145 28.079 81.2515 29.0672 80.165 29.7657C78.9332 30.5576 76.8405 31.088 73.6097 31.088V34.928C77.1287 34.928 80.0984 34.3736 82.2415 32.9958C84.53 31.5247 85.6545 29.2585 85.6545 26.4992H81.8145ZM73.6097 31.088C70.3789 31.088 68.2861 30.5576 67.0543 29.7657C65.9678 29.0672 65.4049 28.079 65.4049 26.4992H61.5649C61.5649 29.2585 62.6894 31.5247 64.9778 32.9958C67.121 34.3736 70.0906 34.928 73.6097 34.928V31.088ZM65.4049 26.4992C65.4049 24.9132 65.9669 23.925 67.0415 23.2292C68.26 22.4403 70.3323 21.9104 73.5374 21.9104V18.0704C70.0408 18.0704 67.0869 18.6252 64.9545 20.0059C62.6783 21.4797 61.5649 23.7459 61.5649 26.4992H65.4049ZM98.0979 75.1705L97.2979 76.9159L97.3011 76.9174L98.0979 75.1705ZM94.3373 72.784L93.1245 74.2724L93.1377 74.2832L93.1511 74.2937L94.3373 72.784ZM91.0829 69.0233L89.4244 69.9908L89.4304 70.001L89.4365 70.0112L91.0829 69.0233ZM89.7088 46.1702L91.4849 46.8997L91.4893 46.8887L89.7088 46.1702ZM93.7587 39.806L92.4441 38.4066L92.4441 38.4066L93.7587 39.806ZM99.255 36.1177L98.4473 34.3759L98.4453 34.3768L99.255 36.1177ZM120.879 35.1052L120.166 36.8879L120.172 36.8906L120.179 36.8932L120.879 35.1052ZM123.048 46.1702L121.223 45.5742L121.219 45.5858L121.216 45.5975L123.048 46.1702ZM116.612 48.4121L115.861 50.1792L115.869 50.1825L115.876 50.1857L116.612 48.4121ZM108.295 48.9184L106.698 47.8533L106.692 47.8614L106.687 47.8695L108.295 48.9184ZM108.223 62.1529L106.548 63.091L106.556 63.1058L106.564 63.1204L108.223 62.1529ZM116.684 62.4422L117.479 64.1901L117.479 64.1901L116.684 62.4422ZM122.831 64.2502L121.035 64.9287L121.042 64.9461L121.049 64.9633L122.831 64.2502ZM120.083 75.5321L120.757 77.3299L120.771 77.3246L120.785 77.3192L120.083 75.5321ZM98.8979 73.4251C97.9166 72.9753 96.7928 72.2716 95.5235 71.2742L93.1511 74.2937C94.5817 75.4178 95.965 76.305 97.2979 76.9159L98.8979 73.4251ZM95.5501 71.2955C94.4216 70.376 93.4832 69.292 92.7293 68.0355L89.4365 70.0112C90.4182 71.6474 91.6495 73.0706 93.1245 74.2724L95.5501 71.2955ZM92.7413 68.0559C90.9419 64.9712 89.9654 60.8068 89.9654 55.4272H86.1254C86.1254 61.233 87.1739 66.1327 89.4244 69.9908L92.7413 68.0559ZM89.9654 55.4272C89.9654 52.1596 90.4872 49.3287 91.4848 46.8996L87.9328 45.4408C86.7126 48.4116 86.1254 51.752 86.1254 55.4272H89.9654ZM91.4893 46.8887C92.5293 44.3113 93.744 42.4542 95.0733 41.2054L92.4441 38.4066C90.5914 40.1471 89.1061 42.5327 87.9283 45.4517L91.4893 46.8887ZM95.0733 41.2054C96.5084 39.8573 98.1681 38.7408 100.065 37.8586L98.4453 34.3768C96.1956 35.4232 94.1912 36.7655 92.4441 38.4066L95.0733 41.2054ZM100.063 37.8595C103.163 36.422 106.215 35.7235 109.235 35.7235V31.8835C105.602 31.8835 102.001 32.7278 98.4473 34.3759L100.063 37.8595ZM109.235 35.7235C114.831 35.7235 118.375 36.1715 120.166 36.8879L121.592 33.3226C119.044 32.3033 114.825 31.8835 109.235 31.8835V35.7235ZM120.179 36.8932C121.052 37.235 121.555 37.6354 121.841 38.015C122.113 38.3758 122.285 38.8423 122.285 39.5168H126.125C126.125 38.118 125.744 36.8127 124.907 35.703C124.084 34.6121 122.923 33.8434 121.578 33.3172L120.179 36.8932ZM122.285 39.5168C122.285 41.3519 121.944 43.3671 121.223 45.5742L124.873 46.7662C125.696 44.2483 126.125 41.8279 126.125 39.5168H122.285ZM121.216 45.5975C120.889 46.6434 120.56 47.2413 120.308 47.5446C120.091 47.8044 120.05 47.7216 120.156 47.7216V51.5616C121.467 51.5616 122.51 50.9002 123.258 50.0029C123.969 49.149 124.485 48.0113 124.881 46.7429L121.216 45.5975ZM120.156 47.7216C120.32 47.7216 120.374 47.752 120.203 47.7072C120.074 47.6735 119.88 47.6141 119.61 47.5203C119.071 47.3334 118.321 47.0425 117.347 46.6385L115.876 50.1857C116.879 50.6014 117.708 50.9252 118.351 51.1481C118.671 51.2592 118.969 51.3535 119.231 51.4222C119.452 51.4799 119.798 51.5616 120.156 51.5616V47.7216ZM117.363 46.6451C115.295 45.7661 113.342 45.2627 111.549 45.2627V49.1027C112.649 49.1027 114.072 49.4189 115.861 50.1792L117.363 46.6451ZM111.549 45.2627C109.513 45.2627 107.827 46.1586 106.698 47.8533L109.893 49.9834C110.306 49.3639 110.789 49.1027 111.549 49.1027V45.2627ZM106.687 47.8695C106.113 48.7489 105.786 49.8783 105.587 51.0831C105.383 52.3191 105.29 53.7998 105.29 55.4995H109.13C109.13 53.9206 109.218 52.6653 109.376 51.7076C109.539 50.7186 109.754 50.1967 109.903 49.9672L106.687 47.8695ZM105.29 55.4995C105.29 57.1731 105.377 58.6384 105.565 59.8744C105.75 61.0872 106.049 62.2008 106.548 63.091L109.898 61.2148C109.722 60.8998 109.514 60.3018 109.362 59.2967C109.212 58.3149 109.13 57.0561 109.13 55.4995H105.29ZM106.564 63.1204C107.601 64.8983 109.288 65.8086 111.332 65.8086V61.9686C110.581 61.9686 110.194 61.7217 109.881 61.1855L106.564 63.1204ZM111.332 65.8086C113.17 65.8086 115.243 65.2065 117.479 64.1901L115.89 60.6943C113.883 61.6064 112.388 61.9686 111.332 61.9686V65.8086ZM117.479 64.1901C118.532 63.7114 119.331 63.3619 119.887 63.135C120.167 63.0206 120.363 62.9467 120.487 62.9046C120.55 62.8831 120.572 62.8777 120.565 62.8797C120.56 62.8808 120.533 62.8876 120.49 62.8949C120.454 62.9009 120.358 62.9158 120.228 62.9158V59.0758C119.948 59.0758 119.711 59.1346 119.622 59.1571C119.495 59.1892 119.369 59.229 119.254 59.2678C119.023 59.3462 118.746 59.4532 118.436 59.5798C117.81 59.835 116.958 60.2088 115.89 60.6943L117.479 64.1901ZM120.228 62.9158C119.852 62.9158 119.805 62.6818 120.066 63.0088C120.319 63.3241 120.656 63.924 121.035 64.9287L124.627 63.5717C124.187 62.4068 123.681 61.3795 123.065 60.61C122.459 59.8522 121.519 59.0758 120.228 59.0758V62.9158ZM121.049 64.9633C121.858 66.9873 122.213 68.667 122.213 70.0358H126.053C126.053 68.0296 125.54 65.8523 124.614 63.5371L121.049 64.9633ZM122.213 70.0358C122.213 70.9892 121.973 71.6838 121.575 72.2236C121.166 72.7783 120.486 73.311 119.381 73.7451L120.785 77.3192C122.38 76.6925 123.725 75.7788 124.666 74.5015C125.619 73.2092 126.053 71.686 126.053 70.0358H122.213ZM119.409 73.7344C117.015 74.632 113.611 75.1308 109.091 75.1308V78.9708C113.827 78.9708 117.751 78.4572 120.757 77.3299L119.409 73.7344ZM109.091 75.1308C104.657 75.1308 101.297 74.5197 98.8947 73.4237L97.3011 76.9174C100.395 78.3285 104.364 78.9708 109.091 78.9708V75.1308ZM144.007 75.966L144.212 77.8751L144.228 77.8733L144.245 77.8712L144.007 75.966ZM129.832 76.0384L129.225 77.8598L129.271 77.8753L129.318 77.8883L129.832 76.0384ZM132.58 21.5091L131.917 19.7074L131.906 19.7113L132.58 21.5091ZM148.057 50.3648H146.137V52.2848H148.057V50.3648ZM148.997 50.3648V52.2848H150.556L150.876 50.7586L148.997 50.3648ZM164.257 35.7561L164.857 33.9324L164.857 33.9324L164.257 35.7561ZM167.294 46.7488L168.949 47.7222L168.949 47.7222L167.294 46.7488ZM161.291 54.7763L159.934 53.4186L158.692 54.6606L159.819 56.008L161.291 54.7763ZM165.052 74.7366L164.232 73.0006L164.232 73.0007L165.052 74.7366ZM153.047 74.7366L151.299 75.5311L151.303 75.5387L151.306 75.5463L153.047 74.7366ZM149.937 65.2627L151.793 64.772L150.847 61.1906L148.466 64.0289L149.937 65.2627ZM148.057 67.5046L146.586 66.2708L146.137 66.806V67.5046H148.057ZM146.137 74.6643C146.137 73.8884 146.644 73.5126 146.688 73.4816C146.755 73.4335 146.719 73.4752 146.457 73.5596C145.956 73.7204 145.087 73.8961 143.769 74.0609L144.245 77.8712C145.627 77.6985 146.782 77.4884 147.632 77.2154C148.045 77.0828 148.515 76.8955 148.92 76.6063C149.301 76.3343 149.977 75.7053 149.977 74.6643H146.137ZM143.802 74.057C141.176 74.3384 138.424 74.48 135.546 74.48V78.32C138.549 78.32 141.438 78.1722 144.212 77.8751L143.802 74.057ZM135.546 74.48C134.096 74.48 132.929 74.4501 132.033 74.3934C131.1 74.3344 130.576 74.2522 130.346 74.1884L129.318 77.8883C129.957 78.0656 130.818 78.1642 131.79 78.2257C132.798 78.2895 134.054 78.32 135.546 78.32V74.48ZM130.439 74.2169C130.318 74.1765 130.25 74.1425 130.219 74.1246C130.188 74.1071 130.208 74.1135 130.25 74.1574C130.295 74.2048 130.352 74.2826 130.395 74.3897C130.437 74.497 130.451 74.5947 130.451 74.6643H126.611C126.611 75.4726 126.91 76.2153 127.462 76.7984C127.972 77.3364 128.617 77.6572 129.225 77.8598L130.439 74.2169ZM130.451 74.6643V24.6188H126.611V74.6643H130.451ZM130.451 24.6188C130.451 24.9721 130.223 24.9441 130.712 24.5687C131.168 24.2188 131.977 23.7858 133.255 23.3068L131.906 19.7113C130.484 20.2448 129.268 20.8364 128.374 21.523C127.513 22.1842 126.611 23.2049 126.611 24.6188H130.451ZM133.244 23.3107C135.765 22.3818 138.48 21.9104 141.403 21.9104V18.0704C138.059 18.0704 134.892 18.6113 131.917 19.7075L133.244 23.3107ZM141.403 21.9104C143.523 21.9104 144.827 22.1855 145.535 22.5393C145.862 22.7027 145.991 22.8482 146.044 22.9267C146.088 22.9931 146.137 23.0986 146.137 23.3171H149.977C149.977 22.4267 149.749 21.5619 149.239 20.7966C148.736 20.0434 148.034 19.4958 147.252 19.1047C145.742 18.3497 143.719 18.0704 141.403 18.0704V21.9104ZM146.137 23.3171V50.3648H149.977V23.3171H146.137ZM148.057 52.2848H148.997V48.4448H148.057V52.2848ZM150.876 50.7586C152.03 45.2529 153.022 41.184 153.85 38.5124C154.268 37.1639 154.62 36.2538 154.897 35.7121C155.039 35.4336 155.115 35.3468 155.106 35.3565C155.098 35.3656 155.026 35.444 154.883 35.5271C154.733 35.6149 154.474 35.7235 154.132 35.7235V31.8835C153.18 31.8835 152.553 32.4574 152.27 32.7679C151.946 33.1228 151.688 33.5535 151.477 33.965C151.049 34.8034 150.62 35.9634 150.183 37.3752C149.299 40.2241 148.278 44.4357 147.118 49.9709L150.876 50.7586ZM154.132 35.7235C156.651 35.7235 159.811 36.3138 163.656 37.5798L164.857 33.9324C160.795 32.5949 157.206 31.8835 154.132 31.8835V35.7235ZM163.656 37.5798C165.556 38.2052 166.819 38.8168 167.57 39.3667C167.939 39.6363 168.123 39.8468 168.207 39.9764C168.247 40.0374 168.26 40.0741 168.264 40.087C168.265 40.0905 168.266 40.093 168.266 40.0944C168.267 40.0959 168.267 40.0966 168.267 40.0966C168.267 40.0967 168.267 40.0965 168.267 40.0961C168.267 40.0959 168.267 40.0957 168.267 40.0955C168.267 40.0954 168.267 40.0953 168.267 40.0953H172.107C172.107 38.4124 171.046 37.1516 169.838 36.2677C168.613 35.3713 166.911 34.6087 164.857 33.9324L163.656 37.5798ZM168.267 40.0953C168.267 40.2528 168.17 40.7873 167.703 41.861C167.264 42.8702 166.584 44.1698 165.639 45.7753L168.949 47.7222C169.933 46.0492 170.699 44.6007 171.224 43.3921C171.722 42.248 172.107 41.0949 172.107 40.0953H168.267ZM165.639 45.7753C163.77 48.9527 161.864 51.4886 159.934 53.4186L162.649 56.1339C164.865 53.9176 166.961 51.1018 168.949 47.7222L165.639 45.7753ZM159.819 56.008C163.254 60.116 165.8 63.3532 167.478 65.7356C168.319 66.9299 168.916 67.872 169.294 68.5783C169.483 68.9314 169.6 69.1933 169.666 69.3752C169.74 69.5798 169.713 69.5844 169.713 69.4572H173.553C173.553 68.9444 173.418 68.4586 173.277 68.068C173.127 67.6548 172.921 67.2168 172.679 66.7654C172.196 65.8625 171.5 64.7766 170.617 63.5242C168.848 61.0129 166.223 57.681 162.764 53.5446L159.819 56.008ZM169.713 69.4572C169.713 69.2351 169.82 69.5354 168.787 70.3642C167.862 71.1062 166.372 71.9892 164.232 73.0006L165.872 76.4726C168.119 75.4109 169.921 74.3774 171.189 73.3595C172.35 72.4286 173.553 71.1258 173.553 69.4572H169.713ZM164.232 73.0007C162.077 74.0191 160.282 74.763 158.836 75.2489C157.356 75.7461 156.374 75.9264 155.795 75.9264V79.7664C157.001 79.7664 158.453 79.4283 160.059 78.889C161.698 78.3382 163.64 77.5273 165.872 76.4726L164.232 73.0007ZM155.795 75.9264C156.167 75.9264 156.202 76.1441 155.896 75.7975C155.614 75.4785 155.236 74.8899 154.788 73.9269L151.306 75.5463C151.822 76.6565 152.384 77.6228 153.019 78.3403C153.628 79.0303 154.555 79.7664 155.795 79.7664V75.9264ZM154.795 73.9421C153.898 71.9692 152.894 68.9349 151.793 64.772L148.081 65.7534C149.198 69.9796 150.267 73.2613 151.299 75.5311L154.795 73.9421ZM148.466 64.0289L146.586 66.2708L149.528 68.7384L151.408 66.4965L148.466 64.0289ZM146.137 67.5046V74.6643H149.977V67.5046H146.137ZM176.605 74.7366L175.837 76.4967L175.853 76.5033L175.868 76.5096L176.605 74.7366ZM175.52 65.4073L173.76 64.6394L173.76 64.6394L175.52 65.4073ZM183.403 63.0208L182.711 64.812L182.722 64.816L183.403 63.0208ZM194.178 64.2502L193.489 62.4582L193.464 62.4677L193.44 62.4779L194.178 64.2502ZM193.672 61.2128L192.884 62.9637L192.921 62.9803L192.959 62.9954L193.672 61.2128ZM190.056 60.3449L190.247 58.4344L190.247 58.4344L190.056 60.3449ZM185.355 59.4771L184.864 61.3332L184.877 61.3366L185.355 59.4771ZM180.727 57.8137L179.915 59.5536L179.915 59.5536L180.727 57.8137ZM177.111 54.487L175.469 55.4821L175.476 55.4934L175.483 55.5046L177.111 54.487ZM175.809 45.3747L177.717 45.5867L177.719 45.5757L175.809 45.3747ZM176.966 41.614L175.21 40.839L175.204 40.8516L175.199 40.8642L176.966 41.614ZM179.931 37.6364L178.753 36.1209L178.739 36.1317L178.725 36.1428L179.931 37.6364ZM185.862 34.8883L185.304 33.051L185.295 33.0539L185.862 34.8883ZM203.218 34.0204L203.011 35.9292L203.033 35.9316L203.056 35.9335L203.218 34.0204ZM208.498 34.816L207.999 36.6699L208.007 36.6723L208.016 36.6745L208.498 34.816ZM211.68 35.9731L210.782 37.67L210.79 37.6742L210.798 37.6785L211.68 35.9731ZM203.363 47.3273L202.766 49.1521L202.781 49.157L202.796 49.1617L203.363 47.3273ZM196.493 49.4246L195.965 51.2707L196.003 51.2817L196.042 51.291L196.493 49.4246ZM201.483 50.5094L201.106 52.3921L201.106 52.3921L201.483 50.5094ZM207.268 52.1728L206.594 53.9705L206.621 53.9805L206.648 53.9898L207.268 52.1728ZM212.258 55.9334L210.713 57.0723L210.722 57.0854L210.732 57.0982L212.258 55.9334ZM194.178 75.1308C186.227 75.1308 180.688 74.3543 177.342 72.9636L175.868 76.5096C179.946 78.2046 186.123 78.9708 194.178 78.9708V75.1308ZM177.372 72.9765C176.505 72.5988 175.994 72.2832 175.73 72.0595C175.436 71.8113 175.704 71.9062 175.704 72.35H171.864C171.864 73.5653 172.602 74.4436 173.249 74.9909C173.925 75.5628 174.824 76.0548 175.837 76.4967L177.372 72.9765ZM175.704 72.35C175.704 70.7305 176.183 68.6876 177.28 66.1752L173.76 64.6394C172.542 67.4305 171.864 70.0161 171.864 72.35H175.704ZM177.28 66.1752C177.834 64.9037 178.304 64.0721 178.673 63.5894C178.856 63.3498 178.964 63.2625 178.986 63.2475C179.001 63.2366 178.847 63.3497 178.557 63.3497V59.5097C177.154 59.5097 176.181 60.5253 175.621 61.2588C174.977 62.102 174.362 63.2592 173.76 64.6394L177.28 66.1752ZM178.557 63.3497C178.42 63.3497 178.41 63.3273 178.661 63.3906C178.863 63.4416 179.149 63.5261 179.531 63.6517C180.293 63.9019 181.349 64.2862 182.711 64.812L184.094 61.2295C182.708 60.6946 181.582 60.2834 180.729 60.0033C180.304 59.8637 179.924 59.7493 179.602 59.6678C179.328 59.5985 178.936 59.5097 178.557 59.5097V63.3497ZM182.722 64.816C185.623 65.9162 188.209 66.5318 190.418 66.5318V62.6918C188.866 62.6918 186.776 62.2467 184.084 61.2256L182.722 64.816ZM190.418 66.5318C191.415 66.5318 192.277 66.5009 192.988 66.4326C193.654 66.3686 194.35 66.2586 194.917 66.0225L193.44 62.4779C193.456 62.4713 193.404 62.4935 193.246 62.5247C193.096 62.5543 192.891 62.5842 192.621 62.6102C192.078 62.6624 191.349 62.6918 190.418 62.6918V66.5318ZM194.868 66.0422C195.467 65.8118 196.049 65.4227 196.468 64.8101C196.887 64.1982 197.039 63.5158 197.039 62.8761H193.199C193.199 62.9115 193.194 62.7955 193.299 62.6417C193.405 62.4871 193.517 62.4476 193.489 62.4582L194.868 66.0422ZM197.039 62.8761C197.039 61.0291 195.702 59.9569 194.385 59.4301L192.959 62.9954C193.106 63.0544 193.202 63.1065 193.259 63.1435C193.315 63.1801 193.323 63.1949 193.308 63.1777C193.291 63.1576 193.258 63.1123 193.232 63.0432C193.206 62.9737 193.199 62.9131 193.199 62.8761H197.039ZM194.46 59.4619C193.251 58.9177 191.828 58.5926 190.247 58.4344L189.865 62.2554C191.177 62.3866 192.165 62.64 192.884 62.9637L194.46 59.4619ZM190.247 58.4344C188.914 58.3012 187.445 58.0319 185.834 57.6176L184.877 61.3366C186.641 61.7902 188.305 62.0994 189.865 62.2554L190.247 58.4344ZM185.847 57.621C184.311 57.2144 182.876 56.6978 181.539 56.0738L179.915 59.5536C181.471 60.2796 183.122 60.8719 184.864 61.3332L185.847 57.621ZM181.539 56.0739C180.474 55.5768 179.535 54.7429 178.739 53.4694L175.483 55.5046C176.615 57.3168 178.087 58.7006 179.915 59.5536L181.539 56.0739ZM178.753 53.4919C177.962 52.1874 177.585 50.8422 177.585 49.4246H173.745C173.745 51.5748 174.331 53.6045 175.469 55.4821L178.753 53.4919ZM177.585 49.4246C177.585 47.6041 177.633 46.343 177.717 45.5867L173.901 45.1627C173.792 46.142 173.745 47.5809 173.745 49.4246H177.585ZM177.719 45.5757C177.785 44.9477 178.08 43.9047 178.734 42.3639L175.199 40.8642C174.502 42.5054 174.026 43.9695 173.9 45.1737L177.719 45.5757ZM178.723 42.389C179.337 40.998 180.148 39.9296 181.138 39.1301L178.725 36.1428C177.208 37.3683 176.042 38.9516 175.21 40.839L178.723 42.389ZM181.11 39.152C182.146 38.3466 183.868 37.514 186.429 36.7227L185.295 33.0539C182.552 33.9018 180.321 34.9013 178.753 36.1209L181.11 39.152ZM186.419 36.7255C188.91 35.9695 191.731 35.5788 194.902 35.5788V31.7388C191.419 31.7388 188.214 32.1678 185.304 33.0511L186.419 36.7255ZM194.902 35.5788C198.189 35.5788 200.887 35.6983 203.011 35.9292L203.426 32.1117C201.115 31.8605 198.268 31.7388 194.902 31.7388V35.5788ZM203.056 35.9335C205.279 36.1227 206.907 36.3762 207.999 36.6699L208.997 32.962C207.581 32.5808 205.69 32.3038 203.381 32.1074L203.056 35.9335ZM208.016 36.6745C209.232 36.9897 210.138 37.3295 210.782 37.67L212.578 34.2762C211.582 33.7488 210.367 33.3172 208.98 32.9574L208.016 36.6745ZM210.798 37.6785C211.378 37.9786 211.676 38.2264 211.811 38.3795C211.923 38.5075 211.857 38.4894 211.857 38.3596H215.697C215.697 36.329 214.07 35.0477 212.562 34.2677L210.798 37.6785ZM211.857 38.3596C211.857 39.7965 211.334 41.64 210.069 43.9444L213.435 45.7925C214.87 43.1791 215.697 40.6834 215.697 38.3596H211.857ZM210.069 43.9444C209.422 45.124 208.892 45.9045 208.486 46.3644C208.285 46.5931 208.161 46.6871 208.121 46.7132C208.079 46.7405 208.217 46.6368 208.498 46.6368V50.4768C209.807 50.4768 210.781 49.5675 211.366 48.905C212.045 48.1354 212.733 47.0717 213.435 45.7925L210.069 43.9444ZM208.498 46.6368C208.358 46.6368 207.93 46.5851 207.083 46.3822C206.283 46.1908 205.236 45.8966 203.93 45.4929L202.796 49.1617C204.142 49.5776 205.276 49.8982 206.188 50.1166C207.053 50.3236 207.866 50.4768 208.498 50.4768V46.6368ZM203.96 45.5026C201.293 44.6297 199.089 44.1056 197.505 44.1056V47.9456C198.429 47.9456 200.13 48.2893 202.766 49.1521L203.96 45.5026ZM197.505 44.1056C196.373 44.1056 195.213 44.2563 194.274 44.7925C193.176 45.4203 192.548 46.487 192.548 47.7612H196.388C196.388 47.7596 196.385 47.8505 196.316 47.9693C196.247 48.0874 196.172 48.1311 196.18 48.1265C196.199 48.1152 196.301 48.0649 196.536 48.0201C196.767 47.976 197.085 47.9456 197.505 47.9456V44.1056ZM192.548 47.7612C192.548 48.8174 193.076 49.6448 193.755 50.2031C194.382 50.718 195.173 51.0444 195.965 51.2707L197.02 47.5785C196.756 47.5029 196.558 47.4285 196.415 47.3622C196.271 47.2951 196.207 47.2477 196.193 47.2358C196.181 47.226 196.235 47.2675 196.292 47.3751C196.354 47.4921 196.388 47.6298 196.388 47.7612H192.548ZM196.042 51.291C197.472 51.6361 199.161 52.0031 201.106 52.3921L201.859 48.6267C199.947 48.2443 198.31 47.8881 196.943 47.5582L196.042 51.291ZM201.106 52.3921C202.929 52.7566 204.758 53.2819 206.594 53.9705L207.943 50.375C205.922 49.6172 203.894 49.0336 201.859 48.6267L201.106 52.3921ZM206.648 53.9898C208.221 54.5269 209.573 55.5257 210.713 57.0723L213.804 54.7945C212.244 52.6769 210.269 51.1686 207.889 50.3558L206.648 53.9898ZM210.732 57.0982C211.824 58.5291 212.436 60.4084 212.436 62.8761H216.276C216.276 59.751 215.489 57.0019 213.785 54.7686L210.732 57.0982ZM212.436 62.8761C212.436 67.0836 210.976 69.991 208.208 71.9361C205.315 73.9682 200.738 75.1308 194.178 75.1308V78.9708C201.07 78.9708 206.582 77.7711 210.415 75.0782C214.372 72.2984 216.276 68.1185 216.276 62.8761H212.436ZM28.2662 158.677L28.0205 156.773L28.0165 156.773L28.2662 158.677ZM13.8022 158.749L14.5332 156.974L14.5332 156.974L13.8022 158.749ZM16.6227 109.499L15.987 107.687L15.9769 107.691L16.6227 109.499ZM31.8099 109.788L30.2739 110.94L30.2792 110.948L30.2847 110.955L31.8099 109.788ZM32.75 123.963H30.83V125.883H32.75V123.963ZM33.3286 123.963V125.883H35.2486V123.963H33.3286ZM35.4982 117.961L33.708 117.266L33.7062 117.271L35.4982 117.961ZM51.4809 109.427L50.8861 111.252L50.8865 111.253L51.4809 109.427ZM56.8326 112.392L55.5716 113.84L55.5851 113.852L55.5988 113.863L56.8326 112.392ZM56.1094 122.227L54.5415 121.119L54.5377 121.125L56.1094 122.227ZM47.2863 133.292L45.8264 132.045L44.7029 133.361L45.8943 134.615L47.2863 133.292ZM50.7577 136.981L49.3556 138.292L49.3556 138.292L50.7577 136.981ZM56.3263 143.707L54.8081 144.882L54.8187 144.896L54.8295 144.909L56.3263 143.707ZM56.471 154.41L57.5963 155.966L57.6071 155.958L57.6177 155.95L56.471 154.41ZM49.239 158.46L49.9462 160.245L49.9607 160.239L49.9751 160.233L49.239 158.46ZM40.1267 156.29L38.4498 157.225L38.4606 157.245L38.4717 157.264L40.1267 156.29ZM34.9919 145.081L36.7698 144.356L35.5666 141.405L33.5202 143.848L34.9919 145.081ZM32.75 147.756L31.2783 146.523L30.83 147.058V147.756H32.75ZM30.83 157.158C30.83 156.461 31.2639 156.11 31.3099 156.075C31.3622 156.036 31.3055 156.09 31.0131 156.189C30.45 156.38 29.4809 156.584 28.0205 156.773L28.5119 160.581C30.0407 160.384 31.3135 160.142 32.245 159.826C32.6999 159.672 33.2037 159.458 33.6297 159.136C34.0493 158.817 34.67 158.169 34.67 157.158H30.83ZM28.0165 156.773C25.1576 157.148 22.2999 157.335 19.4431 157.335V161.175C22.4683 161.175 25.4928 160.977 28.5158 160.58L28.0165 156.773ZM19.4431 157.335C18.0022 157.335 16.8596 157.294 15.9988 157.216C15.0844 157.134 14.6572 157.025 14.5332 156.974L13.0711 160.524C13.7668 160.811 14.6895 160.954 15.6555 161.041C16.6749 161.133 17.9431 161.175 19.4431 161.175V157.335ZM14.5332 156.974C14.3371 156.893 14.3428 156.851 14.3994 156.924C14.4288 156.962 14.4565 157.012 14.4745 157.068C14.492 157.121 14.4927 157.156 14.4927 157.158H10.6527C10.6527 157.909 10.8751 158.644 11.3608 159.272C11.8272 159.876 12.4476 160.268 13.0711 160.524L14.5332 156.974ZM14.4927 157.158V112.826H10.6527V157.158H14.4927ZM14.4927 112.826C14.4927 112.975 14.3894 112.878 14.8039 112.538C15.2336 112.185 16.0109 111.756 17.2684 111.307L15.9769 107.691C14.5345 108.206 13.2868 108.814 12.3665 109.57C11.4311 110.339 10.6527 111.423 10.6527 112.826H14.4927ZM17.2583 111.311C19.7622 110.432 22.6983 109.973 26.0966 109.973V106.133C22.3593 106.133 18.9795 106.637 15.987 107.687L17.2583 111.311ZM26.0966 109.973C27.4592 109.973 28.4653 110.109 29.1726 110.324C29.8781 110.538 30.1618 110.791 30.2739 110.94L33.3459 108.636C32.5901 107.629 31.4877 107.014 30.2888 106.65C29.0916 106.286 27.675 106.133 26.0966 106.133V109.973ZM30.2847 110.955C30.7834 111.607 30.83 111.948 30.83 112.03H34.67C34.67 110.763 34.0899 109.609 33.335 108.622L30.2847 110.955ZM30.83 112.03V123.963H34.67V112.03H30.83ZM32.75 125.883H33.3286V122.043H32.75V125.883ZM35.2486 123.963C35.2486 124.224 35.1856 124.406 35.2182 124.283C35.2284 124.245 35.2507 124.168 35.2915 124.042C35.3717 123.793 35.4984 123.427 35.6766 122.934C36.0315 121.953 36.5683 120.527 37.2902 118.65L33.7062 117.271C32.9816 119.155 32.4336 120.61 32.0653 121.629C31.8819 122.136 31.7375 122.551 31.6369 122.863C31.5872 123.017 31.5418 123.166 31.5068 123.298C31.4941 123.345 31.4086 123.642 31.4086 123.963H35.2486ZM37.2883 118.655C38.6524 115.137 39.8002 112.581 40.7318 110.931C41.2022 110.098 41.5718 109.579 41.8346 109.293C42.1775 108.919 42.048 109.25 41.5007 109.25V105.41C40.3267 105.41 39.477 106.183 39.0063 106.695C38.4555 107.295 37.9181 108.104 37.388 109.043C36.3189 110.937 35.0921 113.697 33.708 117.266L37.2883 118.655ZM41.5007 109.25C43.5527 109.25 46.6458 109.871 50.8861 111.252L52.0757 107.601C47.7341 106.187 44.1737 105.41 41.5007 105.41V109.25ZM50.8865 111.253C52.739 111.856 54.2902 112.724 55.5716 113.84L58.0936 110.944C56.3858 109.457 54.3691 108.348 52.0753 107.601L50.8865 111.253ZM55.5988 113.863C56.783 114.856 57.1545 115.756 57.1545 116.587H60.9945C60.9945 114.331 59.8714 112.435 58.0664 110.921L55.5988 113.863ZM57.1545 116.587C57.1545 116.56 57.1175 116.906 56.6337 117.827C56.1949 118.661 55.5069 119.754 54.5415 121.119L57.6772 123.336C58.6886 121.905 59.4832 120.659 60.0327 119.613C60.5373 118.653 60.9945 117.578 60.9945 116.587H57.1545ZM54.5377 121.125C52.6615 123.798 49.7666 127.433 45.8264 132.045L48.7463 134.539C52.7131 129.895 55.7002 126.153 57.681 123.33L54.5377 121.125ZM45.8943 134.615C46.8057 135.574 47.9592 136.8 49.3556 138.292L52.1598 135.669C50.7599 134.173 49.5991 132.939 48.6783 131.97L45.8943 134.615ZM49.3556 138.292C50.6923 139.721 52.5054 141.908 54.8081 144.882L57.8445 142.531C55.5188 139.527 53.6195 137.229 52.1598 135.669L49.3556 138.292ZM54.8295 144.909C55.9774 146.338 56.7924 147.506 57.3112 148.427C57.8636 149.408 57.95 149.885 57.95 149.998H61.79C61.79 148.858 61.2858 147.659 60.657 146.543C59.9946 145.367 59.0377 144.016 57.8232 142.504L54.8295 144.909ZM57.95 149.998C57.95 150.04 57.9263 150.315 57.4993 150.87C57.0805 151.413 56.3815 152.083 55.3242 152.87L57.6177 155.95C58.8264 155.05 59.827 154.14 60.5412 153.213C61.2472 152.297 61.79 151.21 61.79 149.998H57.95ZM55.3456 152.854C53.1991 154.407 50.9189 155.684 48.5029 156.687L49.9751 160.233C52.6696 159.115 55.2108 157.691 57.5963 155.966L55.3456 152.854ZM48.5317 156.675C45.997 157.679 44.3863 158.059 43.5257 158.059V161.899C45.1722 161.899 47.3703 161.265 49.9462 160.245L48.5317 156.675ZM43.5257 158.059C43.8018 158.059 43.9323 158.159 43.8752 158.123C43.8228 158.09 43.6881 157.989 43.4731 157.755C43.0413 157.287 42.4768 156.499 41.7816 155.317L38.4717 157.264C39.223 158.541 39.9481 159.597 40.6493 160.358C41.0008 160.739 41.3934 161.098 41.8292 161.373C42.2603 161.644 42.8397 161.899 43.5257 161.899V158.059ZM41.8035 155.355C40.4628 152.951 38.7859 149.3 36.7698 144.356L33.2141 145.806C35.2479 150.793 36.9942 154.615 38.4498 157.225L41.8035 155.355ZM33.5202 143.848L31.2783 146.523L34.2217 148.99L36.4637 146.314L33.5202 143.848ZM30.83 147.756V157.158H34.67V147.756H30.83ZM79.1783 158.966L79.3793 160.875L79.3939 160.874L79.4084 160.872L79.1783 158.966ZM65.0036 159.038L64.3646 160.849L64.4265 160.871L64.4897 160.888L65.0036 159.038ZM67.8241 120.203L68.4982 122L68.5069 121.997L68.5154 121.994L67.8241 120.203ZM80.9863 104.437L80.0733 106.126L80.1003 106.14L80.1277 106.154L80.9863 104.437ZM81.4529 122.011V157.664H85.2929V122.011H81.4529ZM81.4529 157.664C81.4529 156.857 81.9956 156.481 82.0207 156.463C82.0807 156.422 82.0328 156.468 81.7552 156.554C81.2259 156.718 80.3161 156.895 78.9483 157.06L79.4084 160.872C80.8369 160.7 82.0245 160.491 82.8933 160.221C83.3148 160.09 83.7912 159.907 84.2008 159.625C84.5754 159.366 85.2929 158.736 85.2929 157.664H81.4529ZM78.9773 157.057C76.3 157.338 73.5227 157.48 70.6446 157.48V161.32C73.6485 161.32 76.5603 161.172 79.3793 160.875L78.9773 157.057ZM70.6446 157.48C69.22 157.48 68.0714 157.45 67.1876 157.393C66.2689 157.335 65.7488 157.253 65.5175 157.188L64.4897 160.888C65.1262 161.065 65.9802 161.164 66.9419 161.226C67.9384 161.29 69.1763 161.32 70.6446 161.32V157.48ZM65.6426 157.228C65.4183 157.149 65.4314 157.107 65.5124 157.198C65.5582 157.249 65.6098 157.325 65.6471 157.424C65.6842 157.522 65.6942 157.608 65.6942 157.664H61.8542C61.8542 158.44 62.124 159.169 62.6507 159.758C63.1415 160.307 63.7693 160.639 64.3646 160.849L65.6426 157.228ZM65.6942 157.664V123.312H61.8542V157.664H65.6942ZM65.6942 123.312C65.6942 123.666 65.4671 123.638 65.956 123.262C66.4117 122.912 67.221 122.479 68.4982 122L67.1499 118.405C65.7272 118.938 64.5115 119.53 63.6173 120.216C62.7562 120.878 61.8542 121.898 61.8542 123.312H65.6942ZM68.5154 121.994C71.0227 121.026 73.775 120.531 76.7918 120.531V116.691C73.3479 116.691 70.1218 117.258 67.1327 118.411L68.5154 121.994ZM76.7918 120.531C78.8826 120.531 80.1587 120.812 80.8465 121.167C81.1625 121.33 81.2921 121.477 81.3484 121.565C81.3988 121.643 81.4529 121.767 81.4529 122.011H85.2929C85.2929 121.121 85.0728 120.254 84.5748 119.482C84.0826 118.72 83.3896 118.159 82.6087 117.755C81.1029 116.978 79.0884 116.691 76.7918 116.691V120.531ZM73.5374 104.91C76.5648 104.91 78.6855 105.376 80.0733 106.126L81.8993 102.748C79.7194 101.569 76.8741 101.07 73.5374 101.07V104.91ZM80.1277 106.154C80.7167 106.449 81.1025 106.831 81.3601 107.305C81.6285 107.8 81.8145 108.502 81.8145 109.499H85.6545C85.6545 108.037 85.3825 106.666 84.7348 105.473C84.0764 104.26 83.088 103.341 81.845 102.719L80.1277 106.154ZM81.8145 109.499C81.8145 111.079 81.2515 112.067 80.165 112.766C78.9332 113.558 76.8405 114.088 73.6097 114.088V117.928C77.1287 117.928 80.0984 117.374 82.2415 115.996C84.53 114.525 85.6545 112.258 85.6545 109.499H81.8145ZM73.6097 114.088C70.3789 114.088 68.2861 113.558 67.0543 112.766C65.9678 112.067 65.4049 111.079 65.4049 109.499H61.5649C61.5649 112.258 62.6894 114.525 64.9778 115.996C67.121 117.374 70.0906 117.928 73.6097 117.928V114.088ZM65.4049 109.499C65.4049 107.913 65.9669 106.925 67.0415 106.229C68.26 105.44 70.3323 104.91 73.5374 104.91V101.07C70.0408 101.07 67.0869 101.625 64.9545 103.006C62.6783 104.48 61.5649 106.746 61.5649 109.499H65.4049ZM128.255 158.966L128.456 160.875L128.473 160.874L128.489 160.872L128.255 158.966ZM114.081 159.038L113.442 160.849L113.504 160.871L113.567 160.888L114.081 159.038ZM112.562 130.4L110.685 130.802L110.698 130.865L110.716 130.927L112.562 130.4ZM112.128 128.592L113.98 128.086L113.958 128.006L113.93 127.928L112.128 128.592ZM104.173 158.966L104.377 160.875L104.392 160.874L104.407 160.872L104.173 158.966ZM90.0704 159.038L89.4632 160.86L89.5095 160.875L89.5565 160.888L90.0704 159.038ZM92.8909 118.973L92.2372 117.168L92.2271 117.171L92.8909 118.973ZM106.921 120.13L108.802 119.745L108.8 119.735L108.798 119.724L106.921 120.13ZM107.572 123.312L105.691 123.697L106.005 125.232H107.572V123.312ZM108.078 123.312V125.232H109.265L109.795 124.171L108.078 123.312ZM115.31 117.454L114.741 115.621L114.73 115.624L114.718 115.628L115.31 117.454ZM129.774 121.215L128.109 122.171L128.118 122.187L128.128 122.203L129.774 121.215ZM130.458 135.39V157.664H134.298V135.39H130.458ZM130.458 157.664C130.458 156.873 130.983 156.496 131.017 156.472C131.081 156.428 131.039 156.471 130.769 156.557C130.254 156.719 129.364 156.895 128.021 157.06L128.489 160.872C129.894 160.699 131.066 160.49 131.925 160.218C132.342 160.087 132.816 159.901 133.223 159.616C133.601 159.35 134.298 158.721 134.298 157.664H130.458ZM128.054 157.057C125.377 157.338 122.6 157.48 119.722 157.48V161.32C122.726 161.32 125.637 161.172 128.456 160.875L128.054 157.057ZM119.722 157.48C118.297 157.48 117.148 157.45 116.265 157.393C115.346 157.335 114.826 157.253 114.595 157.188L113.567 160.888C114.203 161.065 115.057 161.164 116.019 161.226C117.015 161.29 118.253 161.32 119.722 161.32V157.48ZM114.72 157.228C114.495 157.149 114.508 157.107 114.589 157.198C114.635 157.249 114.687 157.325 114.724 157.424C114.761 157.522 114.771 157.608 114.771 157.664H110.931C110.931 158.44 111.201 159.169 111.728 159.758C112.219 160.307 112.846 160.639 113.442 160.849L114.72 157.228ZM114.771 157.664V134.667H110.931V157.664H114.771ZM114.771 134.667C114.771 132.55 114.688 130.851 114.408 129.872L110.716 130.927C110.822 131.298 110.931 132.444 110.931 134.667H114.771ZM114.439 129.997C114.289 129.296 114.136 128.658 113.98 128.086L110.276 129.097C110.409 129.586 110.546 130.153 110.685 130.802L114.439 129.997ZM113.93 127.928C113.671 127.225 113.251 126.539 112.585 126.032C111.901 125.513 111.109 125.298 110.32 125.298V129.138C110.368 129.138 110.373 129.144 110.35 129.137C110.339 129.133 110.324 129.127 110.307 129.119C110.29 129.11 110.275 129.1 110.261 129.09C110.232 129.068 110.228 129.056 110.241 129.075C110.255 129.096 110.288 129.15 110.326 129.255L113.93 127.928ZM110.32 125.298C109.366 125.298 108.295 125.527 107.469 126.324C106.629 127.133 106.375 128.205 106.375 129.17H110.215C110.215 129.09 110.22 129.032 110.226 128.994C110.232 128.956 110.237 128.941 110.236 128.943C110.235 128.946 110.228 128.966 110.21 128.995C110.192 129.024 110.166 129.057 110.134 129.088C110.102 129.119 110.071 129.14 110.048 129.154C110.024 129.167 110.014 129.17 110.022 129.167C110.03 129.165 110.057 129.157 110.107 129.15C110.158 129.143 110.228 129.138 110.32 129.138V125.298ZM106.375 129.17V157.664H110.215V129.17H106.375ZM106.375 157.664C106.375 156.873 106.9 156.496 106.935 156.472C106.998 156.428 106.956 156.471 106.686 156.557C106.171 156.719 105.282 156.895 103.939 157.06L104.407 160.872C105.812 160.699 106.983 160.49 107.843 160.218C108.26 160.087 108.733 159.901 109.14 159.616C109.518 159.35 110.215 158.721 110.215 157.664H106.375ZM103.968 157.057C101.342 157.338 98.5896 157.48 95.7114 157.48V161.32C98.7151 161.32 101.604 161.172 104.377 160.875L103.968 157.057ZM95.7114 157.48C94.2868 157.48 93.1382 157.45 92.2543 157.393C91.3357 157.335 90.8156 157.253 90.5843 157.188L89.5565 160.888C90.193 161.065 91.047 161.164 92.0087 161.226C93.0052 161.29 94.2431 161.32 95.7114 161.32V157.48ZM90.6776 157.217C90.5565 157.177 90.4878 157.142 90.4568 157.125C90.4263 157.107 90.4463 157.114 90.4879 157.157C90.5328 157.205 90.5898 157.283 90.6327 157.39C90.6756 157.497 90.6886 157.595 90.6886 157.664H86.8486C86.8486 158.473 87.1479 159.215 87.7003 159.798C88.21 160.336 88.8555 160.657 89.4632 160.86L90.6776 157.217ZM90.6886 157.664V122.011H86.8486V157.664H90.6886ZM90.6886 122.011C90.6886 122.435 90.4092 122.427 90.9381 122.038C91.412 121.688 92.2475 121.256 93.5546 120.775L92.2271 117.171C90.7861 117.702 89.5604 118.283 88.6603 118.946C87.8151 119.569 86.8486 120.574 86.8486 122.011H90.6886ZM93.5445 120.778C96.1235 119.845 98.8427 119.374 101.714 119.374V115.534C98.4139 115.534 95.251 116.077 92.2372 117.168L93.5445 120.778ZM101.714 119.374C103.111 119.374 103.969 119.583 104.452 119.831C104.85 120.035 104.982 120.249 105.044 120.536L108.798 119.724C108.474 118.228 107.546 117.103 106.207 116.416C104.955 115.772 103.403 115.534 101.714 115.534V119.374ZM105.04 120.515L105.691 123.697L109.453 122.928L108.802 119.745L105.04 120.515ZM107.572 125.232H108.078V121.392H107.572V125.232ZM109.795 124.171C110.928 121.905 112.888 120.257 115.902 119.281L114.718 115.628C110.886 116.869 108.024 119.126 106.361 122.454L109.795 124.171ZM115.879 119.288C117.067 118.919 118.415 118.723 119.939 118.723V114.883C118.087 114.883 116.349 115.122 114.741 115.621L115.879 119.288ZM119.939 118.723C124.453 118.723 126.902 120.067 128.109 122.171L131.439 120.259C129.271 116.481 125.164 114.883 119.939 114.883V118.723ZM128.128 122.203C129.583 124.628 130.458 128.908 130.458 135.39H134.298C134.298 128.757 133.437 123.588 131.42 120.227L128.128 122.203ZM146.035 159.255L146.66 157.44L146.66 157.44L146.035 159.255ZM142.202 157.303L141.003 158.802L141.021 158.816L141.039 158.83L142.202 157.303ZM139.671 154.193L137.993 155.125L137.993 155.125L139.671 154.193ZM138.008 150.505L136.179 151.09L136.183 151.101L136.186 151.112L138.008 150.505ZM137.14 146.093L139.048 145.881L139.048 145.877L137.14 146.093ZM140.394 122.083L141.961 123.193L141.968 123.182L140.394 122.083ZM160.065 119.913L161.493 118.629L161.474 118.608L161.455 118.588L160.065 119.913ZM161.078 121.649L159.27 122.295L159.725 123.569H161.078V121.649ZM161.656 121.649V123.569H163.939L163.548 121.32L161.656 121.649ZM160.789 116.659H158.869V116.825L158.897 116.988L160.789 116.659ZM164.839 104.509L164.164 102.711L164.164 102.711L164.839 104.509ZM179.881 104.871L181.454 103.77L181.443 103.754L181.431 103.738L179.881 104.871ZM176.337 158.966L176.546 160.875L176.561 160.873L176.576 160.871L176.337 158.966ZM163.826 159.183L163.299 161.029L163.373 161.05L163.45 161.066L163.826 159.183ZM162.524 158.604L160.988 159.756L161.07 159.866L161.167 159.962L162.524 158.604ZM162.235 157.664L164.143 157.452L164.14 157.425L164.136 157.397L162.235 157.664ZM161.656 153.542L163.558 153.275L163.326 151.622H161.656V153.542ZM161.078 153.542V151.622H159.589L159.218 153.064L161.078 153.542ZM158.474 157.809L157.199 156.374L157.19 156.382L157.181 156.39L158.474 157.809ZM160.861 148.046L162.644 148.759L162.781 148.415V148.046H160.861ZM160.065 127.651L159.078 129.298L159.171 129.354L159.271 129.399L160.065 127.651ZM156.956 147.033L155.096 147.511L155.104 147.543L155.114 147.575L156.956 147.033ZM151.025 158.131C149.434 158.131 147.984 157.895 146.66 157.44L145.411 161.071C147.173 161.677 149.049 161.971 151.025 161.971V158.131ZM146.66 157.44C145.259 156.958 144.177 156.393 143.366 155.775L141.039 158.83C142.253 159.755 143.726 160.492 145.411 161.071L146.66 157.44ZM143.402 155.803C142.668 155.217 141.976 154.388 141.35 153.26L137.993 155.125C138.813 156.602 139.808 157.846 141.003 158.802L143.402 155.803ZM141.35 153.26C140.672 152.041 140.17 150.921 139.829 149.897L136.186 151.112C136.617 152.403 137.224 153.742 137.993 155.125L141.35 153.26ZM139.836 149.919C139.501 148.871 139.232 147.534 139.048 145.881L135.232 146.305C135.434 148.123 135.743 149.727 136.179 151.09L139.836 149.919ZM139.048 145.877C138.768 143.41 138.626 140.567 138.626 137.342H134.786C134.786 140.674 134.933 143.666 135.232 146.309L139.048 145.877ZM138.626 137.342C138.626 130.826 139.83 126.201 141.961 123.193L138.828 120.973C136.041 124.907 134.786 130.455 134.786 137.342H138.626ZM141.968 123.182C144.068 120.177 146.856 118.723 150.519 118.723V114.883C145.601 114.883 141.638 116.95 138.82 120.983L141.968 123.182ZM150.519 118.723C154.657 118.723 157.216 119.707 158.676 121.238L161.455 118.588C158.962 115.974 155.156 114.883 150.519 114.883V118.723ZM158.638 121.198C158.888 121.475 159.104 121.831 159.27 122.295L162.886 121.003C162.57 120.117 162.111 119.316 161.493 118.629L158.638 121.198ZM161.078 123.569H161.656V119.729H161.078V123.569ZM163.548 121.32L162.68 116.33L158.897 116.988L159.765 121.978L163.548 121.32ZM162.709 116.659V107.619H158.869V116.659H162.709ZM162.709 107.619C162.709 107.972 162.482 107.944 162.97 107.569C163.426 107.219 164.235 106.786 165.513 106.307L164.164 102.711C162.742 103.245 161.526 103.836 160.632 104.523C159.771 105.184 158.869 106.205 158.869 107.619H162.709ZM165.513 106.307C167.979 105.382 170.666 104.91 173.589 104.91V101.07C170.245 101.07 167.098 101.611 164.164 102.711L165.513 106.307ZM173.589 104.91C175.125 104.91 176.266 105.059 177.071 105.3C177.879 105.541 178.204 105.829 178.331 106.004L181.431 103.738C180.643 102.659 179.461 102.006 178.171 101.621C176.879 101.235 175.332 101.07 173.589 101.07V104.91ZM178.308 105.972C178.47 106.203 178.467 106.309 178.467 106.317H182.307C182.307 105.361 181.967 104.502 181.454 103.77L178.308 105.972ZM178.467 106.317V157.664H182.307V106.317H178.467ZM178.467 157.664C178.467 156.888 178.975 156.513 179.018 156.482C179.086 156.433 179.05 156.475 178.787 156.56C178.287 156.72 177.418 156.896 176.099 157.061L176.576 160.871C177.957 160.699 179.113 160.488 179.962 160.215C180.375 160.083 180.845 159.896 181.25 159.606C181.631 159.334 182.307 158.705 182.307 157.664H178.467ZM176.129 157.057C173.542 157.34 171.032 157.48 168.599 157.48V161.32C171.18 161.32 173.829 161.171 176.546 160.875L176.129 157.057ZM168.599 157.48C166.093 157.48 164.704 157.4 164.203 157.3L163.45 161.066C164.395 161.255 166.188 161.32 168.599 161.32V157.48ZM164.354 157.337C164.066 157.255 163.881 157.187 163.774 157.139C163.723 157.116 163.709 157.107 163.72 157.114C163.728 157.119 163.795 157.16 163.882 157.247L161.167 159.962C161.51 160.305 161.918 160.516 162.215 160.648C162.542 160.794 162.912 160.919 163.299 161.029L164.354 157.337ZM164.06 157.452C164.112 157.521 164.142 157.578 164.158 157.612C164.174 157.646 164.18 157.664 164.179 157.66C164.178 157.657 164.172 157.639 164.165 157.602C164.158 157.566 164.15 157.517 164.143 157.452L160.327 157.876C160.387 158.414 160.531 159.147 160.988 159.756L164.06 157.452ZM164.136 157.397L163.558 153.275L159.755 153.809L160.334 157.931L164.136 157.397ZM161.656 151.622H161.078V155.462H161.656V151.622ZM159.218 153.064C158.88 154.382 158.215 155.471 157.199 156.374L159.75 159.244C161.337 157.833 162.408 156.077 162.937 154.02L159.218 153.064ZM157.181 156.39C156.036 157.434 154.107 158.131 151.025 158.131V161.971C154.598 161.971 157.634 161.173 159.768 159.228L157.181 156.39ZM159.125 151.412C159.948 151.412 160.724 151.142 161.367 150.606C161.976 150.098 162.375 149.43 162.644 148.759L159.078 147.333C159.022 147.473 158.972 147.562 158.938 147.613C158.904 147.664 158.891 147.67 158.909 147.656C158.928 147.639 158.967 147.613 159.022 147.594C159.076 147.574 159.115 147.572 159.125 147.572V151.412ZM162.781 148.046V128.736H158.941V148.046H162.781ZM162.781 128.736C162.781 128.119 162.603 127.503 162.21 126.968C161.833 126.454 161.337 126.121 160.86 125.904L159.271 129.399C159.324 129.423 159.226 129.391 159.114 129.239C159.057 129.162 159.01 129.071 158.98 128.973C158.949 128.876 158.941 128.793 158.941 128.736H162.781ZM161.053 126.005C160.401 125.614 159.621 125.298 158.764 125.298V129.138C158.716 129.138 158.715 129.129 158.771 129.148C158.829 129.167 158.93 129.21 159.078 129.298L161.053 126.005ZM158.764 125.298C157.48 125.298 156.598 126.081 156.081 126.872C155.586 127.629 155.268 128.6 155.044 129.629C154.588 131.717 154.385 134.705 154.385 138.499H158.225C158.225 134.772 158.431 132.12 158.795 130.447C158.981 129.596 159.175 129.156 159.295 128.973C159.392 128.824 159.228 129.138 158.764 129.138V125.298ZM154.385 138.499C154.385 142.509 154.596 145.568 155.096 147.511L158.815 146.555C158.447 145.124 158.225 142.493 158.225 138.499H154.385ZM155.114 147.575C155.394 148.528 155.797 149.442 156.42 150.148C157.092 150.909 158.015 151.412 159.125 151.412V147.572C159.166 147.572 159.228 147.583 159.286 147.611C159.338 147.637 159.34 147.653 159.299 147.607C159.199 147.493 159 147.178 158.798 146.491L155.114 147.575ZM198.4 159.111L198.849 157.244L198.849 157.244L198.4 159.111ZM191.312 155.784L192.464 154.248L192.452 154.239L192.439 154.23L191.312 155.784ZM191.457 121.432L190.319 119.885L190.313 119.89L191.457 121.432ZM215.033 117.237L214.762 119.138L214.784 119.141L214.806 119.144L215.033 117.237ZM221.18 118.901L220.439 120.672L220.446 120.675L220.453 120.678L221.18 118.901ZM226.243 122.444L224.772 123.678L224.783 123.692L224.795 123.705L226.243 122.444ZM229.425 128.664L227.59 129.231L227.593 129.241L229.425 128.664ZM224.435 154.555L225.706 155.993L225.715 155.985L224.435 154.555ZM205.198 145.948L203.313 146.315L203.313 146.315L205.198 145.948ZM206.21 149.058L204.852 150.416L204.898 150.461L204.946 150.503L206.21 149.058ZM209.103 149.058L207.839 147.613L207.79 147.655L207.745 147.701L209.103 149.058ZM210.115 145.948L208.231 145.582L208.226 145.607L208.222 145.633L210.115 145.948ZM210.405 133.365L208.489 133.492L208.491 133.527L208.495 133.562L210.405 133.365ZM209.971 130.038L208.084 130.392L208.094 130.448L208.108 130.504L209.971 130.038ZM209.32 128.23L210.917 127.165L210.908 127.151L210.898 127.137L209.32 128.23ZM206.282 127.868L207.547 129.313L207.595 129.271L207.64 129.226L206.282 127.868ZM205.198 131.051L207.082 131.417L207.084 131.407L205.198 131.051ZM207.729 158.131C204.215 158.131 201.264 157.825 198.849 157.244L197.95 160.977C200.742 161.649 204.01 161.971 207.729 161.971V158.131ZM198.849 157.244C196.497 156.678 194.374 155.68 192.464 154.248L190.16 157.32C192.493 159.07 195.095 160.29 197.95 160.977L198.849 157.244ZM192.439 154.23C188.791 151.584 186.651 146.432 186.651 137.993H182.811C182.811 146.912 185.059 153.62 190.185 157.338L192.439 154.23ZM186.651 137.993C186.651 130.638 188.775 125.812 192.601 122.974L190.313 119.89C185.171 123.705 182.811 129.92 182.811 137.993H186.651ZM192.595 122.979C196.378 120.195 201.37 118.723 207.729 118.723V114.883C200.78 114.883 194.925 116.497 190.319 119.885L192.595 122.979ZM207.729 118.723C210.515 118.723 212.854 118.866 214.762 119.138L215.305 115.337C213.163 115.031 210.632 114.883 207.729 114.883V118.723ZM214.806 119.144C216.637 119.362 218.514 119.866 220.439 120.672L221.922 117.13C219.701 116.2 217.479 115.595 215.26 115.331L214.806 119.144ZM220.453 120.678C222.337 121.448 223.751 122.461 224.772 123.678L227.714 121.211C226.228 119.439 224.267 118.089 221.907 117.124L220.453 120.678ZM224.795 123.705C225.865 124.934 226.82 126.74 227.59 129.231L231.259 128.097C230.39 125.285 229.224 122.944 227.691 121.183L224.795 123.705ZM227.593 129.241C228.339 131.608 228.734 134.513 228.734 137.993H232.574C232.574 134.241 232.15 130.927 231.256 128.087L227.593 129.241ZM228.734 137.993C228.734 144.958 226.775 149.882 223.154 153.124L225.715 155.985C230.387 151.802 232.574 145.685 232.574 137.993H228.734ZM223.163 153.116C219.453 156.395 214.379 158.131 207.729 158.131V161.971C215.061 161.971 221.124 160.043 225.706 155.993L223.163 153.116ZM203.313 146.315C203.489 147.219 203.675 147.998 203.878 148.622C204.05 149.149 204.33 149.893 204.852 150.416L207.568 147.701C207.695 147.828 207.721 147.91 207.68 147.827C207.649 147.763 207.597 147.639 207.53 147.433C207.395 147.021 207.244 146.414 207.082 145.582L203.313 146.315ZM204.946 150.503C205.727 151.187 206.677 151.484 207.657 151.484V147.644C207.555 147.644 207.507 147.63 207.495 147.626C207.487 147.623 207.483 147.621 207.474 147.613L204.946 150.503ZM207.657 151.484C208.627 151.484 209.661 151.216 210.461 150.416L207.745 147.701C207.767 147.679 207.791 147.66 207.814 147.646C207.836 147.632 207.851 147.627 207.854 147.626C207.857 147.625 207.801 147.644 207.657 147.644V151.484ZM210.367 150.503C210.982 149.965 211.291 149.175 211.471 148.622C211.682 147.975 211.857 147.177 212.009 146.264L208.222 145.633C208.084 146.456 207.946 147.044 207.82 147.433C207.757 147.627 207.708 147.734 207.684 147.78C207.653 147.839 207.691 147.743 207.839 147.613L210.367 150.503ZM212 146.315C212.369 144.416 212.542 142.114 212.542 139.44H208.702C208.702 141.972 208.537 144.009 208.231 145.582L212 146.315ZM212.542 139.44C212.542 136.769 212.469 134.665 212.314 133.167L208.495 133.562C208.629 134.861 208.702 136.807 208.702 139.44H212.542ZM212.32 133.237C212.221 131.753 212.068 130.51 211.833 129.572L208.108 130.504C208.259 131.109 208.395 132.083 208.489 133.492L212.32 133.237ZM211.858 129.684C211.687 128.775 211.404 127.894 210.917 127.165L207.722 129.295C207.815 129.433 207.965 129.758 208.084 130.392L211.858 129.684ZM210.898 127.137C210.194 126.12 209.126 125.37 207.729 125.37V129.21C207.724 129.21 207.705 129.209 207.679 129.202C207.652 129.195 207.632 129.185 207.62 129.178C207.597 129.164 207.646 129.185 207.741 129.323L210.898 127.137ZM207.729 125.37C206.675 125.37 205.694 125.741 204.925 126.511L207.64 129.226C207.651 129.215 207.656 129.212 207.655 129.213C207.653 129.214 207.65 129.216 207.646 129.217C207.643 129.218 207.646 129.217 207.656 129.215C207.668 129.213 207.691 129.21 207.729 129.21V125.37ZM205.018 126.423C204.411 126.955 204.094 127.743 203.905 128.298C203.682 128.95 203.488 129.76 203.311 130.694L207.084 131.407C207.245 130.557 207.4 129.945 207.539 129.537C207.609 129.333 207.662 129.216 207.691 129.162C207.728 129.092 207.693 129.185 207.547 129.313L205.018 126.423ZM203.313 130.684C202.94 132.601 202.771 135.229 202.771 138.499H206.611C206.611 135.309 206.78 132.971 207.082 131.417L203.313 130.684ZM202.771 138.499C202.771 141.77 202.94 144.398 203.313 146.315L207.082 145.582C206.78 144.028 206.611 141.69 206.611 138.499H202.771ZM296.724 158.966L296.928 160.875L296.943 160.874L296.958 160.872L296.724 158.966ZM282.621 159.038L282.014 160.86L282.06 160.875L282.107 160.888L282.621 159.038ZM278.21 127.724L276.96 126.266L276.96 126.266L278.21 127.724ZM273.581 158.966L273.786 160.875L273.801 160.874L273.815 160.872L273.581 158.966ZM259.407 159.038L258.768 160.849L258.829 160.871L258.893 160.888L259.407 159.038ZM257.165 128.013L258.784 126.982L258.762 126.947L258.738 126.912L257.165 128.013ZM250.367 158.966L250.568 160.875L250.584 160.874L250.601 160.872L250.367 158.966ZM236.192 159.038L235.553 160.849L235.615 160.871L235.678 160.888L236.192 159.038ZM239.085 118.973L238.431 117.168L238.421 117.171L239.085 118.973ZM253.115 120.13L254.996 119.745L254.994 119.735L254.991 119.724L253.115 120.13ZM253.766 123.312L251.885 123.697L252.199 125.232H253.766V123.312ZM254.272 123.312V125.232H255.449L255.983 124.183L254.272 123.312ZM261.215 117.454L260.627 115.626L260.597 115.636L260.567 115.647L261.215 117.454ZM275.679 123.312L273.924 124.092L275.701 128.09L277.44 124.076L275.679 123.312ZM280.379 118.973L281.339 120.636L281.339 120.636L280.379 118.973ZM298.315 121.287L296.631 122.211L296.64 122.227L296.649 122.243L298.315 121.287ZM298.926 135.534V157.664H302.766V135.534H298.926ZM298.926 157.664C298.926 156.873 299.451 156.496 299.485 156.472C299.549 156.428 299.507 156.471 299.237 156.557C298.722 156.719 297.833 156.895 296.49 157.06L296.958 160.872C298.363 160.699 299.534 160.49 300.394 160.218C300.811 160.087 301.284 159.901 301.691 159.616C302.069 159.35 302.766 158.721 302.766 157.664H298.926ZM296.519 157.057C293.892 157.338 291.141 157.48 288.262 157.48V161.32C291.266 161.32 294.155 161.172 296.928 160.875L296.519 157.057ZM288.262 157.48C286.838 157.48 285.689 157.45 284.805 157.393C283.887 157.335 283.367 157.253 283.135 157.188L282.107 160.888C282.744 161.065 283.598 161.164 284.56 161.226C285.556 161.29 286.794 161.32 288.262 161.32V157.48ZM283.228 157.217C283.107 157.177 283.039 157.142 283.008 157.125C282.977 157.107 282.997 157.114 283.039 157.157C283.084 157.205 283.141 157.283 283.184 157.39C283.226 157.497 283.24 157.595 283.24 157.664H279.4C279.4 158.473 279.699 159.215 280.251 159.798C280.761 160.336 281.406 160.657 282.014 160.86L283.228 157.217ZM283.24 157.664V137.632H279.4V157.664H283.24ZM283.24 137.632C283.24 134.154 283.066 131.412 282.677 129.494C282.486 128.551 282.213 127.65 281.78 126.938C281.338 126.212 280.513 125.37 279.222 125.37V129.21C278.631 129.21 278.417 128.798 278.5 128.934C278.591 129.084 278.755 129.476 278.914 130.257C279.224 131.786 279.4 134.215 279.4 137.632H283.24ZM279.222 125.37C278.298 125.37 277.534 125.774 276.96 126.266L279.459 129.182C279.51 129.138 279.516 129.145 279.472 129.163C279.423 129.184 279.336 129.21 279.222 129.21V125.37ZM276.96 126.266C275.992 127.096 275.784 128.303 275.784 129.243H279.624C279.624 129.135 279.63 129.056 279.637 129.002C279.645 128.947 279.652 128.925 279.652 128.928C279.651 128.931 279.639 128.963 279.608 129.012C279.576 129.063 279.527 129.123 279.459 129.182L276.96 126.266ZM275.784 129.243V157.664H279.624V129.243H275.784ZM275.784 157.664C275.784 156.873 276.309 156.496 276.343 156.472C276.407 156.428 276.365 156.471 276.095 156.557C275.58 156.719 274.69 156.895 273.347 157.06L273.815 160.872C275.22 160.699 276.392 160.49 277.251 160.218C277.668 160.087 278.142 159.901 278.549 159.616C278.927 159.35 279.624 158.721 279.624 157.664H275.784ZM273.377 157.057C270.75 157.338 267.998 157.48 265.12 157.48V161.32C268.124 161.32 271.013 161.172 273.786 160.875L273.377 157.057ZM265.12 157.48C263.671 157.48 262.504 157.45 261.607 157.393C260.674 157.334 260.15 157.252 259.92 157.188L258.893 160.888C259.531 161.066 260.393 161.164 261.364 161.226C262.372 161.29 263.628 161.32 265.12 161.32V157.48ZM260.046 157.228C259.821 157.149 259.834 157.107 259.915 157.198C259.961 157.249 260.013 157.325 260.05 157.424C260.087 157.522 260.097 157.608 260.097 157.664H256.257C256.257 158.44 256.527 159.169 257.054 159.758C257.544 160.307 258.172 160.639 258.768 160.849L260.046 157.228ZM260.097 157.664V137.632H256.257V157.664H260.097ZM260.097 137.632C260.097 134.926 260.012 132.711 259.833 131.012C259.744 130.163 259.628 129.408 259.476 128.768C259.331 128.157 259.123 127.514 258.784 126.982L255.545 129.044C255.544 129.042 255.631 129.198 255.739 129.654C255.841 130.08 255.935 130.66 256.015 131.414C256.173 132.921 256.257 134.985 256.257 137.632H260.097ZM258.738 126.912C258.087 125.982 257.096 125.37 255.863 125.37V129.21C255.849 129.21 255.818 129.208 255.777 129.198C255.735 129.187 255.692 129.17 255.654 129.149C255.573 129.104 255.559 129.068 255.592 129.114L258.738 126.912ZM255.863 125.37C254.889 125.37 253.909 125.754 253.262 126.673C252.702 127.469 252.569 128.425 252.569 129.243H256.409C256.409 129.024 256.429 128.892 256.444 128.827C256.459 128.762 256.461 128.8 256.403 128.883C256.336 128.978 256.226 129.08 256.084 129.147C255.951 129.21 255.861 129.21 255.863 129.21V125.37ZM252.569 129.243V157.664H256.409V129.243H252.569ZM252.569 157.664C252.569 156.873 253.094 156.496 253.128 156.472C253.192 156.428 253.15 156.471 252.88 156.557C252.365 156.719 251.476 156.895 250.133 157.06L250.601 160.872C252.006 160.699 253.177 160.49 254.036 160.218C254.453 160.087 254.927 159.901 255.334 159.616C255.712 159.35 256.409 158.721 256.409 157.664H252.569ZM250.166 157.057C247.488 157.338 244.711 157.48 241.833 157.48V161.32C244.837 161.32 247.749 161.172 250.568 160.875L250.166 157.057ZM241.833 157.48C240.408 157.48 239.26 157.45 238.376 157.393C237.457 157.335 236.937 157.253 236.706 157.188L235.678 160.888C236.314 161.065 237.168 161.164 238.13 161.226C239.127 161.29 240.365 161.32 241.833 161.32V157.48ZM236.831 157.228C236.607 157.149 236.62 157.107 236.701 157.198C236.746 157.249 236.798 157.325 236.835 157.424C236.872 157.522 236.882 157.608 236.882 157.664H233.042C233.042 158.44 233.312 159.169 233.839 159.758C234.33 160.307 234.958 160.639 235.553 160.849L236.831 157.228ZM236.882 157.664V122.011H233.042V157.664H236.882ZM236.882 122.011C236.882 122.435 236.603 122.427 237.132 122.038C237.606 121.688 238.441 121.256 239.748 120.775L238.421 117.171C236.98 117.702 235.754 118.283 234.854 118.946C234.009 119.569 233.042 120.574 233.042 122.011H236.882ZM239.738 120.778C242.317 119.845 245.036 119.374 247.908 119.374V115.534C244.608 115.534 241.445 116.077 238.431 117.168L239.738 120.778ZM247.908 119.374C249.305 119.374 250.163 119.583 250.646 119.831C251.043 120.035 251.176 120.249 251.238 120.536L254.991 119.724C254.668 118.228 253.74 117.103 252.401 116.416C251.149 115.772 249.596 115.534 247.908 115.534V119.374ZM251.234 120.515L251.885 123.697L255.647 122.928L254.996 119.745L251.234 120.515ZM253.766 125.232H254.272V121.392H253.766V125.232ZM255.983 124.183C257.133 121.922 259.036 120.274 261.862 119.262L260.567 115.647C256.932 116.949 254.207 119.206 252.561 122.442L255.983 124.183ZM261.802 119.282C262.893 118.932 264.411 118.723 266.422 118.723V114.883C264.189 114.883 262.236 115.109 260.627 115.626L261.802 119.282ZM266.422 118.723C268.199 118.723 269.634 119.172 270.814 120.001C272.007 120.841 273.065 122.159 273.924 124.092L277.433 122.532C276.364 120.127 274.914 118.19 273.022 116.86C271.116 115.52 268.887 114.883 266.422 114.883V118.723ZM277.44 124.076C277.814 123.212 278.929 122.026 281.339 120.636L279.42 117.31C276.816 118.812 274.796 120.52 273.917 122.549L277.44 124.076ZM281.339 120.636C283.54 119.367 285.978 118.723 288.696 118.723V114.883C285.339 114.883 282.233 115.687 279.42 117.31L281.339 120.636ZM288.696 118.723C293.085 118.723 295.458 120.071 296.631 122.211L299.998 120.364C297.893 116.525 293.854 114.883 288.696 114.883V118.723ZM296.649 122.243C298.076 124.73 298.926 129.053 298.926 135.534H302.766C302.766 128.902 301.928 123.727 299.98 120.332L296.649 122.243Z" fill="#E57B5C"/>
</g>
<defs>
<filter id="filter0_d_26_50" x="0.892822" y="13.5904" width="303.953" height="154.46" filterUnits="userSpaceOnUse" color-interpolation-filters="sRGB">
<feFlood flood-opacity="0" result="BackgroundImageFix"/>
<feColorMatrix in="SourceAlpha" type="matrix" values="0 0 0 0 0 0 0 0 0 0 0 0 0 0 0 0 0 0 127 0" result="hardAlpha"/>
<feOffset dy="4"/>
<feGaussianBlur stdDeviation="2"/>
<feComposite in2="hardAlpha" operator="out"/>
<feColorMatrix type="matrix" values="0 0 0 0 0 0 0 0 0 0 0 0 0 0 0 0 0 0 0.25 0"/>
<feBlend mode="normal" in2="BackgroundImageFix" result="effect1_dropShadow_26_50"/>
<feBlend mode="normal" in="SourceGraphic" in2="effect1_dropShadow_26_50" result="shape"/>
</filter>
</defs>
</svg>
