<svg width="352" height="177" viewBox="0 0 352 177" fill="none" xmlns="http://www.w3.org/2000/svg">
<g filter="url(#filter0_d_156_4)">
<path d="M25.0701 67.7581C25.0701 68.3849 23.5755 68.8911 20.5862 69.2768C17.6452 69.6625 14.7042 69.8554 11.7632 69.8554C8.82219 69.8554 6.94187 69.6866 6.12224 69.3491C5.30261 69.0116 4.8928 68.4813 4.8928 67.7581V23.4259C4.8928 22.1724 6.24277 21.0635 8.94272 20.0992C11.6909 19.1349 14.8489 18.6528 18.4166 18.6528C21.3577 18.6528 23.2621 19.2314 24.1299 20.3885C24.7567 21.2081 25.0701 21.9554 25.0701 22.6304V34.5632H25.6486C25.6486 34.3221 26.3718 32.3213 27.8182 28.5606C30.5664 21.4733 32.5673 17.9296 33.8208 17.9296C36.1833 17.9296 39.51 18.6287 43.801 20.0269C45.8741 20.7019 47.658 21.6902 49.1526 22.992C50.6473 24.2455 51.3946 25.6437 51.3946 27.1866C51.3946 28.1508 50.4062 30.0311 48.4294 32.8275C46.5009 35.5757 43.5599 39.264 39.6064 43.8925C40.5225 44.8567 41.6796 46.0862 43.0778 47.5808C44.476 49.0754 46.3322 51.3173 48.6464 54.3066C51.0089 57.2476 52.1901 59.3449 52.1901 60.5984C52.1901 61.8519 51.0571 63.3225 48.791 65.0099C46.525 66.6492 44.1144 67.9991 41.559 69.0598C39.0037 70.0723 37.0993 70.5786 35.8458 70.5786C35.0261 70.5786 33.8931 69.3491 32.4467 66.8902C31.0485 64.3831 29.337 60.6466 27.312 55.6806L25.0701 58.3565V67.7581ZM75.693 32.6106V68.2643C75.693 68.7947 74.2948 69.2286 71.4984 69.5661C68.7502 69.8554 65.9056 70 62.9646 70C60.0718 70 58.1915 69.8795 57.3237 69.6384C56.504 69.3491 56.0942 68.8911 56.0942 68.2643V33.9123C56.0942 32.8516 57.4442 31.815 60.1442 30.8026C62.8923 29.7419 65.8815 29.2115 69.1118 29.2115C73.4992 29.2115 75.693 30.3445 75.693 32.6106ZM65.8574 13.5904C69.0395 13.5904 71.5225 14.0725 73.3064 15.0368C75.1385 15.9528 76.0546 17.6403 76.0546 20.0992C76.0546 24.4384 72.6796 26.608 65.9298 26.608C59.1799 26.608 55.805 24.4384 55.805 20.0992C55.805 15.76 59.1558 13.5904 65.8574 13.5904ZM90.418 68.7706C89.2609 68.2402 88.0073 67.4447 86.6574 66.384C85.3556 65.3233 84.2708 64.0698 83.403 62.6234C81.378 59.152 80.3655 54.6199 80.3655 49.0272C80.3655 45.5558 80.92 42.4702 82.0289 39.7702C83.1378 37.0221 84.4878 34.9007 86.0788 33.4061C87.6698 31.9115 89.5019 30.682 91.5751 29.7178C94.9018 28.1749 98.2286 27.4035 101.555 27.4035C107.148 27.4035 111.029 27.8374 113.199 28.7053C115.417 29.5731 116.526 31.0436 116.526 33.1168C116.526 35.19 116.14 37.4078 115.368 39.7702C114.645 42.0845 113.681 43.2416 112.476 43.2416C112.09 43.2416 110.909 42.8318 108.932 42.0122C107.003 41.1925 105.316 40.7827 103.87 40.7827C102.471 40.7827 101.387 41.3613 100.615 42.5184C99.8919 43.6273 99.5303 45.821 99.5303 49.0995C99.5303 52.3298 99.8678 54.5476 100.543 55.753C101.218 56.9101 102.254 57.4886 103.653 57.4886C105.099 57.4886 106.883 57.0065 109.004 56.0422C111.126 55.078 112.307 54.5958 112.548 54.5958C113.464 54.5958 114.332 55.6806 115.151 57.8502C116.019 60.0198 116.453 61.9484 116.453 63.6358C116.453 66.2394 115.103 68.0715 112.403 69.1322C109.703 70.1446 106.039 70.6509 101.411 70.6509C96.8304 70.6509 93.1662 70.0241 90.418 68.7706ZM140.377 68.2643C140.377 68.7947 139.027 69.2286 136.327 69.5661C133.627 69.8554 130.807 70 127.866 70C124.925 70 123.02 69.8795 122.152 69.6384C121.285 69.3491 120.851 68.8911 120.851 68.2643V18.2189C120.851 17.1582 122.201 16.1216 124.901 15.1091C127.649 14.0966 130.59 13.5904 133.724 13.5904C138.159 13.5904 140.377 14.6993 140.377 16.9171V43.9648H141.317C143.631 32.9239 145.343 27.4035 146.452 27.4035C149.248 27.4035 152.623 28.0544 156.577 29.3562C160.53 30.6579 162.507 32.1043 162.507 33.6954C162.507 34.8525 161.543 37.0703 159.614 40.3488C157.686 43.6273 155.685 46.3031 153.612 48.3763C160.506 56.6208 163.953 61.5145 163.953 63.0573C163.953 64.5037 161.76 66.2635 157.372 68.3366C152.985 70.4098 149.899 71.4464 148.115 71.4464C147.247 71.4464 146.331 70.4098 145.367 68.3366C144.403 66.2153 143.366 63.0573 142.257 58.8627L140.377 61.1046V68.2643ZM186.499 70.6509C178.495 70.6509 172.637 69.8795 168.925 68.3366C167.044 67.517 166.104 66.7215 166.104 65.9501C166.104 63.9733 166.683 61.6591 167.84 59.0074C168.997 56.3556 170.01 55.0298 170.877 55.0298C171.36 55.0298 172.975 55.5601 175.723 56.6208C178.519 57.6815 180.858 58.2118 182.738 58.2118C184.666 58.2118 185.92 58.0913 186.499 57.8502C187.125 57.6092 187.439 57.1511 187.439 56.4762C187.439 55.753 186.957 55.1985 185.992 54.8128C185.028 54.3789 183.823 54.0896 182.376 53.945C180.93 53.8003 179.363 53.511 177.675 53.0771C176.036 52.6432 174.493 52.0887 173.047 51.4138C171.601 50.7388 170.395 49.6299 169.431 48.087C168.467 46.496 167.985 44.8085 167.985 43.0246C167.985 41.1925 168.033 39.8426 168.129 38.9747C168.226 38.0587 168.611 36.8051 169.286 35.2141C170.01 33.5748 170.998 32.249 172.251 31.2365C173.553 30.224 175.53 29.3079 178.182 28.4883C180.882 27.6687 183.895 27.2589 187.222 27.2589C190.548 27.2589 193.321 27.3794 195.539 27.6205C197.805 27.8133 199.564 28.0785 200.818 28.416C202.12 28.7535 203.18 29.1392 204 29.5731C205.398 30.2963 206.097 31.0918 206.097 31.9597C206.097 33.84 205.422 36.0096 204.072 38.4685C202.722 40.9274 201.637 42.1568 200.818 42.1568C200.046 42.1568 198.335 41.747 195.683 40.9274C193.031 40.0595 191.079 39.6256 189.825 39.6256C187.8 39.6256 186.788 40.2042 186.788 41.3613C186.788 42.0845 187.463 42.6389 188.813 43.0246C190.211 43.3621 191.874 43.7237 193.803 44.1094C195.731 44.4951 197.66 45.0496 199.588 45.7728C201.565 46.4478 203.229 47.7013 204.579 49.5334C205.977 51.3655 206.676 53.6798 206.676 56.4762C206.676 65.926 199.95 70.6509 186.499 70.6509ZM25.0701 150.758C25.0701 151.385 23.5755 151.891 20.5862 152.277C17.6452 152.663 14.7042 152.855 11.7632 152.855C8.82219 152.855 6.94187 152.687 6.12224 152.349C5.30261 152.012 4.8928 151.481 4.8928 150.758V106.426C4.8928 105.172 6.24277 104.063 8.94272 103.099C11.6909 102.135 14.8489 101.653 18.4166 101.653C21.3577 101.653 23.2621 102.231 24.1299 103.388C24.7567 104.208 25.0701 104.955 25.0701 105.63V117.563H25.6486C25.6486 117.322 26.3718 115.321 27.8182 111.561C30.5664 104.473 32.5673 100.93 33.8208 100.93C36.1833 100.93 39.51 101.629 43.801 103.027C45.8741 103.702 47.658 104.69 49.1526 105.992C50.6473 107.246 51.3946 108.644 51.3946 110.187C51.3946 111.151 50.4062 113.031 48.4294 115.828C46.5009 118.576 43.5599 122.264 39.6064 126.892C40.5225 127.857 41.6796 129.086 43.0778 130.581C44.476 132.075 46.3322 134.317 48.6464 137.307C51.0089 140.248 52.1901 142.345 52.1901 143.598C52.1901 144.852 51.0571 146.322 48.791 148.01C46.525 149.649 44.1144 150.999 41.559 152.06C39.0037 153.072 37.0993 153.579 35.8458 153.579C35.0261 153.579 33.8931 152.349 32.4467 149.89C31.0485 147.383 29.337 143.647 27.312 138.681L25.0701 141.356V150.758ZM75.693 115.611V151.264C75.693 151.795 74.2948 152.229 71.4984 152.566C68.7502 152.855 65.9056 153 62.9646 153C60.0718 153 58.1915 152.879 57.3237 152.638C56.504 152.349 56.0942 151.891 56.0942 151.264V116.912C56.0942 115.852 57.4442 114.815 60.1442 113.803C62.8923 112.742 65.8815 112.212 69.1118 112.212C73.4992 112.212 75.693 113.345 75.693 115.611ZM65.8574 96.5904C69.0395 96.5904 71.5225 97.0725 73.3064 98.0368C75.1385 98.9528 76.0546 100.64 76.0546 103.099C76.0546 107.438 72.6796 109.608 65.9298 109.608C59.1799 109.608 55.805 107.438 55.805 103.099C55.805 98.76 59.1558 96.5904 65.8574 96.5904ZM124.698 128.99V151.264C124.698 151.795 123.324 152.229 120.575 152.566C117.827 152.855 114.983 153 112.042 153C109.149 153 107.269 152.879 106.401 152.638C105.581 152.349 105.171 151.891 105.171 151.264V128.267C105.171 126.097 105.075 124.675 104.882 124C104.737 123.325 104.593 122.722 104.448 122.192C104.111 121.276 103.508 120.818 102.64 120.818C101.29 120.818 100.615 121.468 100.615 122.77V151.264C100.615 151.795 99.241 152.229 96.4929 152.566C93.7929 152.855 90.9724 153 88.0314 153C85.1386 153 83.2583 152.879 82.3905 152.638C81.5226 152.349 81.0887 151.891 81.0887 151.264V115.611C81.0887 114.598 82.4628 113.586 85.211 112.573C88.0073 111.561 90.9483 111.054 94.034 111.054C97.1196 111.054 98.8553 111.946 99.241 113.73L99.8919 116.912H100.398C101.796 114.116 104.207 112.163 107.63 111.054C109.028 110.62 110.571 110.404 112.259 110.404C117.128 110.404 120.407 111.874 122.094 114.815C123.83 117.708 124.698 122.433 124.698 128.99ZM153.904 148.227V144.032H153.326C153.133 144.273 152.795 144.587 152.313 144.972C151.831 145.31 150.626 145.792 148.697 146.419C146.817 147.046 144.671 147.359 142.261 147.359C139.898 147.359 137.897 146.997 136.258 146.274C134.619 145.551 133.341 144.659 132.425 143.598C131.509 142.489 130.786 141.019 130.256 139.187C129.436 136.342 129.026 132.485 129.026 127.616C129.026 122.023 130.207 117.732 132.57 114.743C133.486 113.537 134.836 112.525 136.62 111.705C138.452 110.837 140.404 110.404 142.478 110.404C144.551 110.404 146.262 110.645 147.612 111.127C148.962 111.561 149.975 112.091 150.65 112.718C152 114.068 152.771 115.249 152.964 116.261L153.036 116.912H153.615L154.266 114.092C154.748 112.067 158.557 111.054 165.692 111.054C168.874 111.054 170.803 111.537 171.478 112.501C171.864 113.079 172.105 113.634 172.201 114.164C172.298 114.646 172.346 115.394 172.346 116.406V146.708C172.346 152.397 170.49 156.737 166.777 159.726C163.065 162.715 157.617 164.21 150.433 164.21C142.815 164.21 137.632 163.462 134.884 161.968C133.679 161.293 133.076 160.594 133.076 159.87C133.076 158.713 133.534 156.761 134.45 154.012C135.414 151.264 136.306 149.89 137.126 149.89C137.319 149.89 137.994 150.059 139.151 150.396C142.815 151.361 145.78 151.843 148.046 151.843C150.361 151.843 151.903 151.554 152.675 150.975C153.494 150.396 153.904 149.48 153.904 148.227ZM151.011 139.115C151.542 139.115 151.976 138.922 152.313 138.536C152.651 138.15 152.819 137.716 152.819 137.234V122.336C152.627 121.324 152.096 120.818 151.228 120.818C149.396 120.818 148.48 123.831 148.48 129.858C148.48 132.654 148.697 134.896 149.131 136.583C149.613 138.271 150.24 139.115 151.011 139.115ZM191.017 153.651C189.233 153.651 187.57 153.386 186.027 152.855C184.484 152.325 183.207 151.674 182.194 150.903C181.23 150.131 180.386 149.095 179.663 147.793C178.94 146.491 178.385 145.262 178 144.105C177.614 142.899 177.325 141.429 177.132 139.693C176.843 137.138 176.698 134.221 176.698 130.942C176.698 124.241 177.927 119.154 180.386 115.683C182.845 112.163 186.22 110.404 190.511 110.404C194.899 110.404 198.081 111.44 200.057 113.513C200.491 113.995 200.829 114.574 201.07 115.249H201.648L200.781 110.259V101.219C200.781 100.158 202.131 99.1216 204.831 98.1091C207.53 97.0966 210.447 96.5904 213.581 96.5904C216.86 96.5904 218.957 97.2172 219.873 98.4707C220.211 98.9528 220.379 99.435 220.379 99.9171V151.264C220.379 151.795 219.029 152.229 216.329 152.566C213.678 152.855 211.098 153 208.591 153C206.132 153 204.541 152.928 203.818 152.783C203.143 152.59 202.709 152.397 202.516 152.204C202.372 152.012 202.275 151.698 202.227 151.264L201.648 147.142H201.07C200.636 148.83 199.768 150.252 198.466 151.409C196.827 152.904 194.344 153.651 191.017 153.651ZM199.117 143.092C199.889 143.092 200.467 142.61 200.853 141.646V122.336C200.853 121.854 200.588 121.493 200.057 121.252C199.575 120.962 199.141 120.818 198.756 120.818C197.116 120.818 196.297 124.578 196.297 132.1C196.297 136.101 196.514 138.946 196.948 140.633C197.43 142.273 198.153 143.092 199.117 143.092ZM247.721 153.651C244.105 153.651 240.995 153.337 238.392 152.711C235.788 152.084 233.426 150.975 231.304 149.384C226.917 146.202 224.723 140.272 224.723 131.593C224.723 123.879 226.965 118.359 231.449 115.032C235.643 111.946 241.067 110.404 247.721 110.404C250.565 110.404 253 110.548 255.025 110.837C257.05 111.079 259.099 111.633 261.172 112.501C263.294 113.369 264.981 114.55 266.235 116.044C267.536 117.539 268.597 119.612 269.417 122.264C270.236 124.868 270.646 127.977 270.646 131.593C270.646 138.922 268.573 144.442 264.427 148.155C260.28 151.819 254.712 153.651 247.721 153.651ZM245.19 139.548C245.527 141.284 245.865 142.321 246.202 142.658C246.588 142.996 247.07 143.164 247.648 143.164C248.275 143.164 248.757 142.996 249.095 142.658C249.481 142.321 249.818 141.284 250.107 139.548C250.445 137.813 250.614 135.643 250.614 133.04C250.614 130.388 250.541 128.363 250.397 126.965C250.3 125.518 250.156 124.409 249.963 123.638C249.818 122.867 249.601 122.264 249.312 121.83C248.878 121.203 248.348 120.89 247.721 120.89C247.142 120.89 246.66 121.083 246.274 121.468C245.889 121.806 245.527 122.867 245.19 124.651C244.852 126.386 244.683 128.869 244.683 132.1C244.683 135.33 244.852 137.813 245.19 139.548ZM340.838 129.134V151.264C340.838 151.795 339.464 152.229 336.716 152.566C334.016 152.855 331.195 153 328.254 153C325.361 153 323.481 152.879 322.613 152.638C321.745 152.349 321.311 151.891 321.311 151.264V131.232C321.311 124.337 320.612 120.89 319.214 120.89C318.877 120.89 318.539 121.035 318.202 121.324C317.864 121.613 317.695 122.119 317.695 122.843V151.264C317.695 151.795 316.321 152.229 313.573 152.566C310.873 152.855 308.053 153 305.112 153C302.171 153 300.266 152.879 299.399 152.638C298.579 152.349 298.169 151.891 298.169 151.264V131.232C298.169 125.88 297.832 122.674 297.157 121.613C296.819 121.131 296.385 120.89 295.855 120.89C294.939 120.89 294.481 121.541 294.481 122.843V151.264C294.481 151.795 293.107 152.229 290.359 152.566C287.61 152.855 284.766 153 281.825 153C278.932 153 277.052 152.879 276.184 152.638C275.364 152.349 274.954 151.891 274.954 151.264V115.611C274.954 114.598 276.328 113.586 279.077 112.573C281.873 111.561 284.814 111.054 287.9 111.054C290.985 111.054 292.721 111.946 293.107 113.73L293.758 116.912H294.264C295.662 114.164 297.976 112.212 301.207 111.054C302.556 110.62 304.292 110.404 306.414 110.404C310.656 110.404 313.742 112.573 315.671 116.912C316.297 115.466 317.864 114.02 320.371 112.573C322.878 111.127 325.651 110.404 328.688 110.404C333.461 110.404 336.667 111.898 338.307 114.887C339.994 117.828 340.838 122.577 340.838 129.134Z" fill="#E57B5C"/>
<path d="M32.0701 71.7581C32.0701 72.3849 30.5755 72.8911 27.5862 73.2768C24.6452 73.6625 21.7042 73.8554 18.7632 73.8554C15.8222 73.8554 13.9419 73.6866 13.1222 73.3491C12.3026 73.0116 11.8928 72.4813 11.8928 71.7581V27.4259C11.8928 26.1724 13.2428 25.0635 15.9427 24.0992C18.6909 23.1349 21.8489 22.6528 25.4166 22.6528C28.3577 22.6528 30.2621 23.2314 31.1299 24.3885C31.7567 25.2081 32.0701 25.9554 32.0701 26.6304V38.5632H32.6486C32.6486 38.3221 33.3718 36.3213 34.8182 32.5606C37.5664 25.4733 39.5673 21.9296 40.8208 21.9296C43.1833 21.9296 46.51 22.6287 50.801 24.0269C52.8741 24.7019 54.658 25.6902 56.1526 26.992C57.6473 28.2455 58.3946 29.6437 58.3946 31.1866C58.3946 32.1508 57.4062 34.0311 55.4294 36.8275C53.5009 39.5757 50.5599 43.264 46.6064 47.8925C47.5225 48.8567 48.6796 50.0862 50.0778 51.5808C51.476 53.0754 53.3322 55.3173 55.6464 58.3066C58.0089 61.2476 59.1901 63.3449 59.1901 64.5984C59.1901 65.8519 58.0571 67.3225 55.791 69.0099C53.525 70.6492 51.1144 71.9991 48.559 73.0598C46.0037 74.0723 44.0993 74.5786 42.8458 74.5786C42.0261 74.5786 40.8931 73.3491 39.4467 70.8902C38.0485 68.3831 36.337 64.6466 34.312 59.6806L32.0701 62.3565V71.7581ZM82.693 36.6106V72.2643C82.693 72.7947 81.2948 73.2286 78.4984 73.5661C75.7502 73.8554 72.9056 74 69.9646 74C67.0718 74 65.1915 73.8795 64.3237 73.6384C63.504 73.3491 63.0942 72.8911 63.0942 72.2643V37.9123C63.0942 36.8516 64.4442 35.815 67.1442 34.8026C69.8923 33.7419 72.8815 33.2115 76.1118 33.2115C80.4992 33.2115 82.693 34.3445 82.693 36.6106ZM72.8574 17.5904C76.0395 17.5904 78.5225 18.0725 80.3064 19.0368C82.1385 19.9528 83.0546 21.6403 83.0546 24.0992C83.0546 28.4384 79.6796 30.608 72.9298 30.608C66.1799 30.608 62.805 28.4384 62.805 24.0992C62.805 19.76 66.1558 17.5904 72.8574 17.5904ZM97.418 72.7706C96.2609 72.2402 95.0073 71.4447 93.6574 70.384C92.3556 69.3233 91.2708 68.0698 90.403 66.6234C88.378 63.152 87.3655 58.6199 87.3655 53.0272C87.3655 49.5558 87.92 46.4702 89.0289 43.7702C90.1378 41.0221 91.4878 38.9007 93.0788 37.4061C94.6698 35.9115 96.5019 34.682 98.5751 33.7178C101.902 32.1749 105.229 31.4035 108.555 31.4035C114.148 31.4035 118.029 31.8374 120.199 32.7053C122.417 33.5731 123.526 35.0436 123.526 37.1168C123.526 39.19 123.14 41.4078 122.368 43.7702C121.645 46.0845 120.681 47.2416 119.476 47.2416C119.09 47.2416 117.909 46.8318 115.932 46.0122C114.003 45.1925 112.316 44.7827 110.87 44.7827C109.471 44.7827 108.387 45.3613 107.615 46.5184C106.892 47.6273 106.53 49.821 106.53 53.0995C106.53 56.3298 106.868 58.5476 107.543 59.753C108.218 60.9101 109.254 61.4886 110.653 61.4886C112.099 61.4886 113.883 61.0065 116.004 60.0422C118.126 59.078 119.307 58.5958 119.548 58.5958C120.464 58.5958 121.332 59.6806 122.151 61.8502C123.019 64.0198 123.453 65.9484 123.453 67.6358C123.453 70.2394 122.103 72.0715 119.403 73.1322C116.703 74.1446 113.039 74.6509 108.411 74.6509C103.83 74.6509 100.166 74.0241 97.418 72.7706ZM147.377 72.2643C147.377 72.7947 146.027 73.2286 143.327 73.5661C140.627 73.8554 137.807 74 134.866 74C131.925 74 130.02 73.8795 129.152 73.6384C128.285 73.3491 127.851 72.8911 127.851 72.2643V22.2189C127.851 21.1582 129.201 20.1216 131.901 19.1091C134.649 18.0966 137.59 17.5904 140.724 17.5904C145.159 17.5904 147.377 18.6993 147.377 20.9171V47.9648H148.317C150.631 36.9239 152.343 31.4035 153.452 31.4035C156.248 31.4035 159.623 32.0544 163.577 33.3562C167.53 34.6579 169.507 36.1043 169.507 37.6954C169.507 38.8525 168.543 41.0703 166.614 44.3488C164.686 47.6273 162.685 50.3031 160.612 52.3763C167.506 60.6208 170.953 65.5145 170.953 67.0573C170.953 68.5037 168.76 70.2635 164.372 72.3366C159.985 74.4098 156.899 75.4464 155.115 75.4464C154.247 75.4464 153.331 74.4098 152.367 72.3366C151.403 70.2153 150.366 67.0573 149.257 62.8627L147.377 65.1046V72.2643ZM193.499 74.6509C185.495 74.6509 179.637 73.8795 175.925 72.3366C174.044 71.517 173.104 70.7215 173.104 69.9501C173.104 67.9733 173.683 65.6591 174.84 63.0074C175.997 60.3556 177.01 59.0298 177.877 59.0298C178.36 59.0298 179.975 59.5601 182.723 60.6208C185.519 61.6815 187.858 62.2118 189.738 62.2118C191.666 62.2118 192.92 62.0913 193.499 61.8502C194.125 61.6092 194.439 61.1511 194.439 60.4762C194.439 59.753 193.957 59.1985 192.992 58.8128C192.028 58.3789 190.823 58.0896 189.376 57.945C187.93 57.8003 186.363 57.511 184.675 57.0771C183.036 56.6432 181.493 56.0887 180.047 55.4138C178.601 54.7388 177.395 53.6299 176.431 52.087C175.467 50.496 174.985 48.8085 174.985 47.0246C174.985 45.1925 175.033 43.8426 175.129 42.9747C175.226 42.0587 175.611 40.8051 176.286 39.2141C177.01 37.5748 177.998 36.249 179.251 35.2365C180.553 34.224 182.53 33.3079 185.182 32.4883C187.882 31.6687 190.895 31.2589 194.222 31.2589C197.548 31.2589 200.321 31.3794 202.539 31.6205C204.805 31.8133 206.564 32.0785 207.818 32.416C209.12 32.7535 210.18 33.1392 211 33.5731C212.398 34.2963 213.097 35.0918 213.097 35.9597C213.097 37.84 212.422 40.0096 211.072 42.4685C209.722 44.9274 208.637 46.1568 207.818 46.1568C207.046 46.1568 205.335 45.747 202.683 44.9274C200.031 44.0595 198.079 43.6256 196.825 43.6256C194.8 43.6256 193.788 44.2042 193.788 45.3613C193.788 46.0845 194.463 46.6389 195.813 47.0246C197.211 47.3621 198.874 47.7237 200.803 48.1094C202.731 48.4951 204.66 49.0496 206.588 49.7728C208.565 50.4478 210.229 51.7013 211.579 53.5334C212.977 55.3655 213.676 57.6798 213.676 60.4762C213.676 69.926 206.95 74.6509 193.499 74.6509ZM32.0701 154.758C32.0701 155.385 30.5755 155.891 27.5862 156.277C24.6452 156.663 21.7042 156.855 18.7632 156.855C15.8222 156.855 13.9419 156.687 13.1222 156.349C12.3026 156.012 11.8928 155.481 11.8928 154.758V110.426C11.8928 109.172 13.2428 108.063 15.9427 107.099C18.6909 106.135 21.8489 105.653 25.4166 105.653C28.3577 105.653 30.2621 106.231 31.1299 107.388C31.7567 108.208 32.0701 108.955 32.0701 109.63V121.563H32.6486C32.6486 121.322 33.3718 119.321 34.8182 115.561C37.5664 108.473 39.5673 104.93 40.8208 104.93C43.1833 104.93 46.51 105.629 50.801 107.027C52.8741 107.702 54.658 108.69 56.1526 109.992C57.6473 111.246 58.3946 112.644 58.3946 114.187C58.3946 115.151 57.4062 117.031 55.4294 119.828C53.5009 122.576 50.5599 126.264 46.6064 130.892C47.5225 131.857 48.6796 133.086 50.0778 134.581C51.476 136.075 53.3322 138.317 55.6464 141.307C58.0089 144.248 59.1901 146.345 59.1901 147.598C59.1901 148.852 58.0571 150.322 55.791 152.01C53.525 153.649 51.1144 154.999 48.559 156.06C46.0037 157.072 44.0993 157.579 42.8458 157.579C42.0261 157.579 40.8931 156.349 39.4467 153.89C38.0485 151.383 36.337 147.647 34.312 142.681L32.0701 145.356V154.758ZM82.693 119.611V155.264C82.693 155.795 81.2948 156.229 78.4984 156.566C75.7502 156.855 72.9056 157 69.9646 157C67.0718 157 65.1915 156.879 64.3237 156.638C63.504 156.349 63.0942 155.891 63.0942 155.264V120.912C63.0942 119.852 64.4442 118.815 67.1442 117.803C69.8923 116.742 72.8815 116.212 76.1118 116.212C80.4992 116.212 82.693 117.345 82.693 119.611ZM72.8574 100.59C76.0395 100.59 78.5225 101.073 80.3064 102.037C82.1385 102.953 83.0546 104.64 83.0546 107.099C83.0546 111.438 79.6796 113.608 72.9298 113.608C66.1799 113.608 62.805 111.438 62.805 107.099C62.805 102.76 66.1558 100.59 72.8574 100.59ZM131.698 132.99V155.264C131.698 155.795 130.324 156.229 127.575 156.566C124.827 156.855 121.983 157 119.042 157C116.149 157 114.269 156.879 113.401 156.638C112.581 156.349 112.171 155.891 112.171 155.264V132.267C112.171 130.097 112.075 128.675 111.882 128C111.737 127.325 111.593 126.722 111.448 126.192C111.111 125.276 110.508 124.818 109.64 124.818C108.29 124.818 107.615 125.468 107.615 126.77V155.264C107.615 155.795 106.241 156.229 103.493 156.566C100.793 156.855 97.9724 157 95.0314 157C92.1386 157 90.2583 156.879 89.3905 156.638C88.5226 156.349 88.0887 155.891 88.0887 155.264V119.611C88.0887 118.598 89.4628 117.586 92.211 116.573C95.0073 115.561 97.9483 115.054 101.034 115.054C104.12 115.054 105.855 115.946 106.241 117.73L106.892 120.912H107.398C108.796 118.116 111.207 116.163 114.63 115.054C116.028 114.62 117.571 114.404 119.259 114.404C124.128 114.404 127.407 115.874 129.094 118.815C130.83 121.708 131.698 126.433 131.698 132.99ZM160.904 152.227V148.032H160.326C160.133 148.273 159.795 148.587 159.313 148.972C158.831 149.31 157.626 149.792 155.697 150.419C153.817 151.046 151.671 151.359 149.261 151.359C146.898 151.359 144.897 150.997 143.258 150.274C141.619 149.551 140.341 148.659 139.425 147.598C138.509 146.489 137.786 145.019 137.256 143.187C136.436 140.342 136.026 136.485 136.026 131.616C136.026 126.023 137.207 121.732 139.57 118.743C140.486 117.537 141.836 116.525 143.62 115.705C145.452 114.837 147.404 114.404 149.478 114.404C151.551 114.404 153.262 114.645 154.612 115.127C155.962 115.561 156.975 116.091 157.65 116.718C159 118.068 159.771 119.249 159.964 120.261L160.036 120.912H160.615L161.266 118.092C161.748 116.067 165.557 115.054 172.692 115.054C175.874 115.054 177.803 115.537 178.478 116.501C178.864 117.079 179.105 117.634 179.201 118.164C179.298 118.646 179.346 119.394 179.346 120.406V150.708C179.346 156.397 177.49 160.737 173.777 163.726C170.065 166.715 164.617 168.21 157.433 168.21C149.815 168.21 144.632 167.462 141.884 165.968C140.679 165.293 140.076 164.594 140.076 163.87C140.076 162.713 140.534 160.761 141.45 158.012C142.414 155.264 143.306 153.89 144.126 153.89C144.319 153.89 144.994 154.059 146.151 154.396C149.815 155.361 152.78 155.843 155.046 155.843C157.361 155.843 158.903 155.554 159.675 154.975C160.494 154.396 160.904 153.48 160.904 152.227ZM158.011 143.115C158.542 143.115 158.976 142.922 159.313 142.536C159.651 142.15 159.819 141.716 159.819 141.234V126.336C159.627 125.324 159.096 124.818 158.228 124.818C156.396 124.818 155.48 127.831 155.48 133.858C155.48 136.654 155.697 138.896 156.131 140.583C156.613 142.271 157.24 143.115 158.011 143.115ZM198.017 157.651C196.233 157.651 194.57 157.386 193.027 156.855C191.484 156.325 190.207 155.674 189.194 154.903C188.23 154.131 187.386 153.095 186.663 151.793C185.94 150.491 185.385 149.262 185 148.105C184.614 146.899 184.325 145.429 184.132 143.693C183.843 141.138 183.698 138.221 183.698 134.942C183.698 128.241 184.927 123.154 187.386 119.683C189.845 116.163 193.22 114.404 197.511 114.404C201.899 114.404 205.081 115.44 207.057 117.513C207.491 117.995 207.829 118.574 208.07 119.249H208.648L207.781 114.259V105.219C207.781 104.158 209.131 103.122 211.831 102.109C214.53 101.097 217.447 100.59 220.581 100.59C223.86 100.59 225.957 101.217 226.873 102.471C227.211 102.953 227.379 103.435 227.379 103.917V155.264C227.379 155.795 226.029 156.229 223.329 156.566C220.678 156.855 218.098 157 215.591 157C213.132 157 211.541 156.928 210.818 156.783C210.143 156.59 209.709 156.397 209.516 156.204C209.372 156.012 209.275 155.698 209.227 155.264L208.648 151.142H208.07C207.636 152.83 206.768 154.252 205.466 155.409C203.827 156.904 201.344 157.651 198.017 157.651ZM206.117 147.092C206.889 147.092 207.467 146.61 207.853 145.646V126.336C207.853 125.854 207.588 125.493 207.057 125.252C206.575 124.962 206.141 124.818 205.756 124.818C204.116 124.818 203.297 128.578 203.297 136.1C203.297 140.101 203.514 142.946 203.948 144.633C204.43 146.273 205.153 147.092 206.117 147.092ZM254.721 157.651C251.105 157.651 247.995 157.337 245.392 156.711C242.788 156.084 240.426 154.975 238.304 153.384C233.917 150.202 231.723 144.272 231.723 135.593C231.723 127.879 233.965 122.359 238.449 119.032C242.643 115.946 248.067 114.404 254.721 114.404C257.565 114.404 260 114.548 262.025 114.837C264.05 115.079 266.099 115.633 268.172 116.501C270.294 117.369 271.981 118.55 273.235 120.044C274.536 121.539 275.597 123.612 276.417 126.264C277.236 128.868 277.646 131.977 277.646 135.593C277.646 142.922 275.573 148.442 271.427 152.155C267.28 155.819 261.712 157.651 254.721 157.651ZM252.19 143.548C252.527 145.284 252.865 146.321 253.202 146.658C253.588 146.996 254.07 147.164 254.648 147.164C255.275 147.164 255.757 146.996 256.095 146.658C256.481 146.321 256.818 145.284 257.107 143.548C257.445 141.813 257.614 139.643 257.614 137.04C257.614 134.388 257.541 132.363 257.397 130.965C257.3 129.518 257.156 128.409 256.963 127.638C256.818 126.867 256.601 126.264 256.312 125.83C255.878 125.203 255.348 124.89 254.721 124.89C254.142 124.89 253.66 125.083 253.274 125.468C252.889 125.806 252.527 126.867 252.19 128.651C251.852 130.386 251.683 132.869 251.683 136.1C251.683 139.33 251.852 141.813 252.19 143.548ZM347.838 133.134V155.264C347.838 155.795 346.464 156.229 343.716 156.566C341.016 156.855 338.195 157 335.254 157C332.361 157 330.481 156.879 329.613 156.638C328.745 156.349 328.311 155.891 328.311 155.264V135.232C328.311 128.337 327.612 124.89 326.214 124.89C325.877 124.89 325.539 125.035 325.202 125.324C324.864 125.613 324.695 126.119 324.695 126.843V155.264C324.695 155.795 323.321 156.229 320.573 156.566C317.873 156.855 315.053 157 312.112 157C309.171 157 307.266 156.879 306.399 156.638C305.579 156.349 305.169 155.891 305.169 155.264V135.232C305.169 129.88 304.832 126.674 304.157 125.613C303.819 125.131 303.385 124.89 302.855 124.89C301.939 124.89 301.481 125.541 301.481 126.843V155.264C301.481 155.795 300.107 156.229 297.359 156.566C294.61 156.855 291.766 157 288.825 157C285.932 157 284.052 156.879 283.184 156.638C282.364 156.349 281.954 155.891 281.954 155.264V119.611C281.954 118.598 283.328 117.586 286.077 116.573C288.873 115.561 291.814 115.054 294.9 115.054C297.985 115.054 299.721 115.946 300.107 117.73L300.758 120.912H301.264C302.662 118.164 304.976 116.212 308.207 115.054C309.556 114.62 311.292 114.404 313.414 114.404C317.656 114.404 320.742 116.573 322.671 120.912C323.297 119.466 324.864 118.02 327.371 116.573C329.878 115.127 332.651 114.404 335.688 114.404C340.461 114.404 343.667 115.898 345.307 118.887C346.994 121.828 347.838 126.577 347.838 133.134Z" fill="#A6E6E6"/>
<path d="M27.5862 73.2768L27.3405 71.3726L27.3366 71.3731L27.5862 73.2768ZM13.1222 73.3491L13.8533 71.5737L13.8533 71.5737L13.1222 73.3491ZM15.9427 24.0992L15.307 22.2875L15.297 22.291L15.9427 24.0992ZM31.1299 24.3885L29.5939 25.5405L29.5993 25.5476L29.6048 25.5548L31.1299 24.3885ZM32.0701 38.5632H30.1501V40.4832H32.0701V38.5632ZM32.6486 38.5632V40.4832H34.5686V38.5632H32.6486ZM34.8182 32.5606L33.0281 31.8665L33.0262 31.8714L34.8182 32.5606ZM50.801 24.0269L50.2061 25.8524L50.2066 25.8525L50.801 24.0269ZM56.1526 26.992L54.8916 28.4398L54.9051 28.4516L54.9188 28.4631L56.1526 26.992ZM55.4294 36.8275L53.8616 35.7192L53.8578 35.7246L55.4294 36.8275ZM46.6064 47.8925L45.1465 46.6455L44.023 47.9608L45.2144 49.2149L46.6064 47.8925ZM50.0778 51.5808L48.6756 52.8925L48.6756 52.8925L50.0778 51.5808ZM55.6464 58.3066L54.1282 59.4819L54.1388 59.4955L54.1495 59.509L55.6464 58.3066ZM55.791 69.0099L56.9164 70.5656L56.9272 70.5578L56.9378 70.5498L55.791 69.0099ZM48.559 73.0598L49.2663 74.8448L49.2808 74.8391L49.2951 74.8331L48.559 73.0598ZM39.4467 70.8902L37.7699 71.8254L37.7806 71.8447L37.7918 71.8637L39.4467 70.8902ZM34.312 59.6806L36.0899 58.9557L34.8867 56.0051L32.8403 58.4476L34.312 59.6806ZM32.0701 62.3565L30.5984 61.1234L30.1501 61.6585V62.3565H32.0701ZM30.1501 71.7581C30.1501 71.0609 30.584 70.7103 30.63 70.6755C30.6823 70.6359 30.6255 70.6903 30.3332 70.7893C29.77 70.9801 28.8009 71.1841 27.3405 71.3726L27.8319 75.181C29.3608 74.9837 30.6336 74.7419 31.5651 74.4264C32.02 74.2723 32.5238 74.0585 32.9497 73.7356C33.3693 73.4175 33.9901 72.7687 33.9901 71.7581H30.1501ZM27.3366 71.3731C24.4776 71.748 21.62 71.9354 18.7632 71.9354V75.7754C21.7884 75.7754 24.8128 75.577 27.8359 75.1805L27.3366 71.3731ZM18.7632 71.9354C17.3222 71.9354 16.1797 71.8937 15.3188 71.8165C14.4045 71.7344 13.9773 71.6248 13.8533 71.5737L12.3912 75.1245C13.0868 75.4109 14.0096 75.5544 14.9756 75.6411C15.995 75.7326 17.2632 75.7754 18.7632 75.7754V71.9354ZM13.8533 71.5737C13.6572 71.493 13.6629 71.4511 13.7194 71.5243C13.7489 71.5624 13.7765 71.6124 13.7946 71.6677C13.8121 71.7213 13.8128 71.7557 13.8128 71.7581H9.9728C9.9728 72.5088 10.1951 73.2436 10.6809 73.8722C11.1473 74.4758 11.7677 74.8678 12.3912 75.1245L13.8533 71.5737ZM13.8128 71.7581V27.4259H9.9728V71.7581H13.8128ZM13.8128 27.4259C13.8128 27.5752 13.7095 27.4782 14.124 27.1377C14.5536 26.7848 15.3309 26.3565 16.5885 25.9073L15.297 22.291C13.8546 22.8062 12.6069 23.4145 11.6866 24.1704C10.7511 24.9388 9.9728 26.0231 9.9728 27.4259H13.8128ZM16.5784 25.9109C19.0822 25.0324 22.0183 24.5728 25.4166 24.5728V20.7328C21.6794 20.7328 18.2995 21.2375 15.307 22.2875L16.5784 25.9109ZM25.4166 24.5728C26.7793 24.5728 27.7854 24.709 28.4926 24.9238C29.1982 25.1381 29.4818 25.391 29.5939 25.5405L32.6659 23.2365C31.9102 22.2288 30.8077 21.6138 29.6088 21.2496C28.4116 20.8859 26.995 20.7328 25.4166 20.7328V24.5728ZM29.6048 25.5548C30.1034 26.2069 30.1501 26.5479 30.1501 26.6304H33.9901C33.9901 25.363 33.4099 24.2093 32.6551 23.2222L29.6048 25.5548ZM30.1501 26.6304V38.5632H33.9901V26.6304H30.1501ZM32.0701 40.4832H32.6486V36.6432H32.0701V40.4832ZM34.5686 38.5632C34.5686 38.8238 34.5057 39.0056 34.5383 38.883C34.5484 38.8446 34.5708 38.7681 34.6115 38.6419C34.6917 38.3933 34.8185 38.0274 34.9967 37.5344C35.3516 36.5526 35.8884 35.1267 36.6103 33.2499L33.0262 31.8714C32.3017 33.7552 31.7537 35.21 31.3854 36.2291C31.202 36.7365 31.0576 37.1511 30.957 37.463C30.9073 37.617 30.8619 37.7657 30.8268 37.8976C30.8142 37.9452 30.7286 38.2423 30.7286 38.5632H34.5686ZM36.6084 33.2548C37.9724 29.7369 39.1202 27.1814 40.0519 25.5314C40.5222 24.6984 40.8919 24.1789 41.1547 23.8927C41.4976 23.5193 41.3681 23.8496 40.8208 23.8496V20.0096C39.6467 20.0096 38.797 20.7829 38.3264 21.2953C37.7756 21.8951 37.2382 22.7045 36.7081 23.6434C35.6389 25.537 34.4122 28.297 33.0281 31.8665L36.6084 33.2548ZM40.8208 23.8496C42.8727 23.8496 45.9658 24.4707 50.2061 25.8524L51.3958 22.2013C47.0541 20.7866 43.4938 20.0096 40.8208 20.0096V23.8496ZM50.2066 25.8525C52.0591 26.4557 53.6102 27.3238 54.8916 28.4398L57.4137 25.5442C55.7058 24.0567 53.6892 22.948 51.3954 22.2012L50.2066 25.8525ZM54.9188 28.4631C56.103 29.4563 56.4746 30.3561 56.4746 31.1866H60.3146C60.3146 28.9314 59.1915 27.0348 57.3865 25.5209L54.9188 28.4631ZM56.4746 31.1866C56.4746 31.1597 56.4376 31.5062 55.9538 32.4267C55.515 33.2615 54.8269 34.3536 53.8616 35.7192L56.9973 37.9358C58.0087 36.505 58.8032 35.2589 59.3528 34.2133C59.8573 33.2535 60.3146 32.1777 60.3146 31.1866H56.4746ZM53.8578 35.7246C51.9815 38.3983 49.0867 42.0326 45.1465 46.6455L48.0663 49.1395C52.0331 44.4954 55.0203 40.753 57.0011 37.9304L53.8578 35.7246ZM45.2144 49.2149C46.1258 50.1742 47.2792 51.3997 48.6756 52.8925L51.4799 50.2691C50.0799 48.7726 48.9191 47.5393 47.9984 46.5701L45.2144 49.2149ZM48.6756 52.8925C50.0124 54.3214 51.8255 56.5076 54.1282 59.4819L57.1646 57.1312C54.8388 54.1271 52.9396 51.8295 51.4799 50.2691L48.6756 52.8925ZM54.1495 59.509C55.2975 60.938 56.1124 62.1063 56.6313 63.0275C57.1837 64.0083 57.2701 64.4854 57.2701 64.5984H61.1101C61.1101 63.4579 60.6059 62.2595 59.9771 61.1431C59.3147 59.9669 58.3578 58.6161 57.1433 57.1042L54.1495 59.509ZM57.2701 64.5984C57.2701 64.6403 57.2464 64.9154 56.8194 65.4696C56.4006 66.0132 55.7016 66.6826 54.6443 67.47L56.9378 70.5498C58.1465 69.6497 59.1471 68.7402 59.8612 67.8133C60.5673 66.897 61.1101 65.81 61.1101 64.5984H57.2701ZM54.6657 67.4543C52.5192 69.0071 50.239 70.2837 47.823 71.2865L49.2951 74.8331C51.9897 73.7146 54.5308 72.2913 56.9164 70.5656L54.6657 67.4543ZM47.8518 71.2749C45.3171 72.2792 43.7064 72.6586 42.8458 72.6586V76.4986C44.4923 76.4986 46.6904 75.8655 49.2663 74.8448L47.8518 71.2749ZM42.8458 72.6586C43.1219 72.6586 43.2524 72.7592 43.1953 72.7233C43.1429 72.6903 43.0082 72.5887 42.7932 72.3553C42.3614 71.8868 41.7968 71.0986 41.1016 69.9168L37.7918 71.8637C38.543 73.1408 39.2682 74.1967 39.9694 74.9576C40.3209 75.339 40.7135 75.6984 41.1493 75.9728C41.5804 76.2442 42.1598 76.4986 42.8458 76.4986V72.6586ZM41.1236 69.9551C39.7828 67.5509 38.106 63.9 36.0899 58.9557L32.5341 60.4056C34.5679 65.3933 36.3143 69.2154 37.7699 71.8254L41.1236 69.9551ZM32.8403 58.4476L30.5984 61.1234L33.5418 63.5895L35.7837 60.9137L32.8403 58.4476ZM30.1501 62.3565V71.7581H33.9901V62.3565H30.1501ZM78.4984 73.5661L78.6994 75.4755L78.7139 75.474L78.7285 75.4722L78.4984 73.5661ZM64.3237 73.6384L63.6847 75.4489L63.7466 75.4708L63.8098 75.4884L64.3237 73.6384ZM67.1442 34.8026L67.8183 36.6003L67.8269 36.5971L67.8355 36.5938L67.1442 34.8026ZM80.3064 19.0368L79.3934 20.7258L79.4204 20.7404L79.4477 20.7541L80.3064 19.0368ZM80.773 36.6106V72.2643H84.613V36.6106H80.773ZM80.773 72.2643C80.773 71.4574 81.3157 71.0807 81.3407 71.0634C81.4007 71.0221 81.3528 71.0676 81.0752 71.1538C80.5459 71.3181 79.6362 71.4948 78.2683 71.6599L78.7285 75.4722C80.157 75.2998 81.3445 75.0909 82.2134 74.8212C82.6349 74.6904 83.1113 74.507 83.5208 74.2246C83.8955 73.9662 84.613 73.3364 84.613 72.2643H80.773ZM78.2974 71.6566C75.6201 71.9384 72.8428 72.08 69.9646 72.08V75.92C72.9685 75.92 75.8804 75.7723 78.6994 75.4755L78.2974 71.6566ZM69.9646 72.08C68.5401 72.08 67.3914 72.0502 66.5076 71.9935C65.589 71.9346 65.0689 71.8527 64.8376 71.7884L63.8098 75.4884C64.4463 75.6652 65.3003 75.764 66.262 75.8257C67.2585 75.8895 68.4964 75.92 69.9646 75.92V72.08ZM64.9627 71.8279C64.7384 71.7487 64.7514 71.7071 64.8325 71.7977C64.8782 71.8488 64.9299 71.9254 64.9672 72.0242C65.0043 72.1224 65.0142 72.2081 65.0142 72.2643H61.1742C61.1742 73.0398 61.444 73.7695 61.9707 74.3582C62.4616 74.9068 63.0893 75.2388 63.6847 75.4489L64.9627 71.8279ZM65.0142 72.2643V37.9123H61.1742V72.2643H65.0142ZM65.0142 37.9123C65.0142 38.2656 64.7872 38.2376 65.276 37.8622C65.7318 37.5122 66.541 37.0793 67.8183 36.6003L66.47 33.0048C65.0473 33.5383 63.8316 34.1299 62.9374 34.8165C62.0763 35.4777 61.1742 36.4983 61.1742 37.9123H65.0142ZM67.8355 36.5938C70.3427 35.6261 73.0951 35.1315 76.1118 35.1315V31.2915C72.668 31.2915 69.4419 31.8577 66.4528 33.0113L67.8355 36.5938ZM76.1118 35.1315C78.2026 35.1315 79.4787 35.4119 80.1666 35.7672C80.4825 35.9304 80.6122 36.0774 80.6684 36.1646C80.7189 36.2428 80.773 36.3675 80.773 36.6106H84.613C84.613 35.7206 84.3928 34.8539 83.8948 34.0823C83.4027 33.3197 82.7097 32.7587 81.9287 32.3554C80.4229 31.5776 78.4084 31.2915 76.1118 31.2915V35.1315ZM72.8574 19.5104C75.8849 19.5104 78.0056 19.9756 79.3934 20.7258L81.2194 17.3478C79.0395 16.1694 76.1942 15.6704 72.8574 15.6704V19.5104ZM79.4477 20.7541C80.0368 21.0486 80.4226 21.431 80.6801 21.9054C80.9486 22.4 81.1346 23.1021 81.1346 24.0992H84.9746C84.9746 22.6374 84.7025 21.2664 84.0549 20.0734C83.3964 18.8604 82.4081 17.941 81.165 17.3195L79.4477 20.7541ZM81.1346 24.0992C81.1346 25.6791 80.5716 26.6673 79.4851 27.3657C78.2533 28.1576 76.1606 28.688 72.9298 28.688V32.528C76.4488 32.528 79.4185 31.9736 81.5616 30.5959C83.85 29.1247 84.9746 26.8585 84.9746 24.0992H81.1346ZM72.9298 28.688C69.6989 28.688 67.6062 28.1576 66.3744 27.3657C65.2879 26.6673 64.725 25.6791 64.725 24.0992H60.885C60.885 26.8585 62.0095 29.1247 64.2979 30.5959C66.441 31.9736 69.4107 32.528 72.9298 32.528V28.688ZM64.725 24.0992C64.725 22.5132 65.287 21.525 66.3616 20.8293C67.58 20.0403 69.6524 19.5104 72.8574 19.5104V15.6704C69.3608 15.6704 66.4069 16.2253 64.2746 17.6059C61.9983 19.0797 60.885 21.3459 60.885 24.0992H64.725ZM97.418 72.7706L96.618 74.516L96.6212 74.5174L97.418 72.7706ZM93.6574 70.384L92.4445 71.8725L92.4577 71.8832L92.4711 71.8937L93.6574 70.384ZM90.403 66.6234L88.7445 67.5908L88.7505 67.601L88.7566 67.6112L90.403 66.6234ZM89.0289 43.7702L90.8049 44.4997L90.8094 44.4887L89.0289 43.7702ZM93.0788 37.4061L91.7642 36.0067L91.7642 36.0067L93.0788 37.4061ZM98.5751 33.7178L97.7673 31.976L97.7654 31.9768L98.5751 33.7178ZM120.199 32.7053L119.486 34.4879L119.492 34.4906L119.499 34.4933L120.199 32.7053ZM122.368 43.7702L120.543 43.1743L120.539 43.1859L120.536 43.1975L122.368 43.7702ZM115.932 46.0122L115.181 47.7792L115.189 47.7825L115.197 47.7857L115.932 46.0122ZM107.615 46.5184L106.018 45.4534L106.012 45.4614L106.007 45.4696L107.615 46.5184ZM107.543 59.753L105.868 60.6911L105.876 60.7058L105.884 60.7204L107.543 59.753ZM116.004 60.0422L116.799 61.7901L116.799 61.7901L116.004 60.0422ZM122.151 61.8502L120.355 62.5288L120.362 62.5461L120.369 62.5633L122.151 61.8502ZM119.403 73.1322L120.077 74.9299L120.091 74.9247L120.105 74.9192L119.403 73.1322ZM98.218 71.0252C97.2367 70.5754 96.1129 69.8716 94.8436 68.8743L92.4711 71.8937C93.9018 73.0178 95.2851 73.905 96.618 74.516L98.218 71.0252ZM94.8702 68.8955C93.7416 67.976 92.8033 66.8921 92.0493 65.6355L88.7566 67.6112C89.7383 69.2474 90.9696 70.6706 92.4445 71.8725L94.8702 68.8955ZM92.0614 65.6559C90.262 62.5712 89.2855 58.4069 89.2855 53.0272H85.4455C85.4455 58.833 86.494 63.7328 88.7445 67.5908L92.0614 65.6559ZM89.2855 53.0272C89.2855 49.7596 89.8072 46.9288 90.8049 44.4997L87.2528 43.0408C86.0327 46.0116 85.4455 49.3521 85.4455 53.0272H89.2855ZM90.8094 44.4887C91.8493 41.9114 93.064 40.0542 94.3934 38.8055L91.7642 36.0067C89.9115 37.7471 88.4262 40.1328 87.2484 43.0518L90.8094 44.4887ZM94.3934 38.8055C95.8284 37.4574 97.4882 36.3408 99.3848 35.4587L97.7654 31.9768C95.5157 33.0232 93.5112 34.3655 91.7642 36.0067L94.3934 38.8055ZM99.3829 35.4596C102.483 34.022 105.535 33.3235 108.555 33.3235V29.4835C104.922 29.4835 101.321 30.3279 97.7673 31.976L99.3829 35.4596ZM108.555 33.3235C114.151 33.3235 117.695 33.7715 119.486 34.4879L120.912 30.9226C118.364 29.9034 114.145 29.4835 108.555 29.4835V33.3235ZM119.499 34.4933C120.372 34.835 120.875 35.2354 121.161 35.6151C121.433 35.9759 121.606 36.4424 121.606 37.1168H125.446C125.446 35.718 125.064 34.4127 124.227 33.303C123.404 32.2122 122.243 31.4434 120.898 30.9173L119.499 34.4933ZM121.606 37.1168C121.606 38.952 121.264 40.9672 120.543 43.1743L124.194 44.3662C125.016 41.8484 125.446 39.428 125.446 37.1168H121.606ZM120.536 43.1975C120.209 44.2434 119.881 44.8413 119.628 45.1446C119.411 45.4044 119.37 45.3216 119.476 45.3216V49.1616C120.787 49.1616 121.83 48.5002 122.578 47.6029C123.289 46.749 123.805 45.6113 124.201 44.3429L120.536 43.1975ZM119.476 45.3216C119.64 45.3216 119.694 45.352 119.523 45.3072C119.394 45.2735 119.2 45.2141 118.93 45.1203C118.391 44.9335 117.641 44.6425 116.667 44.2386L115.197 47.7857C116.199 48.2014 117.028 48.5252 117.671 48.7482C117.991 48.8592 118.289 48.9536 118.551 49.0223C118.772 49.0799 119.118 49.1616 119.476 49.1616V45.3216ZM116.683 44.2451C114.615 43.3662 112.663 42.8627 110.87 42.8627V46.7027C111.969 46.7027 113.392 47.0189 115.181 47.7792L116.683 44.2451ZM110.87 42.8627C108.834 42.8627 107.147 43.7586 106.018 45.4534L109.213 47.5834C109.626 46.9639 110.109 46.7027 110.87 46.7027V42.8627ZM106.007 45.4696C105.433 46.3489 105.106 47.4784 104.907 48.6831C104.703 49.9191 104.61 51.3998 104.61 53.0995H108.45C108.45 51.5207 108.538 50.2653 108.696 49.3076C108.859 48.3186 109.074 47.7968 109.223 47.5672L106.007 45.4696ZM104.61 53.0995C104.61 54.7732 104.697 56.2384 104.885 57.4744C105.07 58.6872 105.369 59.8008 105.868 60.6911L109.218 58.8148C109.042 58.4998 108.835 57.9018 108.682 56.8967C108.532 55.9149 108.45 54.6561 108.45 53.0995H104.61ZM105.884 60.7204C106.921 62.4984 108.608 63.4086 110.653 63.4086V59.5686C109.901 59.5686 109.514 59.3218 109.201 58.7855L105.884 60.7204ZM110.653 63.4086C112.49 63.4086 114.563 62.8065 116.799 61.7901L115.21 58.2943C113.203 59.2065 111.708 59.5686 110.653 59.5686V63.4086ZM116.799 61.7901C117.852 61.3114 118.651 60.962 119.207 60.7351C119.487 60.6206 119.683 60.5468 119.807 60.5046C119.87 60.4832 119.892 60.4777 119.885 60.4797C119.88 60.4809 119.853 60.4877 119.81 60.4949C119.774 60.5009 119.679 60.5158 119.548 60.5158V56.6758C119.268 56.6758 119.031 56.7346 118.942 56.7572C118.815 56.7893 118.689 56.829 118.574 56.8679C118.343 56.9462 118.066 57.0532 117.756 57.1798C117.13 57.4351 116.278 57.8088 115.21 58.2943L116.799 61.7901ZM119.548 60.5158C119.172 60.5158 119.125 60.2819 119.387 60.6089C119.639 60.9241 119.976 61.524 120.355 62.5288L123.948 61.1717C123.507 60.0069 123.001 58.9796 122.385 58.21C121.779 57.4522 120.84 56.6758 119.548 56.6758V60.5158ZM120.369 62.5633C121.178 64.5874 121.533 66.2671 121.533 67.6358H125.373C125.373 65.6297 124.86 63.4523 123.934 61.1372L120.369 62.5633ZM121.533 67.6358C121.533 68.5892 121.293 69.2838 120.895 69.8236C120.486 70.3784 119.806 70.9111 118.701 71.3451L120.105 74.9192C121.7 74.2925 123.045 73.3789 123.986 72.1015C124.939 70.8092 125.373 69.286 125.373 67.6358H121.533ZM118.729 71.3344C116.335 72.2321 112.931 72.7309 108.411 72.7309V76.5709C113.147 76.5709 117.071 76.0572 120.077 74.9299L118.729 71.3344ZM108.411 72.7309C103.977 72.7309 100.618 72.1197 98.2148 71.0237L96.6212 74.5174C99.7148 75.9285 103.684 76.5709 108.411 76.5709V72.7309ZM143.327 73.5661L143.532 75.4752L143.548 75.4734L143.565 75.4713L143.327 73.5661ZM129.152 73.6384L128.545 75.4599L128.591 75.4753L128.638 75.4884L129.152 73.6384ZM131.901 19.1091L131.237 17.3075L131.226 17.3114L131.901 19.1091ZM147.377 47.9648H145.457V49.8848H147.377V47.9648ZM148.317 47.9648V49.8848H149.876L150.196 48.3587L148.317 47.9648ZM163.577 33.3562L164.177 31.5325L164.177 31.5325L163.577 33.3562ZM166.614 44.3488L168.269 45.3223L168.269 45.3223L166.614 44.3488ZM160.612 52.3763L159.254 51.0187L158.012 52.2606L159.139 53.608L160.612 52.3763ZM164.372 72.3366L163.552 70.6007L163.552 70.6007L164.372 72.3366ZM152.367 72.3366L150.619 73.1311L150.623 73.1388L150.626 73.1464L152.367 72.3366ZM149.257 62.8627L151.114 62.372L150.167 58.7906L147.786 61.6289L149.257 62.8627ZM147.377 65.1046L145.906 63.8708L145.457 64.4061V65.1046H147.377ZM145.457 72.2643C145.457 71.4885 145.965 71.1126 146.008 71.0816C146.075 71.0335 146.039 71.0753 145.777 71.1596C145.277 71.3205 144.407 71.4961 143.089 71.6609L143.565 75.4713C144.947 75.2986 146.103 75.0885 146.952 74.8154C147.365 74.6828 147.835 74.4955 148.24 74.2064C148.621 73.9343 149.297 73.3053 149.297 72.2643H145.457ZM143.123 71.657C140.496 71.9384 137.744 72.08 134.866 72.08V75.92C137.869 75.92 140.758 75.7723 143.532 75.4752L143.123 71.657ZM134.866 72.08C133.416 72.08 132.249 72.0502 131.353 71.9934C130.42 71.9344 129.896 71.8522 129.666 71.7884L128.638 75.4884C129.277 75.6656 130.138 75.7643 131.11 75.8258C132.118 75.8896 133.374 75.92 134.866 75.92V72.08ZM129.759 71.8169C129.638 71.7766 129.57 71.7425 129.539 71.7247C129.508 71.7072 129.528 71.7136 129.57 71.7574C129.615 71.8048 129.672 71.8826 129.715 71.9897C129.758 72.097 129.771 72.1947 129.771 72.2643H125.931C125.931 73.0726 126.23 73.8154 126.782 74.3984C127.292 74.9364 127.937 75.2573 128.545 75.4599L129.759 71.8169ZM129.771 72.2643V22.2189H125.931V72.2643H129.771ZM129.771 22.2189C129.771 22.5722 129.544 22.5441 130.032 22.1688C130.488 21.8188 131.297 21.3858 132.575 20.9069L131.226 17.3114C129.804 17.8449 128.588 18.4364 127.694 19.1231C126.833 19.7843 125.931 20.8049 125.931 22.2189H129.771ZM132.564 20.9107C135.085 19.9819 137.8 19.5104 140.724 19.5104V15.6704C137.379 15.6704 134.212 16.2114 131.237 17.3075L132.564 20.9107ZM140.724 19.5104C142.843 19.5104 144.147 19.7855 144.855 20.1394C145.182 20.3027 145.311 20.4483 145.364 20.5267C145.408 20.5931 145.457 20.6986 145.457 20.9171H149.297C149.297 20.0267 149.069 19.1619 148.559 18.3966C148.057 17.6434 147.354 17.0959 146.572 16.7048C145.062 15.9497 143.039 15.6704 140.724 15.6704V19.5104ZM145.457 20.9171V47.9648H149.297V20.9171H145.457ZM147.377 49.8848H148.317V46.0448H147.377V49.8848ZM150.196 48.3587C151.35 42.853 152.342 38.784 153.17 36.1124C153.588 34.764 153.94 33.8538 154.217 33.3121C154.359 33.0336 154.435 32.9468 154.426 32.9566C154.418 32.9657 154.346 33.044 154.204 33.1271C154.053 33.2149 153.794 33.3235 153.452 33.3235V29.4835C152.5 29.4835 151.873 30.0574 151.59 30.368C151.266 30.7228 151.008 31.1535 150.797 31.565C150.369 32.4035 149.94 33.5635 149.503 34.9753C148.619 37.8241 147.598 42.0358 146.438 47.5709L150.196 48.3587ZM153.452 33.3235C155.971 33.3235 159.131 33.9139 162.976 35.1798L164.177 31.5325C160.115 30.1949 156.526 29.4835 153.452 29.4835V33.3235ZM162.976 35.1798C164.876 35.8053 166.139 36.4169 166.891 36.9668C167.259 37.2363 167.443 37.4468 167.527 37.5765C167.567 37.6375 167.58 37.6742 167.584 37.6871C167.586 37.6906 167.586 37.693 167.587 37.6945C167.587 37.6959 167.587 37.6966 167.587 37.6967C167.587 37.6968 167.587 37.6965 167.587 37.6961C167.587 37.6959 167.587 37.6957 167.587 37.6956C167.587 37.6954 167.587 37.6953 167.587 37.6954H171.427C171.427 36.0124 170.366 34.7516 169.158 33.8678C167.933 32.9713 166.231 32.2088 164.177 31.5325L162.976 35.1798ZM167.587 37.6954C167.587 37.8529 167.49 38.3873 167.023 39.461C166.584 40.4702 165.904 41.7699 164.959 43.3753L168.269 45.3223C169.253 43.6492 170.019 42.2007 170.544 40.9921C171.042 39.848 171.427 38.6949 171.427 37.6954H167.587ZM164.959 43.3753C163.09 46.5528 161.184 49.0886 159.254 51.0187L161.969 53.734C164.185 51.5177 166.281 48.7018 168.269 45.3223L164.959 43.3753ZM159.139 53.608C162.574 57.7161 165.12 60.9533 166.798 63.3356C167.64 64.53 168.236 65.4721 168.614 66.1784C168.804 66.5315 168.921 66.7933 168.986 66.9752C169.06 67.1798 169.033 67.1844 169.033 67.0573H172.873C172.873 66.5444 172.738 66.0586 172.597 65.6681C172.447 65.2549 172.241 64.8169 171.999 64.3654C171.516 63.4626 170.82 62.3767 169.938 61.1242C168.168 58.6129 165.544 55.2811 162.084 51.1446L159.139 53.608ZM169.033 67.0573C169.033 66.8351 169.14 67.1354 168.107 67.9643C167.182 68.7062 165.692 69.5892 163.552 70.6007L165.192 74.0726C167.439 73.0109 169.241 71.9774 170.509 70.9596C171.67 70.0286 172.873 68.7259 172.873 67.0573H169.033ZM163.552 70.6007C161.397 71.6191 159.602 72.3631 158.156 72.8489C156.676 73.3461 155.694 73.5264 155.115 73.5264V77.3664C156.321 77.3664 157.773 77.0284 159.379 76.489C161.018 75.9383 162.96 75.1273 165.192 74.0726L163.552 70.6007ZM155.115 73.5264C155.487 73.5264 155.522 73.7442 155.216 73.3975C154.934 73.0785 154.556 72.4899 154.108 71.5269L150.626 73.1464C151.143 74.2565 151.704 75.2228 152.339 75.9404C152.948 76.6303 153.876 77.3664 155.115 77.3664V73.5264ZM154.115 71.5421C153.218 69.5692 152.214 66.5349 151.114 62.372L147.401 63.3534C148.518 67.5796 149.587 70.8613 150.619 73.1311L154.115 71.5421ZM147.786 61.6289L145.906 63.8708L148.848 66.3385L150.728 64.0965L147.786 61.6289ZM145.457 65.1046V72.2643H149.297V65.1046H145.457ZM175.925 72.3366L175.158 74.0967L175.173 74.1033L175.188 74.1096L175.925 72.3366ZM174.84 63.0074L173.08 62.2395L173.08 62.2395L174.84 63.0074ZM182.723 60.6208L182.031 62.412L182.042 62.416L182.723 60.6208ZM193.499 61.8502L192.809 60.0582L192.785 60.0677L192.76 60.0779L193.499 61.8502ZM192.992 58.8128L192.204 60.5637L192.241 60.5804L192.279 60.5955L192.992 58.8128ZM189.376 57.945L189.567 56.0345L189.567 56.0345L189.376 57.945ZM184.675 57.0771L184.184 58.9332L184.197 58.9366L184.675 57.0771ZM180.047 55.4138L179.235 57.1536L179.235 57.1536L180.047 55.4138ZM176.431 52.087L174.789 53.0822L174.796 53.0935L174.803 53.1046L176.431 52.087ZM175.129 42.9747L177.038 43.1867L177.039 43.1757L175.129 42.9747ZM176.286 39.2141L174.53 38.4391L174.524 38.4516L174.519 38.4642L176.286 39.2141ZM179.251 35.2365L178.073 33.7209L178.059 33.7317L178.045 33.7428L179.251 35.2365ZM185.182 32.4883L184.624 30.6511L184.615 30.6539L185.182 32.4883ZM202.539 31.6205L202.331 33.5292L202.353 33.5317L202.376 33.5336L202.539 31.6205ZM207.818 32.416L207.319 34.27L207.327 34.2723L207.336 34.2745L207.818 32.416ZM211 33.5731L210.102 35.27L210.11 35.2743L210.118 35.2785L211 33.5731ZM202.683 44.9274L202.086 46.7521L202.101 46.757L202.116 46.7617L202.683 44.9274ZM195.813 47.0246L195.285 48.8708L195.324 48.8817L195.362 48.891L195.813 47.0246ZM200.803 48.1094L200.426 49.9922L200.426 49.9922L200.803 48.1094ZM206.588 49.7728L205.914 51.5705L205.941 51.5806L205.968 51.5898L206.588 49.7728ZM211.579 53.5334L210.033 54.6724L210.042 54.6854L210.052 54.6982L211.579 53.5334ZM193.499 72.7309C185.547 72.7309 180.008 71.9543 176.662 70.5637L175.188 74.1096C179.267 75.8046 185.443 76.5709 193.499 76.5709V72.7309ZM176.692 70.5766C175.825 70.1988 175.314 69.8832 175.05 69.6596C174.756 69.4114 175.024 69.5063 175.024 69.9501H171.184C171.184 71.1653 171.922 72.0437 172.569 72.591C173.245 73.1629 174.144 73.6548 175.158 74.0967L176.692 70.5766ZM175.024 69.9501C175.024 68.3306 175.503 66.2877 176.6 63.7753L173.08 62.2395C171.862 65.0305 171.184 67.6161 171.184 69.9501H175.024ZM176.6 63.7753C177.155 62.5037 177.624 61.6722 177.993 61.1894C178.176 60.9498 178.285 60.8625 178.306 60.8475C178.321 60.8366 178.167 60.9498 177.877 60.9498V57.1098C176.474 57.1098 175.501 58.1253 174.941 58.8589C174.297 59.702 173.682 60.8592 173.08 62.2395L176.6 63.7753ZM177.877 60.9498C177.74 60.9498 177.73 60.9273 177.981 60.9906C178.183 61.0417 178.469 61.1261 178.851 61.2517C179.613 61.5019 180.669 61.8863 182.031 62.412L183.414 58.8296C182.028 58.2946 180.902 57.8835 180.049 57.6033C179.624 57.4637 179.245 57.3493 178.922 57.2678C178.648 57.1985 178.256 57.1098 177.877 57.1098V60.9498ZM182.042 62.416C184.943 63.5163 187.529 64.1318 189.738 64.1318V60.2918C188.186 60.2918 186.096 59.8467 183.404 58.8256L182.042 62.416ZM189.738 64.1318C190.735 64.1318 191.597 64.101 192.308 64.0326C192.974 63.9686 193.67 63.8586 194.237 63.6225L192.76 60.0779C192.776 60.0713 192.724 60.0936 192.566 60.1248C192.417 60.1543 192.211 60.1842 191.941 60.2103C191.398 60.2624 190.669 60.2918 189.738 60.2918V64.1318ZM194.188 63.6423C194.787 63.4118 195.369 63.0227 195.788 62.4101C196.207 61.7983 196.359 61.1158 196.359 60.4762H192.519C192.519 60.5115 192.514 60.3955 192.619 60.2417C192.725 60.0872 192.837 60.0476 192.809 60.0582L194.188 63.6423ZM196.359 60.4762C196.359 58.6291 195.022 57.557 193.705 57.0301L192.279 60.5955C192.427 60.6544 192.522 60.7065 192.579 60.7435C192.635 60.7801 192.643 60.795 192.628 60.7778C192.611 60.7577 192.578 60.7123 192.552 60.6433C192.526 60.5737 192.519 60.5131 192.519 60.4762H196.359ZM193.78 57.0619C192.571 56.5177 191.148 56.1926 189.567 56.0345L189.185 59.8554C190.497 59.9866 191.485 60.24 192.204 60.5637L193.78 57.0619ZM189.567 56.0345C188.235 55.9012 186.765 55.6319 185.154 55.2176L184.197 58.9366C185.961 59.3902 187.625 59.6994 189.185 59.8554L189.567 56.0345ZM185.167 55.221C183.631 54.8145 182.196 54.2978 180.859 53.6739L179.235 57.1536C180.791 57.8797 182.442 58.4719 184.184 58.9332L185.167 55.221ZM180.859 53.6739C179.794 53.1769 178.855 52.3429 178.059 51.0694L174.803 53.1046C175.935 54.9168 177.407 56.3007 179.235 57.1536L180.859 53.6739ZM178.073 51.0919C177.282 49.7875 176.905 48.4422 176.905 47.0246H173.065C173.065 49.1748 173.651 51.2045 174.789 53.0822L178.073 51.0919ZM176.905 47.0246C176.905 45.2041 176.953 43.943 177.037 43.1867L173.221 42.7627C173.112 43.7421 173.065 45.1809 173.065 47.0246H176.905ZM177.039 43.1757C177.105 42.5478 177.4 41.5048 178.054 39.9639L174.519 38.4642C173.823 40.1054 173.347 41.5696 173.22 42.7737L177.039 43.1757ZM178.043 39.9891C178.657 38.598 179.468 37.5296 180.458 36.7301L178.045 33.7428C176.528 34.9683 175.362 36.5516 174.53 38.4391L178.043 39.9891ZM180.43 36.752C181.466 35.9466 183.188 35.1141 185.749 34.3227L184.615 30.6539C181.872 31.5018 179.641 32.5013 178.073 33.7209L180.43 36.752ZM185.739 34.3255C188.23 33.5696 191.051 33.1789 194.222 33.1789V29.3389C190.739 29.3389 187.534 29.7678 184.624 30.6511L185.739 34.3255ZM194.222 33.1789C197.509 33.1789 200.207 33.2983 202.331 33.5292L202.746 29.7117C200.435 29.4605 197.588 29.3389 194.222 29.3389V33.1789ZM202.376 33.5336C204.599 33.7228 206.228 33.9762 207.319 34.27L208.317 30.562C206.901 30.1808 205.01 29.9039 202.701 29.7074L202.376 33.5336ZM207.336 34.2745C208.552 34.5897 209.459 34.9295 210.102 35.27L211.898 31.8762C210.902 31.3488 209.688 30.9172 208.3 30.5574L207.336 34.2745ZM210.118 35.2785C210.698 35.5786 210.996 35.8264 211.131 35.9796C211.243 36.1076 211.177 36.0894 211.177 35.9597H215.017C215.017 33.9291 213.39 32.6478 211.882 31.8677L210.118 35.2785ZM211.177 35.9597C211.177 37.3965 210.654 39.2401 209.389 41.5445L212.755 43.3925C214.19 40.7791 215.017 38.2835 215.017 35.9597H211.177ZM209.389 41.5445C208.742 42.7241 208.212 43.5046 207.807 43.9644C207.605 44.1931 207.481 44.2871 207.441 44.3132C207.399 44.3405 207.537 44.2368 207.818 44.2368V48.0768C209.127 48.0768 210.101 47.1675 210.686 46.505C211.365 45.7354 212.053 44.6718 212.755 43.3925L209.389 41.5445ZM207.818 44.2368C207.678 44.2368 207.25 44.1851 206.403 43.9822C205.603 43.7908 204.556 43.4967 203.25 43.093L202.116 46.7617C203.462 47.1777 204.596 47.4983 205.509 47.7167C206.373 47.9236 207.186 48.0768 207.818 48.0768V44.2368ZM203.28 43.1026C200.613 42.2297 198.409 41.7056 196.825 41.7056V45.5456C197.749 45.5456 199.45 45.8893 202.086 46.7521L203.28 43.1026ZM196.825 41.7056C195.693 41.7056 194.533 41.8563 193.595 42.3925C192.496 43.0203 191.868 44.0871 191.868 45.3613H195.708C195.708 45.3596 195.705 45.4506 195.636 45.5693C195.567 45.6874 195.492 45.7311 195.5 45.7265C195.52 45.7152 195.621 45.6649 195.856 45.6202C196.087 45.5761 196.405 45.5456 196.825 45.5456V41.7056ZM191.868 45.3613C191.868 46.4174 192.396 47.2449 193.075 47.8032C193.702 48.3181 194.493 48.6444 195.285 48.8708L196.34 45.1785C196.076 45.1029 195.878 45.0285 195.735 44.9623C195.591 44.8951 195.527 44.8477 195.513 44.8359C195.501 44.8261 195.555 44.8676 195.612 44.9752C195.674 45.0921 195.708 45.2298 195.708 45.3613H191.868ZM195.362 48.891C196.792 49.2361 198.481 49.6031 200.426 49.9922L201.179 46.2267C199.267 45.8443 197.63 45.4881 196.263 45.1582L195.362 48.891ZM200.426 49.9922C202.249 50.3567 204.078 50.8819 205.914 51.5705L207.263 47.975C205.242 47.2173 203.214 46.6336 201.179 46.2267L200.426 49.9922ZM205.968 51.5898C207.541 52.127 208.893 53.1257 210.033 54.6724L213.124 52.3945C211.564 50.2769 209.589 48.7686 207.209 47.9558L205.968 51.5898ZM210.052 54.6982C211.144 56.1292 211.756 58.0085 211.756 60.4762H215.596C215.596 57.3511 214.809 54.6019 213.105 52.3686L210.052 54.6982ZM211.756 60.4762C211.756 64.6836 210.297 67.591 207.528 69.5361C204.635 71.5682 200.058 72.7309 193.499 72.7309V76.5709C200.39 76.5709 205.902 75.3711 209.735 72.6783C213.692 69.8985 215.596 65.7185 215.596 60.4762H211.756ZM27.5862 156.277L27.3405 154.373L27.3366 154.373L27.5862 156.277ZM13.1222 156.349L13.8533 154.574L13.8533 154.574L13.1222 156.349ZM15.9427 107.099L15.307 105.287L15.297 105.291L15.9427 107.099ZM31.1299 107.388L29.5939 108.54L29.5993 108.548L29.6048 108.555L31.1299 107.388ZM32.0701 121.563H30.1501V123.483H32.0701V121.563ZM32.6486 121.563V123.483H34.5686V121.563H32.6486ZM34.8182 115.561L33.0281 114.866L33.0262 114.871L34.8182 115.561ZM50.801 107.027L50.2061 108.852L50.2066 108.853L50.801 107.027ZM56.1526 109.992L54.8916 111.44L54.9051 111.452L54.9188 111.463L56.1526 109.992ZM55.4294 119.828L53.8616 118.719L53.8578 118.725L55.4294 119.828ZM46.6064 130.892L45.1465 129.645L44.023 130.961L45.2144 132.215L46.6064 130.892ZM50.0778 134.581L48.6756 135.892L48.6756 135.892L50.0778 134.581ZM55.6464 141.307L54.1282 142.482L54.1388 142.496L54.1495 142.509L55.6464 141.307ZM55.791 152.01L56.9164 153.566L56.9272 153.558L56.9378 153.55L55.791 152.01ZM48.559 156.06L49.2663 157.845L49.2808 157.839L49.2951 157.833L48.559 156.06ZM39.4467 153.89L37.7699 154.825L37.7806 154.845L37.7918 154.864L39.4467 153.89ZM34.312 142.681L36.0899 141.956L34.8867 139.005L32.8403 141.448L34.312 142.681ZM32.0701 145.356L30.5984 144.123L30.1501 144.658V145.356H32.0701ZM30.1501 154.758C30.1501 154.061 30.584 153.71 30.63 153.676C30.6823 153.636 30.6255 153.69 30.3332 153.789C29.77 153.98 28.8009 154.184 27.3405 154.373L27.8319 158.181C29.3608 157.984 30.6336 157.742 31.5651 157.426C32.02 157.272 32.5238 157.059 32.9497 156.736C33.3693 156.418 33.9901 155.769 33.9901 154.758H30.1501ZM27.3366 154.373C24.4776 154.748 21.62 154.935 18.7632 154.935V158.775C21.7884 158.775 24.8128 158.577 27.8359 158.18L27.3366 154.373ZM18.7632 154.935C17.3222 154.935 16.1797 154.894 15.3188 154.816C14.4045 154.734 13.9773 154.625 13.8533 154.574L12.3912 158.125C13.0868 158.411 14.0096 158.554 14.9756 158.641C15.995 158.733 17.2632 158.775 18.7632 158.775V154.935ZM13.8533 154.574C13.6572 154.493 13.6629 154.451 13.7194 154.524C13.7489 154.562 13.7765 154.612 13.7946 154.668C13.8121 154.721 13.8128 154.756 13.8128 154.758H9.9728C9.9728 155.509 10.1951 156.244 10.6809 156.872C11.1473 157.476 11.7677 157.868 12.3912 158.125L13.8533 154.574ZM13.8128 154.758V110.426H9.9728V154.758H13.8128ZM13.8128 110.426C13.8128 110.575 13.7095 110.478 14.124 110.138C14.5536 109.785 15.3309 109.356 16.5885 108.907L15.297 105.291C13.8546 105.806 12.6069 106.414 11.6866 107.17C10.7511 107.939 9.9728 109.023 9.9728 110.426H13.8128ZM16.5784 108.911C19.0822 108.032 22.0183 107.573 25.4166 107.573V103.733C21.6794 103.733 18.2995 104.237 15.307 105.287L16.5784 108.911ZM25.4166 107.573C26.7793 107.573 27.7854 107.709 28.4926 107.924C29.1982 108.138 29.4818 108.391 29.5939 108.54L32.6659 106.236C31.9102 105.229 30.8077 104.614 29.6088 104.25C28.4116 103.886 26.995 103.733 25.4166 103.733V107.573ZM29.6048 108.555C30.1034 109.207 30.1501 109.548 30.1501 109.63H33.9901C33.9901 108.363 33.4099 107.209 32.6551 106.222L29.6048 108.555ZM30.1501 109.63V121.563H33.9901V109.63H30.1501ZM32.0701 123.483H32.6486V119.643H32.0701V123.483ZM34.5686 121.563C34.5686 121.824 34.5057 122.006 34.5383 121.883C34.5484 121.845 34.5708 121.768 34.6115 121.642C34.6917 121.393 34.8185 121.027 34.9967 120.534C35.3516 119.553 35.8884 118.127 36.6103 116.25L33.0262 114.871C32.3017 116.755 31.7537 118.21 31.3854 119.229C31.202 119.736 31.0576 120.151 30.957 120.463C30.9073 120.617 30.8619 120.766 30.8268 120.898C30.8142 120.945 30.7286 121.242 30.7286 121.563H34.5686ZM36.6084 116.255C37.9724 112.737 39.1202 110.181 40.0519 108.531C40.5222 107.698 40.8919 107.179 41.1547 106.893C41.4976 106.519 41.3681 106.85 40.8208 106.85V103.01C39.6467 103.01 38.797 103.783 38.3264 104.295C37.7756 104.895 37.2382 105.704 36.7081 106.643C35.6389 108.537 34.4122 111.297 33.0281 114.867L36.6084 116.255ZM40.8208 106.85C42.8727 106.85 45.9658 107.471 50.2061 108.852L51.3958 105.201C47.0541 103.787 43.4938 103.01 40.8208 103.01V106.85ZM50.2066 108.853C52.0591 109.456 53.6102 110.324 54.8916 111.44L57.4137 108.544C55.7058 107.057 53.6892 105.948 51.3954 105.201L50.2066 108.853ZM54.9188 111.463C56.103 112.456 56.4746 113.356 56.4746 114.187H60.3146C60.3146 111.931 59.1915 110.035 57.3865 108.521L54.9188 111.463ZM56.4746 114.187C56.4746 114.16 56.4376 114.506 55.9538 115.427C55.515 116.261 54.8269 117.354 53.8616 118.719L56.9973 120.936C58.0087 119.505 58.8032 118.259 59.3528 117.213C59.8573 116.253 60.3146 115.178 60.3146 114.187H56.4746ZM53.8578 118.725C51.9815 121.398 49.0867 125.033 45.1465 129.645L48.0663 132.139C52.0331 127.495 55.0203 123.753 57.0011 120.93L53.8578 118.725ZM45.2144 132.215C46.1258 133.174 47.2792 134.4 48.6756 135.892L51.4799 133.269C50.0799 131.773 48.9191 130.539 47.9984 129.57L45.2144 132.215ZM48.6756 135.892C50.0124 137.321 51.8255 139.508 54.1282 142.482L57.1646 140.131C54.8388 137.127 52.9396 134.829 51.4799 133.269L48.6756 135.892ZM54.1495 142.509C55.2975 143.938 56.1124 145.106 56.6313 146.027C57.1837 147.008 57.2701 147.485 57.2701 147.598H61.1101C61.1101 146.458 60.6059 145.26 59.9771 144.143C59.3147 142.967 58.3578 141.616 57.1433 140.104L54.1495 142.509ZM57.2701 147.598C57.2701 147.64 57.2464 147.915 56.8194 148.47C56.4006 149.013 55.7016 149.683 54.6443 150.47L56.9378 153.55C58.1465 152.65 59.1471 151.74 59.8612 150.813C60.5673 149.897 61.1101 148.81 61.1101 147.598H57.2701ZM54.6657 150.454C52.5192 152.007 50.239 153.284 47.823 154.287L49.2951 157.833C51.9897 156.715 54.5308 155.291 56.9164 153.566L54.6657 150.454ZM47.8518 154.275C45.3171 155.279 43.7064 155.659 42.8458 155.659V159.499C44.4923 159.499 46.6904 158.865 49.2663 157.845L47.8518 154.275ZM42.8458 155.659C43.1219 155.659 43.2524 155.759 43.1953 155.723C43.1429 155.69 43.0082 155.589 42.7932 155.355C42.3614 154.887 41.7968 154.099 41.1016 152.917L37.7918 154.864C38.543 156.141 39.2682 157.197 39.9694 157.958C40.3209 158.339 40.7135 158.698 41.1493 158.973C41.5804 159.244 42.1598 159.499 42.8458 159.499V155.659ZM41.1236 152.955C39.7828 150.551 38.106 146.9 36.0899 141.956L32.5341 143.406C34.5679 148.393 36.3143 152.215 37.7699 154.825L41.1236 152.955ZM32.8403 141.448L30.5984 144.123L33.5418 146.59L35.7837 143.914L32.8403 141.448ZM30.1501 145.356V154.758H33.9901V145.356H30.1501ZM78.4984 156.566L78.6994 158.476L78.7139 158.474L78.7285 158.472L78.4984 156.566ZM64.3237 156.638L63.6847 158.449L63.7466 158.471L63.8098 158.488L64.3237 156.638ZM67.1442 117.803L67.8183 119.6L67.8269 119.597L67.8355 119.594L67.1442 117.803ZM80.3064 102.037L79.3934 103.726L79.4204 103.74L79.4477 103.754L80.3064 102.037ZM80.773 119.611V155.264H84.613V119.611H80.773ZM80.773 155.264C80.773 154.457 81.3157 154.081 81.3407 154.063C81.4007 154.022 81.3528 154.068 81.0752 154.154C80.5459 154.318 79.6362 154.495 78.2683 154.66L78.7285 158.472C80.157 158.3 81.3445 158.091 82.2134 157.821C82.6349 157.69 83.1113 157.507 83.5208 157.225C83.8955 156.966 84.613 156.336 84.613 155.264H80.773ZM78.2974 154.657C75.6201 154.938 72.8428 155.08 69.9646 155.08V158.92C72.9685 158.92 75.8804 158.772 78.6994 158.476L78.2974 154.657ZM69.9646 155.08C68.5401 155.08 67.3914 155.05 66.5076 154.994C65.589 154.935 65.0689 154.853 64.8376 154.788L63.8098 158.488C64.4463 158.665 65.3003 158.764 66.262 158.826C67.2585 158.89 68.4964 158.92 69.9646 158.92V155.08ZM64.9627 154.828C64.7384 154.749 64.7514 154.707 64.8325 154.798C64.8782 154.849 64.9299 154.925 64.9672 155.024C65.0043 155.122 65.0142 155.208 65.0142 155.264H61.1742C61.1742 156.04 61.444 156.769 61.9707 157.358C62.4616 157.907 63.0893 158.239 63.6847 158.449L64.9627 154.828ZM65.0142 155.264V120.912H61.1742V155.264H65.0142ZM65.0142 120.912C65.0142 121.266 64.7872 121.238 65.276 120.862C65.7318 120.512 66.541 120.079 67.8183 119.6L66.47 116.005C65.0473 116.538 63.8316 117.13 62.9374 117.817C62.0763 118.478 61.1742 119.498 61.1742 120.912H65.0142ZM67.8355 119.594C70.3427 118.626 73.0951 118.132 76.1118 118.132V114.292C72.668 114.292 69.4419 114.858 66.4528 116.011L67.8355 119.594ZM76.1118 118.132C78.2026 118.132 79.4787 118.412 80.1666 118.767C80.4825 118.93 80.6122 119.077 80.6684 119.165C80.7189 119.243 80.773 119.368 80.773 119.611H84.613C84.613 118.721 84.3928 117.854 83.8948 117.082C83.4027 116.32 82.7097 115.759 81.9287 115.355C80.4229 114.578 78.4084 114.292 76.1118 114.292V118.132ZM72.8574 102.51C75.8849 102.51 78.0056 102.976 79.3934 103.726L81.2194 100.348C79.0395 99.1694 76.1942 98.6704 72.8574 98.6704V102.51ZM79.4477 103.754C80.0368 104.049 80.4226 104.431 80.6801 104.905C80.9486 105.4 81.1346 106.102 81.1346 107.099H84.9746C84.9746 105.637 84.7025 104.266 84.0549 103.073C83.3964 101.86 82.4081 100.941 81.165 100.319L79.4477 103.754ZM81.1346 107.099C81.1346 108.679 80.5716 109.667 79.4851 110.366C78.2533 111.158 76.1606 111.688 72.9298 111.688V115.528C76.4488 115.528 79.4185 114.974 81.5616 113.596C83.85 112.125 84.9746 109.859 84.9746 107.099H81.1346ZM72.9298 111.688C69.6989 111.688 67.6062 111.158 66.3744 110.366C65.2879 109.667 64.725 108.679 64.725 107.099H60.885C60.885 109.859 62.0095 112.125 64.2979 113.596C66.441 114.974 69.4107 115.528 72.9298 115.528V111.688ZM64.725 107.099C64.725 105.513 65.287 104.525 66.3616 103.829C67.58 103.04 69.6524 102.51 72.8574 102.51V98.6704C69.3608 98.6704 66.4069 99.2253 64.2746 100.606C61.9983 102.08 60.885 104.346 60.885 107.099H64.725ZM127.575 156.566L127.776 158.476L127.793 158.474L127.809 158.472L127.575 156.566ZM113.401 156.638L112.762 158.449L112.824 158.471L112.887 158.488L113.401 156.638ZM111.882 128L110.005 128.402L110.018 128.465L110.036 128.527L111.882 128ZM111.448 126.192L113.3 125.686L113.278 125.606L113.25 125.528L111.448 126.192ZM103.493 156.566L103.697 158.475L103.712 158.474L103.727 158.472L103.493 156.566ZM89.3905 156.638L88.7833 158.46L88.8296 158.475L88.8766 158.488L89.3905 156.638ZM92.211 116.573L91.5573 114.768L91.5472 114.771L92.211 116.573ZM106.241 117.73L108.122 117.345L108.12 117.335L108.118 117.324L106.241 117.73ZM106.892 120.912L105.011 121.297L105.325 122.832H106.892V120.912ZM107.398 120.912V122.832H108.585L109.115 121.771L107.398 120.912ZM114.63 115.054L114.061 113.221L114.05 113.224L114.038 113.228L114.63 115.054ZM129.094 118.815L127.429 119.771L127.438 119.787L127.448 119.803L129.094 118.815ZM129.778 132.99V155.264H133.618V132.99H129.778ZM129.778 155.264C129.778 154.473 130.303 154.097 130.337 154.072C130.401 154.028 130.359 154.071 130.089 154.157C129.574 154.319 128.685 154.495 127.341 154.66L127.809 158.472C129.215 158.299 130.386 158.09 131.245 157.818C131.662 157.687 132.136 157.501 132.543 157.216C132.921 156.95 133.618 156.321 133.618 155.264H129.778ZM127.374 154.657C124.697 154.938 121.92 155.08 119.042 155.08V158.92C122.046 158.92 124.957 158.772 127.776 158.476L127.374 154.657ZM119.042 155.08C117.617 155.08 116.468 155.05 115.585 154.994C114.666 154.935 114.146 154.853 113.915 154.788L112.887 158.488C113.523 158.665 114.377 158.764 115.339 158.826C116.336 158.89 117.573 158.92 119.042 158.92V155.08ZM114.04 154.828C113.815 154.749 113.828 154.707 113.909 154.798C113.955 154.849 114.007 154.925 114.044 155.024C114.081 155.122 114.091 155.208 114.091 155.264H110.251C110.251 156.04 110.521 156.769 111.048 157.358C111.539 157.907 112.166 158.239 112.762 158.449L114.04 154.828ZM114.091 155.264V132.267H110.251V155.264H114.091ZM114.091 132.267C114.091 130.15 114.008 128.451 113.728 127.472L110.036 128.527C110.142 128.898 110.251 130.044 110.251 132.267H114.091ZM113.759 127.597C113.609 126.896 113.456 126.258 113.3 125.686L109.596 126.697C109.729 127.186 109.866 127.753 110.005 128.402L113.759 127.597ZM113.25 125.528C112.991 124.825 112.571 124.139 111.905 123.632C111.222 123.113 110.429 122.898 109.64 122.898V126.738C109.688 126.738 109.693 126.744 109.67 126.737C109.659 126.733 109.644 126.728 109.627 126.719C109.61 126.71 109.595 126.7 109.581 126.69C109.553 126.668 109.548 126.656 109.561 126.675C109.575 126.696 109.608 126.75 109.646 126.855L113.25 125.528ZM109.64 122.898C108.686 122.898 107.615 123.127 106.789 123.924C105.949 124.733 105.695 125.805 105.695 126.77H109.535C109.535 126.69 109.54 126.632 109.546 126.594C109.552 126.556 109.557 126.541 109.556 126.543C109.555 126.546 109.548 126.566 109.53 126.595C109.512 126.624 109.486 126.657 109.454 126.688C109.422 126.719 109.391 126.74 109.368 126.754C109.345 126.767 109.334 126.77 109.342 126.768C109.35 126.765 109.377 126.757 109.427 126.75C109.478 126.743 109.548 126.738 109.64 126.738V122.898ZM105.695 126.77V155.264H109.535V126.77H105.695ZM105.695 155.264C105.695 154.473 106.22 154.097 106.255 154.072C106.318 154.028 106.276 154.071 106.006 154.157C105.491 154.319 104.602 154.495 103.259 154.66L103.727 158.472C105.132 158.299 106.304 158.09 107.163 157.818C107.58 157.687 108.053 157.501 108.46 157.216C108.838 156.95 109.535 156.321 109.535 155.264H105.695ZM103.288 154.657C100.662 154.938 97.9097 155.08 95.0314 155.08V158.92C98.0352 158.92 100.924 158.772 103.697 158.475L103.288 154.657ZM95.0314 155.08C93.6069 155.08 92.4582 155.05 91.5744 154.994C90.6558 154.935 90.1357 154.853 89.9043 154.788L88.8766 158.488C89.5131 158.665 90.3671 158.764 91.3288 158.826C92.3253 158.89 93.5632 158.92 95.0314 158.92V155.08ZM89.9976 154.817C89.8766 154.777 89.8079 154.742 89.7769 154.725C89.7464 154.707 89.7664 154.714 89.808 154.757C89.8529 154.805 89.9099 154.883 89.9527 154.99C89.9957 155.097 90.0087 155.195 90.0087 155.264H86.1687C86.1687 156.073 86.468 156.815 87.0203 157.398C87.5301 157.936 88.1755 158.257 88.7833 158.46L89.9976 154.817ZM90.0087 155.264V119.611H86.1687V155.264H90.0087ZM90.0087 119.611C90.0087 120.035 89.7293 120.027 90.2582 119.638C90.7321 119.288 91.5676 118.856 92.8747 118.375L91.5472 114.771C90.1061 115.302 88.8805 115.883 87.9803 116.546C87.1352 117.169 86.1687 118.174 86.1687 119.611H90.0087ZM92.8646 118.378C95.4436 117.445 98.1627 116.974 101.034 116.974V113.134C97.7339 113.134 94.5711 113.677 91.5573 114.768L92.8646 118.378ZM101.034 116.974C102.431 116.974 103.289 117.183 103.772 117.431C104.17 117.635 104.302 117.849 104.364 118.136L108.118 117.324C107.794 115.828 106.866 114.703 105.528 114.016C104.275 113.372 102.723 113.134 101.034 113.134V116.974ZM104.36 118.115L105.011 121.297L108.773 120.528L108.122 117.345L104.36 118.115ZM106.892 122.832H107.398V118.992H106.892V122.832ZM109.115 121.771C110.248 119.506 112.208 117.857 115.222 116.881L114.038 113.228C110.206 114.469 107.345 116.726 105.681 120.054L109.115 121.771ZM115.199 116.888C116.388 116.519 117.735 116.324 119.259 116.324V112.484C117.407 112.484 115.669 112.722 114.061 113.221L115.199 116.888ZM119.259 116.324C123.773 116.324 126.222 117.667 127.429 119.771L130.76 117.86C128.591 114.081 124.484 112.484 119.259 112.484V116.324ZM127.448 119.803C128.903 122.228 129.778 126.508 129.778 132.99H133.618C133.618 126.357 132.757 121.188 130.741 117.827L127.448 119.803ZM160.904 148.032H162.824V146.112H160.904V148.032ZM160.326 148.032V146.112H159.403L158.826 146.833L160.326 148.032ZM159.313 148.972L160.414 150.545L160.465 150.51L160.513 150.472L159.313 148.972ZM155.697 150.419L155.104 148.593L155.097 148.595L155.09 148.597L155.697 150.419ZM143.258 150.274L142.483 152.031L142.483 152.031L143.258 150.274ZM139.425 147.598L137.945 148.821L137.958 148.837L137.972 148.853L139.425 147.598ZM137.256 143.187L135.411 143.718L135.411 143.721L137.256 143.187ZM139.57 118.743L141.076 119.933L141.087 119.919L141.098 119.904L139.57 118.743ZM143.62 115.705L144.421 117.45L144.432 117.445L144.442 117.44L143.62 115.705ZM154.612 115.127L153.967 116.935L153.996 116.945L154.025 116.955L154.612 115.127ZM157.65 116.718L159.007 115.36L158.982 115.335L158.956 115.311L157.65 116.718ZM159.964 120.261L161.872 120.049L161.864 119.975L161.85 119.902L159.964 120.261ZM160.036 120.912L158.128 121.124L158.318 122.832H160.036V120.912ZM160.615 120.912V122.832H162.142L162.486 121.344L160.615 120.912ZM161.266 118.092L159.398 117.647L159.395 117.66L161.266 118.092ZM178.478 116.501L180.076 115.436L180.063 115.418L180.051 115.4L178.478 116.501ZM179.201 118.164L177.312 118.508L177.315 118.524L177.318 118.541L179.201 118.164ZM173.777 163.726L174.981 165.221L174.981 165.221L173.777 163.726ZM141.884 165.968L140.946 167.643L140.956 167.649L140.967 167.654L141.884 165.968ZM141.45 158.012L139.638 157.377L139.633 157.391L139.629 157.405L141.45 158.012ZM146.151 154.396L145.613 156.24L145.638 156.247L145.662 156.253L146.151 154.396ZM159.675 154.975L158.568 153.406L158.545 153.422L158.523 153.439L159.675 154.975ZM159.819 126.336H161.739V126.155L161.706 125.977L159.819 126.336ZM156.131 140.583L154.272 141.062L154.278 141.086L154.285 141.111L156.131 140.583ZM162.824 152.227V148.032H158.984V152.227H162.824ZM160.904 146.112H160.326V149.952H160.904V146.112ZM158.826 146.833C158.772 146.901 158.572 147.107 158.114 147.473L160.513 150.472C161.019 150.067 161.494 149.646 161.825 149.232L158.826 146.833ZM158.212 147.4C158.215 147.397 158.199 147.409 158.156 147.433C158.114 147.457 158.055 147.488 157.977 147.526C157.82 147.602 157.608 147.695 157.335 147.805C156.787 148.024 156.047 148.286 155.104 148.593L156.291 152.245C157.276 151.925 158.103 151.633 158.761 151.37C159.377 151.123 159.978 150.851 160.414 150.545L158.212 147.4ZM155.09 148.597C153.443 149.147 151.508 149.439 149.261 149.439V153.279C151.835 153.279 154.191 152.945 156.304 152.24L155.09 148.597ZM149.261 149.439C147.084 149.439 145.364 149.105 144.033 148.518L142.483 152.031C144.431 152.89 146.712 153.279 149.261 153.279V149.439ZM144.033 148.518C142.584 147.878 141.564 147.137 140.878 146.343L137.972 148.853C139.118 150.181 140.654 151.224 142.483 152.031L144.033 148.518ZM140.905 146.376C140.201 145.523 139.58 144.311 139.1 142.653L135.411 143.721C135.992 145.727 136.817 147.456 137.945 148.821L140.905 146.376ZM139.101 142.655C138.352 140.059 137.946 136.405 137.946 131.616H134.106C134.106 136.565 134.52 140.626 135.411 143.718L139.101 142.655ZM137.946 131.616C137.946 126.26 139.082 122.457 141.076 119.933L138.063 117.552C135.333 121.007 134.106 125.786 134.106 131.616H137.946ZM141.098 119.904C141.775 119.014 142.842 118.176 144.421 117.45L142.818 113.961C140.83 114.874 139.196 116.061 138.041 117.581L141.098 119.904ZM144.442 117.44C146.011 116.697 147.682 116.324 149.478 116.324V112.484C147.127 112.484 144.893 112.978 142.798 113.97L144.442 117.44ZM149.478 116.324C151.42 116.324 152.894 116.552 153.967 116.935L155.258 113.319C153.631 112.737 151.681 112.484 149.478 112.484V116.324ZM154.025 116.955C155.237 117.344 155.955 117.764 156.343 118.125L158.956 115.311C157.994 114.418 156.687 113.777 155.2 113.299L154.025 116.955ZM156.292 118.075C157.569 119.352 157.996 120.192 158.078 120.621L161.85 119.902C161.546 118.306 160.43 116.783 159.007 115.36L156.292 118.075ZM158.056 120.473L158.128 121.124L161.945 120.7L161.872 120.049L158.056 120.473ZM160.036 122.832H160.615V118.992H160.036V122.832ZM162.486 121.344L163.137 118.524L159.395 117.66L158.744 120.481L162.486 121.344ZM163.134 118.537C163.105 118.657 163.153 118.154 164.977 117.669C166.64 117.227 169.18 116.974 172.692 116.974V113.134C169.069 113.134 166.137 113.388 163.991 113.958C162.006 114.486 159.909 115.501 159.398 117.647L163.134 118.537ZM172.692 116.974C174.208 116.974 175.311 117.091 176.06 117.279C176.86 117.479 176.963 117.685 176.905 117.602L180.051 115.4C179.318 114.353 178.119 113.835 176.991 113.553C175.812 113.258 174.359 113.134 172.692 113.134V116.974ZM176.88 117.566C177.161 117.987 177.274 118.298 177.312 118.508L181.09 117.821C180.935 116.969 180.566 116.172 180.076 115.436L176.88 117.566ZM177.318 118.541C177.376 118.827 177.426 119.417 177.426 120.406H181.266C181.266 119.371 181.219 118.465 181.084 117.788L177.318 118.541ZM177.426 120.406V150.708H181.266V120.406H177.426ZM177.426 150.708C177.426 155.941 175.744 159.677 172.573 162.23L174.981 165.221C179.236 161.796 181.266 156.853 181.266 150.708H177.426ZM172.573 162.23C169.337 164.836 164.391 166.29 157.433 166.29V170.13C164.842 170.13 170.792 168.594 174.981 165.221L172.573 162.23ZM157.433 166.29C153.678 166.29 150.576 166.105 148.106 165.749C145.609 165.389 143.885 164.87 142.801 164.281L140.967 167.654C142.631 168.56 144.872 169.162 147.558 169.549C150.271 169.941 153.57 170.13 157.433 170.13V166.29ZM142.822 164.292C142.327 164.015 142.084 163.801 141.982 163.683C141.896 163.584 141.996 163.656 141.996 163.87H138.156C138.156 165.741 139.673 166.93 140.946 167.643L142.822 164.292ZM141.996 163.87C141.996 163.061 142.352 161.38 143.272 158.62L139.629 157.405C138.717 160.142 138.156 162.365 138.156 163.87H141.996ZM143.262 158.648C143.726 157.325 144.13 156.463 144.453 155.966C144.614 155.718 144.703 155.643 144.7 155.645C144.688 155.654 144.486 155.81 144.126 155.81V151.97C143.356 151.97 142.735 152.298 142.296 152.651C141.865 152.997 141.517 153.436 141.232 153.875C140.662 154.753 140.139 155.952 139.638 157.377L143.262 158.648ZM144.126 155.81C143.973 155.81 143.893 155.787 143.995 155.807C144.057 155.819 144.159 155.841 144.311 155.879C144.613 155.955 145.044 156.074 145.613 156.24L146.689 152.553C146.101 152.382 145.615 152.247 145.243 152.154C145.057 152.108 144.882 152.067 144.727 152.037C144.612 152.015 144.375 151.97 144.126 151.97V155.81ZM145.662 156.253C149.395 157.235 152.542 157.763 155.046 157.763V153.923C153.019 153.923 150.236 153.486 146.64 152.54L145.662 156.253ZM155.046 157.763C156.272 157.763 157.364 157.687 158.293 157.513C159.193 157.344 160.102 157.054 160.827 156.511L158.523 153.439C158.476 153.474 158.228 153.618 157.585 153.739C156.971 153.854 156.135 153.923 155.046 153.923V157.763ZM160.782 156.544C162.239 155.515 162.824 153.93 162.824 152.227H158.984C158.984 153.031 158.75 153.278 158.568 153.406L160.782 156.544ZM158.011 145.035C159.073 145.035 160.042 144.619 160.758 143.8L157.868 141.272C157.866 141.274 157.873 141.266 157.89 141.253C157.907 141.24 157.929 141.227 157.955 141.215C158.011 141.191 158.039 141.195 158.011 141.195V145.035ZM160.758 143.8C161.381 143.089 161.739 142.212 161.739 141.234H157.899C157.899 141.242 157.899 141.243 157.9 141.239C157.9 141.235 157.902 141.23 157.903 141.225C157.905 141.221 157.905 141.222 157.901 141.229C157.897 141.235 157.887 141.25 157.868 141.272L160.758 143.8ZM161.739 141.234V126.336H157.899V141.234H161.739ZM161.706 125.977C161.564 125.232 161.254 124.43 160.603 123.808C159.916 123.153 159.059 122.898 158.228 122.898V126.738C158.259 126.738 158.229 126.742 158.162 126.718C158.09 126.692 158.014 126.646 157.951 126.586C157.831 126.471 157.882 126.428 157.933 126.696L161.706 125.977ZM158.228 122.898C155.934 122.898 154.833 124.867 154.33 126.519C153.788 128.304 153.56 130.794 153.56 133.858H157.4C157.4 130.894 157.631 128.864 158.004 127.636C158.418 126.275 158.69 126.738 158.228 126.738V122.898ZM153.56 133.858C153.56 136.731 153.781 139.153 154.272 141.062L157.991 140.105C157.614 138.639 157.4 136.577 157.4 133.858H153.56ZM154.285 141.111C154.553 142.048 154.908 142.936 155.422 143.627C155.956 144.346 156.815 145.035 158.011 145.035V141.195C158.189 141.195 158.346 141.248 158.452 141.312C158.543 141.367 158.553 141.402 158.504 141.337C158.391 141.184 158.191 140.806 157.977 140.056L154.285 141.111ZM193.027 156.855L193.651 155.04L193.651 155.04L193.027 156.855ZM189.194 154.903L187.995 156.402L188.013 156.416L188.031 156.43L189.194 154.903ZM186.663 151.793L184.985 152.725L184.985 152.725L186.663 151.793ZM185 148.105L183.171 148.69L183.175 148.701L183.178 148.712L185 148.105ZM184.132 143.693L186.04 143.481L186.04 143.477L184.132 143.693ZM187.386 119.683L188.953 120.793L188.96 120.782L187.386 119.683ZM207.057 117.513L208.485 116.229L208.466 116.208L208.447 116.188L207.057 117.513ZM208.07 119.249L206.262 119.895L206.717 121.169H208.07V119.249ZM208.648 119.249V121.169H210.931L210.54 118.92L208.648 119.249ZM207.781 114.259H205.861V114.425L205.889 114.588L207.781 114.259ZM211.831 102.109L211.156 100.311L211.156 100.311L211.831 102.109ZM226.873 102.471L228.446 101.37L228.435 101.354L228.423 101.338L226.873 102.471ZM223.329 156.566L223.538 158.475L223.553 158.473L223.568 158.471L223.329 156.566ZM210.818 156.783L210.291 158.629L210.365 158.651L210.441 158.666L210.818 156.783ZM209.516 156.204L207.98 157.356L208.062 157.466L208.159 157.562L209.516 156.204ZM209.227 155.264L211.135 155.052L211.132 155.025L211.128 154.997L209.227 155.264ZM208.648 151.142L210.55 150.875L210.318 149.222H208.648V151.142ZM208.07 151.142V149.222H206.581L206.21 150.664L208.07 151.142ZM205.466 155.409L204.191 153.974L204.182 153.982L204.173 153.99L205.466 155.409ZM207.853 145.646L209.636 146.359L209.773 146.016V145.646H207.853ZM207.057 125.252L206.07 126.898L206.163 126.954L206.263 126.999L207.057 125.252ZM203.948 144.633L202.088 145.111L202.096 145.143L202.106 145.175L203.948 144.633ZM198.017 155.731C196.426 155.731 194.976 155.495 193.651 155.04L192.403 158.671C194.165 159.277 196.041 159.571 198.017 159.571V155.731ZM193.651 155.04C192.251 154.558 191.169 153.993 190.358 153.375L188.031 156.43C189.245 157.355 190.718 158.092 192.403 158.671L193.651 155.04ZM190.394 153.403C189.66 152.817 188.968 151.988 188.342 150.861L184.985 152.725C185.805 154.202 186.8 155.446 187.995 156.402L190.394 153.403ZM188.342 150.861C187.664 149.641 187.162 148.521 186.821 147.497L183.178 148.712C183.609 150.003 184.216 151.342 184.985 152.725L188.342 150.861ZM186.828 147.519C186.493 146.472 186.224 145.134 186.04 143.481L182.224 143.905C182.426 145.724 182.735 147.327 183.171 148.69L186.828 147.519ZM186.04 143.477C185.76 141.01 185.618 138.167 185.618 134.942H181.778C181.778 138.275 181.925 141.266 182.224 143.909L186.04 143.477ZM185.618 134.942C185.618 128.427 186.822 123.801 188.953 120.793L185.82 118.573C183.033 122.507 181.778 128.055 181.778 134.942H185.618ZM188.96 120.782C191.06 117.777 193.848 116.324 197.511 116.324V112.484C192.593 112.484 188.63 114.55 185.812 118.583L188.96 120.782ZM197.511 116.324C201.649 116.324 204.207 117.307 205.668 118.838L208.447 116.188C205.954 113.574 202.148 112.484 197.511 112.484V116.324ZM205.63 118.798C205.88 119.075 206.096 119.431 206.262 119.895L209.878 118.603C209.562 117.717 209.103 116.916 208.485 116.229L205.63 118.798ZM208.07 121.169H208.648V117.329H208.07V121.169ZM210.54 118.92L209.672 113.93L205.889 114.588L206.757 119.578L210.54 118.92ZM209.701 114.259V105.219H205.861V114.259H209.701ZM209.701 105.219C209.701 105.572 209.474 105.544 209.962 105.169C210.418 104.819 211.227 104.386 212.505 103.907L211.156 100.311C209.734 100.845 208.518 101.436 207.624 102.123C206.763 102.784 205.861 103.805 205.861 105.219H209.701ZM212.505 103.907C214.971 102.982 217.658 102.51 220.581 102.51V98.6704C217.237 98.6704 214.09 99.2113 211.156 100.311L212.505 103.907ZM220.581 102.51C222.117 102.51 223.258 102.659 224.063 102.9C224.871 103.141 225.196 103.429 225.323 103.604L228.423 101.338C227.635 100.259 226.453 99.6063 225.163 99.2209C223.871 98.8347 222.324 98.6704 220.581 98.6704V102.51ZM225.3 103.572C225.462 103.803 225.459 103.909 225.459 103.917H229.299C229.299 102.961 228.959 102.102 228.446 101.37L225.3 103.572ZM225.459 103.917V155.264H229.299V103.917H225.459ZM225.459 155.264C225.459 154.488 225.967 154.113 226.01 154.082C226.078 154.034 226.042 154.075 225.779 154.16C225.279 154.32 224.41 154.496 223.091 154.661L223.568 158.471C224.949 158.299 226.105 158.088 226.954 157.815C227.367 157.683 227.837 157.496 228.242 157.206C228.623 156.934 229.299 156.305 229.299 155.264H225.459ZM223.121 154.657C220.534 154.94 218.024 155.08 215.591 155.08V158.92C218.172 158.92 220.821 158.771 223.538 158.475L223.121 154.657ZM215.591 155.08C213.085 155.08 211.696 155.001 211.195 154.9L210.441 158.666C211.387 158.855 213.18 158.92 215.591 158.92V155.08ZM211.345 154.937C211.058 154.855 210.873 154.787 210.766 154.739C210.715 154.716 210.701 154.707 210.712 154.714C210.72 154.719 210.787 154.76 210.874 154.847L208.159 157.562C208.502 157.905 208.91 158.116 209.207 158.248C209.534 158.394 209.904 158.519 210.291 158.629L211.345 154.937ZM211.052 155.052C211.104 155.121 211.134 155.178 211.15 155.212C211.166 155.246 211.172 155.264 211.171 155.26C211.17 155.257 211.164 155.239 211.157 155.202C211.15 155.166 211.142 155.117 211.135 155.052L207.319 155.476C207.379 156.014 207.523 156.747 207.98 157.356L211.052 155.052ZM211.128 154.997L210.55 150.875L206.747 151.409L207.326 155.531L211.128 154.997ZM208.648 149.222H208.07V153.062H208.648V149.222ZM206.21 150.664C205.872 151.982 205.207 153.071 204.191 153.974L206.742 156.844C208.329 155.433 209.4 153.677 209.929 151.62L206.21 150.664ZM204.173 153.99C203.028 155.034 201.099 155.731 198.017 155.731V159.571C201.59 159.571 204.626 158.773 206.76 156.828L204.173 153.99ZM206.117 149.012C206.94 149.012 207.715 148.742 208.359 148.206C208.968 147.698 209.367 147.03 209.636 146.359L206.07 144.933C206.014 145.073 205.964 145.162 205.93 145.214C205.896 145.264 205.883 145.27 205.901 145.256C205.92 145.239 205.959 145.213 206.014 145.194C206.068 145.174 206.107 145.172 206.117 145.172V149.012ZM209.773 145.646V126.336H205.933V145.646H209.773ZM209.773 126.336C209.773 125.719 209.595 125.104 209.202 124.568C208.825 124.054 208.329 123.721 207.852 123.504L206.263 126.999C206.316 127.023 206.217 126.991 206.106 126.839C206.049 126.762 206.002 126.671 205.972 126.573C205.941 126.476 205.933 126.394 205.933 126.336H209.773ZM208.045 123.605C207.393 123.214 206.613 122.898 205.756 122.898V126.738C205.708 126.738 205.707 126.729 205.763 126.748C205.821 126.767 205.922 126.81 206.07 126.898L208.045 123.605ZM205.756 122.898C204.472 122.898 203.59 123.681 203.073 124.472C202.578 125.229 202.26 126.2 202.035 127.229C201.58 129.317 201.377 132.305 201.377 136.1H205.217C205.217 132.372 205.423 129.72 205.787 128.047C205.973 127.196 206.167 126.756 206.287 126.573C206.384 126.425 206.22 126.738 205.756 126.738V122.898ZM201.377 136.1C201.377 140.109 201.588 143.168 202.088 145.111L205.807 144.155C205.439 142.724 205.217 140.093 205.217 136.1H201.377ZM202.106 145.175C202.386 146.128 202.789 147.042 203.412 147.748C204.084 148.509 205.007 149.012 206.117 149.012V145.172C206.158 145.172 206.22 145.183 206.278 145.211C206.33 145.237 206.331 145.253 206.291 145.207C206.191 145.093 205.991 144.778 205.79 144.092L202.106 145.175ZM245.392 156.711L245.841 154.844L245.841 154.844L245.392 156.711ZM238.304 153.384L239.456 151.848L239.444 151.839L239.431 151.83L238.304 153.384ZM238.449 119.032L237.311 117.485L237.305 117.49L238.449 119.032ZM262.025 114.837L261.754 116.738L261.776 116.741L261.798 116.744L262.025 114.837ZM268.172 116.501L267.431 118.272L267.438 118.275L267.445 118.278L268.172 116.501ZM273.235 120.044L271.764 121.278L271.775 121.292L271.787 121.305L273.235 120.044ZM276.417 126.264L274.582 126.831L274.585 126.841L276.417 126.264ZM271.427 152.155L272.698 153.593L272.707 153.585L271.427 152.155ZM252.19 143.548L250.305 143.915L250.305 143.915L252.19 143.548ZM253.202 146.658L251.844 148.016L251.89 148.061L251.938 148.103L253.202 146.658ZM256.095 146.658L254.831 145.213L254.782 145.255L254.737 145.301L256.095 146.658ZM257.107 143.548L255.223 143.182L255.218 143.207L255.213 143.233L257.107 143.548ZM257.397 130.965L255.481 131.093L255.483 131.127L255.487 131.162L257.397 130.965ZM256.963 127.638L255.076 127.992L255.086 128.048L255.1 128.104L256.963 127.638ZM256.312 125.83L257.909 124.765L257.9 124.751L257.89 124.737L256.312 125.83ZM253.274 125.468L254.539 126.913L254.587 126.871L254.632 126.826L253.274 125.468ZM252.19 128.651L254.074 129.017L254.076 129.007L252.19 128.651ZM254.721 155.731C251.207 155.731 248.256 155.426 245.841 154.844L244.942 158.577C247.734 159.249 251.002 159.571 254.721 159.571V155.731ZM245.841 154.844C243.489 154.278 241.366 153.281 239.456 151.848L237.152 154.92C239.485 156.67 242.087 157.89 244.942 158.577L245.841 154.844ZM239.431 151.83C235.783 149.184 233.643 144.032 233.643 135.593H229.803C229.803 144.512 232.051 151.22 237.177 154.938L239.431 151.83ZM233.643 135.593C233.643 128.238 235.767 123.412 239.593 120.574L237.305 117.49C232.163 121.305 229.803 127.52 229.803 135.593H233.643ZM239.587 120.579C243.37 117.795 248.362 116.324 254.721 116.324V112.484C247.772 112.484 241.917 114.097 237.311 117.485L239.587 120.579ZM254.721 116.324C257.507 116.324 259.846 116.466 261.754 116.738L262.297 112.937C260.155 112.631 257.624 112.484 254.721 112.484V116.324ZM261.798 116.744C263.629 116.962 265.506 117.466 267.431 118.272L268.914 114.73C266.693 113.8 264.471 113.195 262.252 112.931L261.798 116.744ZM267.445 118.278C269.329 119.048 270.743 120.061 271.764 121.278L274.706 118.811C273.22 117.039 271.259 115.689 268.899 114.724L267.445 118.278ZM271.787 121.305C272.857 122.534 273.812 124.34 274.582 126.831L278.251 125.697C277.382 122.885 276.216 120.544 274.683 118.783L271.787 121.305ZM274.585 126.841C275.331 129.208 275.726 132.113 275.726 135.593H279.566C279.566 131.841 279.142 128.527 278.248 125.687L274.585 126.841ZM275.726 135.593C275.726 142.558 273.767 147.482 270.146 150.724L272.707 153.585C277.379 149.402 279.566 143.285 279.566 135.593H275.726ZM270.155 150.716C266.445 153.995 261.371 155.731 254.721 155.731V159.571C262.053 159.571 268.116 157.643 272.698 153.593L270.155 150.716ZM250.305 143.915C250.481 144.819 250.667 145.598 250.87 146.222C251.042 146.749 251.322 147.493 251.844 148.016L254.56 145.301C254.687 145.428 254.713 145.51 254.672 145.428C254.641 145.363 254.588 145.239 254.522 145.033C254.387 144.621 254.236 144.014 254.074 143.182L250.305 143.915ZM251.938 148.103C252.719 148.787 253.669 149.084 254.648 149.084V145.244C254.547 145.244 254.499 145.23 254.487 145.226C254.478 145.223 254.475 145.221 254.466 145.213L251.938 148.103ZM254.648 149.084C255.619 149.084 256.653 148.816 257.453 148.016L254.737 145.301C254.759 145.279 254.783 145.26 254.806 145.246C254.828 145.232 254.843 145.227 254.846 145.226C254.849 145.225 254.793 145.244 254.648 145.244V149.084ZM257.359 148.103C257.974 147.565 258.283 146.775 258.463 146.222C258.674 145.575 258.849 144.777 259.001 143.864L255.213 143.233C255.076 144.056 254.938 144.644 254.812 145.033C254.749 145.227 254.7 145.334 254.676 145.38C254.645 145.439 254.683 145.343 254.831 145.213L257.359 148.103ZM258.992 143.915C259.361 142.017 259.534 139.714 259.534 137.04H255.694C255.694 139.572 255.528 141.609 255.223 143.182L258.992 143.915ZM259.534 137.04C259.534 134.369 259.461 132.265 259.306 130.767L255.487 131.162C255.621 132.461 255.694 134.407 255.694 137.04H259.534ZM259.312 130.837C259.213 129.353 259.06 128.11 258.825 127.172L255.1 128.104C255.251 128.709 255.387 129.684 255.481 131.093L259.312 130.837ZM258.85 127.284C258.679 126.375 258.396 125.494 257.909 124.765L254.714 126.895C254.807 127.034 254.957 127.358 255.076 127.992L258.85 127.284ZM257.89 124.737C257.186 123.72 256.118 122.97 254.721 122.97V126.81C254.716 126.81 254.697 126.809 254.671 126.802C254.644 126.795 254.624 126.785 254.612 126.778C254.589 126.764 254.638 126.785 254.733 126.923L257.89 124.737ZM254.721 122.97C253.667 122.97 252.686 123.342 251.917 124.111L254.632 126.826C254.643 126.815 254.648 126.812 254.647 126.813C254.645 126.814 254.642 126.816 254.638 126.817C254.635 126.819 254.637 126.817 254.648 126.815C254.66 126.813 254.683 126.81 254.721 126.81V122.97ZM252.01 124.024C251.402 124.555 251.085 125.344 250.897 125.898C250.674 126.55 250.48 127.36 250.303 128.294L254.076 129.007C254.237 128.157 254.392 127.545 254.531 127.137C254.601 126.933 254.654 126.816 254.683 126.762C254.72 126.692 254.685 126.785 254.539 126.913L252.01 124.024ZM250.305 128.284C249.932 130.201 249.763 132.829 249.763 136.1H253.603C253.603 132.909 253.772 130.571 254.074 129.017L250.305 128.284ZM249.763 136.1C249.763 139.37 249.932 141.998 250.305 143.915L254.074 143.182C253.772 141.628 253.603 139.29 253.603 136.1H249.763ZM343.716 156.566L343.92 158.475L343.935 158.474L343.95 158.472L343.716 156.566ZM329.613 156.638L329.006 158.46L329.052 158.475L329.099 158.488L329.613 156.638ZM325.202 125.324L323.952 123.866L323.952 123.866L325.202 125.324ZM320.573 156.566L320.778 158.475L320.793 158.474L320.807 158.472L320.573 156.566ZM306.399 156.638L305.76 158.449L305.821 158.471L305.885 158.488L306.399 156.638ZM304.157 125.613L305.776 124.582L305.754 124.547L305.73 124.512L304.157 125.613ZM297.359 156.566L297.56 158.476L297.576 158.474L297.593 158.472L297.359 156.566ZM283.184 156.638L282.545 158.449L282.607 158.471L282.67 158.488L283.184 156.638ZM286.077 116.573L285.423 114.768L285.413 114.771L286.077 116.573ZM300.107 117.73L301.988 117.345L301.986 117.335L301.983 117.324L300.107 117.73ZM300.758 120.912L298.877 121.297L299.191 122.832H300.758V120.912ZM301.264 120.912V122.832H302.441L302.975 121.783L301.264 120.912ZM308.207 115.054L307.619 113.226L307.589 113.236L307.559 113.247L308.207 115.054ZM322.671 120.912L320.916 121.692L322.693 125.69L324.432 121.676L322.671 120.912ZM327.371 116.573L328.331 118.236L328.331 118.236L327.371 116.573ZM345.307 118.887L343.623 119.811L343.632 119.827L343.641 119.843L345.307 118.887ZM345.918 133.134V155.264H349.758V133.134H345.918ZM345.918 155.264C345.918 154.473 346.443 154.097 346.477 154.072C346.541 154.028 346.499 154.071 346.229 154.157C345.714 154.319 344.825 154.495 343.482 154.66L343.95 158.472C345.355 158.299 346.526 158.09 347.385 157.818C347.802 157.687 348.276 157.501 348.683 157.216C349.061 156.95 349.758 156.321 349.758 155.264H345.918ZM343.511 154.657C340.884 154.938 338.132 155.08 335.254 155.08V158.92C338.258 158.92 341.147 158.772 343.92 158.475L343.511 154.657ZM335.254 155.08C333.83 155.08 332.681 155.05 331.797 154.994C330.879 154.935 330.358 154.853 330.127 154.788L329.099 158.488C329.736 158.665 330.59 158.764 331.552 158.826C332.548 158.89 333.786 158.92 335.254 158.92V155.08ZM330.22 154.817C330.099 154.777 330.031 154.742 330 154.725C329.969 154.707 329.989 154.714 330.031 154.757C330.076 154.805 330.133 154.883 330.176 154.99C330.218 155.097 330.231 155.195 330.231 155.264H326.391C326.391 156.073 326.691 156.815 327.243 157.398C327.753 157.936 328.398 158.257 329.006 158.46L330.22 154.817ZM330.231 155.264V135.232H326.391V155.264H330.231ZM330.231 135.232C330.231 131.754 330.058 129.012 329.669 127.094C329.478 126.151 329.205 125.25 328.772 124.538C328.33 123.812 327.505 122.97 326.214 122.97V126.81C325.623 126.81 325.409 126.398 325.491 126.534C325.583 126.684 325.747 127.076 325.905 127.857C326.216 129.386 326.391 131.815 326.391 135.232H330.231ZM326.214 122.97C325.29 122.97 324.526 123.374 323.952 123.866L326.451 126.782C326.502 126.738 326.508 126.745 326.464 126.763C326.415 126.784 326.328 126.81 326.214 126.81V122.97ZM323.952 123.866C322.983 124.696 322.775 125.903 322.775 126.843H326.615C326.615 126.735 326.622 126.656 326.629 126.602C326.637 126.547 326.644 126.525 326.644 126.528C326.642 126.531 326.631 126.563 326.6 126.612C326.568 126.663 326.519 126.723 326.451 126.782L323.952 123.866ZM322.775 126.843V155.264H326.615V126.843H322.775ZM322.775 155.264C322.775 154.473 323.301 154.097 323.335 154.072C323.399 154.028 323.357 154.071 323.087 154.157C322.572 154.319 321.682 154.495 320.339 154.66L320.807 158.472C322.212 158.299 323.384 158.09 324.243 157.818C324.66 157.687 325.134 157.501 325.541 157.216C325.919 156.95 326.615 156.321 326.615 155.264H322.775ZM320.369 154.657C317.742 154.938 314.99 155.08 312.112 155.08V158.92C315.116 158.92 318.005 158.772 320.778 158.475L320.369 154.657ZM312.112 155.08C310.663 155.08 309.495 155.05 308.599 154.993C307.666 154.934 307.142 154.852 306.912 154.788L305.885 158.488C306.523 158.666 307.385 158.764 308.356 158.826C309.364 158.89 310.62 158.92 312.112 158.92V155.08ZM307.038 154.828C306.813 154.749 306.826 154.707 306.907 154.798C306.953 154.849 307.005 154.925 307.042 155.024C307.079 155.122 307.089 155.208 307.089 155.264H303.249C303.249 156.04 303.519 156.769 304.046 157.358C304.536 157.907 305.164 158.239 305.76 158.449L307.038 154.828ZM307.089 155.264V135.232H303.249V155.264H307.089ZM307.089 135.232C307.089 132.526 307.004 130.311 306.825 128.612C306.736 127.763 306.62 127.008 306.468 126.368C306.323 125.757 306.115 125.114 305.776 124.582L302.537 126.644C302.536 126.642 302.623 126.798 302.731 127.254C302.833 127.68 302.927 128.26 303.007 129.014C303.165 130.522 303.249 132.585 303.249 135.232H307.089ZM305.73 124.512C305.079 123.582 304.088 122.97 302.855 122.97V126.81C302.841 126.81 302.81 126.808 302.769 126.798C302.727 126.787 302.684 126.771 302.646 126.749C302.565 126.704 302.551 126.668 302.584 126.714L305.73 124.512ZM302.855 122.97C301.881 122.97 300.901 123.354 300.254 124.273C299.694 125.069 299.561 126.025 299.561 126.843H303.401C303.401 126.624 303.421 126.492 303.436 126.427C303.451 126.362 303.453 126.4 303.394 126.483C303.327 126.578 303.218 126.68 303.076 126.747C302.943 126.81 302.853 126.81 302.855 126.81V122.97ZM299.561 126.843V155.264H303.401V126.843H299.561ZM299.561 155.264C299.561 154.473 300.086 154.097 300.12 154.072C300.184 154.028 300.142 154.071 299.872 154.157C299.357 154.319 298.468 154.495 297.124 154.66L297.593 158.472C298.998 158.299 300.169 158.09 301.028 157.818C301.445 157.687 301.919 157.501 302.326 157.216C302.704 156.95 303.401 156.321 303.401 155.264H299.561ZM297.158 154.657C294.48 154.938 291.703 155.08 288.825 155.08V158.92C291.829 158.92 294.74 158.772 297.56 158.476L297.158 154.657ZM288.825 155.08C287.4 155.08 286.252 155.05 285.368 154.994C284.449 154.935 283.929 154.853 283.698 154.788L282.67 158.488C283.306 158.665 284.16 158.764 285.122 158.826C286.119 158.89 287.357 158.92 288.825 158.92V155.08ZM283.823 154.828C283.599 154.749 283.612 154.707 283.693 154.798C283.738 154.849 283.79 154.925 283.827 155.024C283.864 155.122 283.874 155.208 283.874 155.264H280.034C280.034 156.04 280.304 156.769 280.831 157.358C281.322 157.907 281.949 158.239 282.545 158.449L283.823 154.828ZM283.874 155.264V119.611H280.034V155.264H283.874ZM283.874 119.611C283.874 120.035 283.595 120.027 284.124 119.638C284.598 119.288 285.433 118.856 286.74 118.375L285.413 114.771C283.972 115.302 282.746 115.883 281.846 116.546C281.001 117.169 280.034 118.174 280.034 119.611H283.874ZM286.73 118.378C289.309 117.445 292.028 116.974 294.9 116.974V113.134C291.6 113.134 288.437 113.677 285.423 114.768L286.73 118.378ZM294.9 116.974C296.297 116.974 297.155 117.183 297.638 117.431C298.035 117.635 298.168 117.849 298.23 118.136L301.983 117.324C301.66 115.828 300.732 114.703 299.393 114.016C298.141 113.372 296.588 113.134 294.9 113.134V116.974ZM298.226 118.115L298.877 121.297L302.639 120.528L301.988 117.345L298.226 118.115ZM300.758 122.832H301.264V118.992H300.758V122.832ZM302.975 121.783C304.125 119.522 306.028 117.874 308.854 116.862L307.559 113.247C303.924 114.549 301.199 116.806 299.553 120.042L302.975 121.783ZM308.794 116.882C309.885 116.532 311.403 116.324 313.414 116.324V112.484C311.181 112.484 309.228 112.709 307.619 113.226L308.794 116.882ZM313.414 116.324C315.191 116.324 316.626 116.772 317.806 117.601C318.999 118.441 320.057 119.759 320.916 121.692L324.425 120.133C323.356 117.727 321.906 115.79 320.014 114.46C318.108 113.12 315.879 112.484 313.414 112.484V116.324ZM324.432 121.676C324.806 120.812 325.921 119.627 328.331 118.236L326.412 114.91C323.808 116.412 321.788 118.12 320.909 120.149L324.432 121.676ZM328.331 118.236C330.531 116.967 332.97 116.324 335.688 116.324V112.484C332.331 112.484 329.225 113.287 326.412 114.91L328.331 118.236ZM335.688 116.324C340.077 116.324 342.45 117.671 343.623 119.811L346.99 117.964C344.885 114.125 340.846 112.484 335.688 112.484V116.324ZM343.641 119.843C345.068 122.33 345.918 126.653 345.918 133.134H349.758C349.758 126.502 348.92 121.327 346.972 117.932L343.641 119.843Z" fill="#E57B5C"/>
</g>
<defs>
<filter id="filter0_d_156_4" x="0.892578" y="13.5904" width="350.945" height="162.619" filterUnits="userSpaceOnUse" color-interpolation-filters="sRGB">
<feFlood flood-opacity="0" result="BackgroundImageFix"/>
<feColorMatrix in="SourceAlpha" type="matrix" values="0 0 0 0 0 0 0 0 0 0 0 0 0 0 0 0 0 0 127 0" result="hardAlpha"/>
<feOffset dy="4"/>
<feGaussianBlur stdDeviation="2"/>
<feComposite in2="hardAlpha" operator="out"/>
<feColorMatrix type="matrix" values="0 0 0 0 0 0 0 0 0 0 0 0 0 0 0 0 0 0 0.25 0"/>
<feBlend mode="normal" in2="BackgroundImageFix" result="effect1_dropShadow_156_4"/>
<feBlend mode="normal" in="SourceGraphic" in2="effect1_dropShadow_156_4" result="shape"/>
</filter>
</defs>
</svg>
