<svg width="42" height="42" viewBox="0 0 42 42" fill="none" xmlns="http://www.w3.org/2000/svg">
<rect width="42" height="42" rx="21" fill="white"/>
<path d="M7.58236 18.2637C6.79969 24.474 6.13612 29.8166 6.08507 30.1399L6 30.7524L8.00773 30.9736C9.11368 31.0927 10.2026 31.2288 10.4408 31.2799L10.8662 31.3649L11.2745 28.0641C11.4787 26.2605 12.1423 20.918 12.7208 16.1879C13.3163 11.4578 13.7927 7.5785 13.7757 7.56148C13.7417 7.51044 9.70919 7 9.33487 7C8.97756 7 8.92651 7.3573 7.58236 18.2637Z" fill="black"/>
<path d="M22.5381 15.0989C20.3092 15.6945 18.1654 17.3789 17.1105 19.3696C16.3448 20.8329 16.0896 21.5985 15.8854 23.2319C15.1368 28.8127 19.0842 33.5428 24.4778 33.5428C26.1282 33.5428 27.3022 33.2195 28.2721 32.5219C29.31 31.7733 29.5652 31.8243 29.4631 32.7771C29.412 33.2025 29.378 33.5428 29.395 33.5598C29.5141 33.6279 33.9209 34.1383 33.9209 34.0702C33.9209 34.0022 35.3161 22.6364 35.8606 18.2807C36.0648 16.5792 36.0648 16.5452 35.7245 16.4601C34.9588 16.29 31.692 15.9667 31.6069 16.0688C31.5559 16.1198 31.4708 16.4771 31.4198 16.8514C31.3687 17.2428 31.2496 17.6001 31.1645 17.6511C31.0795 17.7022 30.6371 17.3619 30.1947 16.9025C29.2759 15.9327 28.4082 15.4563 26.996 15.0819C25.7879 14.7587 23.7462 14.7757 22.5381 15.0989ZM28.17 19.9141C29.31 20.3565 30.0756 21.1561 30.3649 22.177C30.6031 23.0958 30.4499 25.0185 29.9905 26.4817C29.2759 28.8127 27.9148 29.5444 25.0733 29.136C22.6572 28.7957 21.7044 28.3363 21.0238 27.1623C20.6665 26.5328 20.6325 26.3286 20.7006 24.6952C20.8026 21.9729 21.5173 20.3905 22.9295 19.7269C23.8993 19.2845 26.7578 19.3696 28.17 19.9141Z" fill="black"/>
</svg>
