<svg width="57" height="51" viewBox="0 0 57 51" fill="none" xmlns="http://www.w3.org/2000/svg">
<path d="M24.1283 4.86585C16.1248 6.237 10.0381 11.4541 7.43188 19.1459C6.99471 20.4334 6.3894 23.995 6.3894 25.2659V26.2524L7.02834 25.8511C7.85224 25.2993 8.97878 24.9147 9.76905 24.9147C11.4168 24.9147 13.4682 26.2524 14.2921 27.8744C14.8637 28.9947 14.8806 31.1685 14.3257 32.2219C13.3841 33.9944 11.8204 34.9977 9.97082 35.0144C9.38232 35.0311 8.91153 35.098 8.91153 35.1649C8.91153 35.2485 9.26463 35.8504 9.68498 36.5026C12.9637 41.5357 17.5036 44.5957 23.6239 45.8832C27.1044 46.619 30.9549 46.3347 34.4859 45.0639C38.3195 43.7095 41.9177 41.0341 44.3726 37.74C45.3478 36.419 46.6929 33.7603 47.2983 31.9377C47.9036 30.1485 48.4416 26.7039 48.3912 25.1321L48.3407 23.8278L47.6682 23.5101C47.2983 23.3262 45.9195 22.7242 44.5912 22.139L42.1699 21.0855L42.2876 21.7878C42.3549 22.1724 42.5567 22.9416 42.7248 23.4934C42.8929 24.0452 43.0443 24.7308 43.0443 25.015C43.0443 25.8177 42.2204 26.3695 41.4469 26.0852C40.9089 25.8845 40.6398 25.316 40.1186 23.3262C39.9 22.4065 39.446 20.7009 39.1266 19.5304C38.6558 17.8081 38.5885 17.3567 38.7735 17.2229C38.9752 17.039 39.8664 17.3901 45.1124 19.6977C45.6337 19.9318 46.1213 20.0822 46.1717 20.0154C46.2221 19.9652 46.1045 19.3298 45.9027 18.6108C45.2637 16.3868 45.2469 16.2698 45.4991 15.7849C45.7177 15.3668 45.7009 15.2665 45.1965 14.4304C44.2885 12.9422 42.3381 10.6849 41.0098 9.59798C37.7983 6.95602 34.7044 5.55143 30.6186 4.86585C28.1133 4.44782 26.5664 4.44782 24.1283 4.86585ZM35.5788 19.4636C37.462 20.3163 38.3195 21.537 38.3363 23.3429C38.3363 25.6672 36.3018 27.8409 33.1575 28.8275C29.8283 29.8642 26.3478 28.8777 25.1204 26.5534C24.6832 25.7341 24.7168 24.0285 25.1708 23.0252C25.9443 21.3698 28.0629 19.798 30.4337 19.1459C31.9133 18.7445 34.3177 18.895 35.5788 19.4636ZM23.1699 21.7878C23.2204 22.0721 23.0186 22.6573 21.1691 27.2055C20.7151 28.3426 20.3452 29.3291 20.3452 29.396C20.3452 29.4796 20.9673 29.3626 21.7407 29.1452C23.8425 28.5265 24.5991 28.4763 25.0363 28.9111C25.5071 29.3793 25.4903 30.115 25.0195 30.5498C24.7841 30.7672 23.7248 31.135 22.3629 31.5029C21.1186 31.8541 19.3867 32.3055 18.5292 32.5396C16.3266 33.1416 16.1584 33.0245 16.8983 31.319C17.3018 30.3324 18.4283 27.5567 19.0505 25.9514C19.2354 25.4665 19.3531 25.0485 19.3027 24.9983C19.2691 24.9649 18.5292 25.1154 17.6717 25.3327C16.2593 25.7173 16.0744 25.7341 15.654 25.5C15.1328 25.2491 14.9646 24.9481 14.9646 24.3462C14.9646 23.7944 15.5867 23.3262 16.7301 23.0252C18.7478 22.5236 21.623 21.7544 22.1106 21.5872C22.7832 21.3698 23.1027 21.4367 23.1699 21.7878Z" fill="#2094FF"/>
<path d="M27.5752 46.2344L28.584 29.0115C28.584 29.0115 30.7699 29.6803 33.6283 28.677C36.4867 27.6738 37.5796 25.8344 37.5796 25.8344L45.3982 36.118C45.3982 36.118 42.9601 41.0893 36.823 44.0606C30.6858 47.032 27.5752 46.2344 27.5752 46.2344Z" fill="#F91155"/>
<path d="M31.5434 21.4033C30.4 21.6039 28.7859 22.4233 28.0124 23.2259C27.4743 23.761 27.3398 24.0452 27.2726 24.7141C27.2053 25.4665 27.239 25.5501 27.7266 25.9682C30.0301 27.8911 35.562 26.1688 35.9319 23.4098C36.0159 22.8246 35.9655 22.6908 35.5115 22.2728C34.7044 21.5203 33.023 21.1524 31.5434 21.4033Z" fill="#F91155"/>
<path d="M8.81059 27.657C7.73448 28.1419 7.09555 29.4629 7.3982 30.5665C7.95307 32.64 10.492 33.2085 11.8371 31.5531C12.7115 30.4829 12.4424 28.7606 11.2655 27.9078C10.6938 27.4898 9.46634 27.356 8.81059 27.657Z" fill="#2094FF"/>
</svg>
