<svg width="41" height="40" viewBox="0 0 41 40" fill="none" xmlns="http://www.w3.org/2000/svg">
<g clip-path="url(#clip0_125_164)">
<path d="M-2.68213 20V40H19.159H41.0001V20V-1.55065e-06H19.159H-2.68213V20ZM21.0749 7.79301C21.885 8.04475 22.531 8.5035 22.9962 9.14685C23.2535 9.4993 23.478 9.93007 23.4834 10.0699C23.4834 10.1147 23.5217 10.2545 23.5655 10.3776C23.7352 10.8643 23.6476 11.7091 23.3685 12.2629C23.3137 12.3748 23.2645 12.5091 23.2645 12.5538C23.2645 12.5986 23.248 12.6434 23.2261 12.6545C23.1988 12.6601 23.1112 12.7776 23.0236 12.9119C22.843 13.1804 22.2737 13.7455 22.093 13.8238C22.0274 13.8517 21.8686 13.9413 21.7372 14.014C21.6059 14.0923 21.469 14.1538 21.4362 14.1538C21.4033 14.1538 21.3048 14.1986 21.2117 14.249C20.9654 14.3888 19.3177 14.3888 19.0769 14.249C18.9893 14.1986 18.8579 14.1538 18.7977 14.1538C18.732 14.1538 18.6499 14.1147 18.6116 14.0699C18.5733 14.0252 18.5076 13.986 18.4638 13.986C18.3434 13.986 17.8671 13.6224 17.5332 13.2699C16.9311 12.6434 16.5151 11.4853 16.6464 10.7972C16.6738 10.6294 16.7121 10.4 16.7286 10.2937C16.7559 10.1147 16.8545 9.84615 16.9749 9.62238C17.0023 9.57762 17.057 9.45454 17.1063 9.35384C17.15 9.25315 17.38 8.97343 17.6153 8.73846C18.1573 8.1958 18.743 7.88811 19.5695 7.6979C19.8706 7.63077 20.7355 7.68112 21.0749 7.79301ZM13.6741 20.3021C13.893 20.4196 14.5061 20.7161 14.7251 20.8112C14.8017 20.8392 14.9002 20.8895 14.944 20.9175C15.0426 20.979 16.1374 21.5161 16.2578 21.5608C16.3016 21.5776 16.3782 21.6168 16.422 21.6448C16.4658 21.6727 16.7614 21.8238 17.0789 21.9748C17.3964 22.1259 17.9109 22.3776 18.2284 22.5343C18.5459 22.6909 18.8415 22.8308 18.8853 22.8476C18.9291 22.8643 19.0057 22.9035 19.0495 22.9315C19.1371 22.9818 19.898 23.351 20.0348 23.407C20.0786 23.4238 20.1553 23.4629 20.199 23.4909C20.2812 23.5413 21.365 24.0727 21.5128 24.1343C21.5566 24.151 21.6332 24.1902 21.677 24.2182C21.7208 24.2462 21.9452 24.3524 22.1697 24.4643C22.3941 24.5706 22.8375 24.7832 23.155 24.9399C23.4725 25.0909 23.7681 25.2364 23.8119 25.2531C23.8557 25.2699 23.9323 25.3091 23.9761 25.3371C24.0801 25.393 24.8519 25.7678 24.9614 25.8126C25.0052 25.8294 25.0818 25.8685 25.1256 25.8965C25.2077 25.9469 26.2916 26.4783 26.4394 26.5399C26.4832 26.5566 26.5598 26.5958 26.6036 26.6182C26.7021 26.6797 27.1455 26.8923 27.2605 26.9315C27.3043 26.9483 27.3809 26.9874 27.4247 27.0154C27.5123 27.0713 28.6071 27.6028 28.7384 27.6587C28.7822 27.6755 28.8589 27.7147 28.9027 27.7427C28.9464 27.7706 29.242 27.9217 29.5595 28.0727C30.512 28.5315 31.3112 28.9231 31.8312 29.1748C32.1049 29.3091 32.3841 29.449 32.4607 29.4769C32.5374 29.5105 32.6359 29.5608 32.6797 29.5888C32.7673 29.6448 33.5282 30.014 33.665 30.0643C33.7088 30.0811 33.7854 30.1203 33.8292 30.1483C33.9168 30.2042 34.5408 30.5063 34.7598 30.6014C34.8364 30.6294 34.935 30.6797 34.9788 30.7077C35.0663 30.7636 36.1611 31.2951 36.2925 31.351C36.3363 31.3678 36.4129 31.407 36.4567 31.435C36.5607 31.4909 37.3326 31.8657 37.442 31.9105C37.4858 31.9273 37.5625 31.9664 37.6063 31.9944C37.765 32.0951 38.4274 32.3916 38.4985 32.3916C38.5368 32.3916 38.6408 32.4699 38.7339 32.565L38.8926 32.7441L38.7558 32.7049C38.6792 32.6825 38.5095 32.649 38.3726 32.6322C38.2358 32.621 38.0278 32.5706 37.9073 32.5259C37.7869 32.4867 37.6008 32.4476 37.4913 32.4476C37.3873 32.4476 37.1738 32.414 37.026 32.3692C36.8782 32.3245 36.6593 32.2741 36.5388 32.2573C36.4184 32.235 36.1611 32.1846 35.9641 32.1399C35.3838 32.0112 35.028 31.9441 34.6613 31.8881C34.4697 31.8601 34.289 31.8154 34.2562 31.7986C34.2179 31.7762 34.0044 31.7259 33.78 31.6867C33.1669 31.5916 32.7399 31.4965 32.4553 31.407C32.3129 31.3622 32.1159 31.3287 32.0064 31.3287C31.9024 31.3287 31.6944 31.2951 31.5521 31.2503C31.4043 31.2056 31.1251 31.1441 30.928 31.1049C30.3861 31.0098 29.784 30.8923 29.4774 30.8252C29.3296 30.7916 29.034 30.7301 28.8205 30.6853C28.6125 30.6462 28.3005 30.579 28.1363 30.5455C27.9721 30.5119 27.6491 30.4448 27.4247 30.4056C26.7788 30.2825 26.4284 30.2098 26.193 30.1483C26.0726 30.1203 25.8153 30.0699 25.6183 30.042C25.4212 30.014 25.1968 29.9692 25.1256 29.9413C25.049 29.9133 24.8683 29.8741 24.7151 29.8517C24.4633 29.8182 24.2224 29.7678 23.4561 29.5944C23.3083 29.5552 23.0455 29.5105 22.8813 29.4881C22.7171 29.4657 22.4707 29.4154 22.3339 29.3818C22.197 29.3483 21.9671 29.2923 21.8139 29.2643C21.2282 29.1524 20.8723 29.0797 20.637 29.0238C20.5001 28.9902 20.2702 28.9455 20.1169 28.9231C19.9691 28.9007 19.7338 28.8559 19.5969 28.8224C19.4601 28.7888 19.2028 28.7273 19.0221 28.6937C18.8415 28.6601 18.524 28.5986 18.3105 28.5538C18.1025 28.5147 17.7686 28.4531 17.5715 28.4196C17.3745 28.386 17.0953 28.3245 16.942 28.2797C16.7942 28.2406 16.5096 28.179 16.3125 28.1455C16.1155 28.1063 15.7597 28.0448 15.5188 27.9944C15.278 27.9496 15.0097 27.8993 14.9167 27.8825C14.8072 27.8601 14.6156 27.9105 14.3419 28.0224C14.1175 28.1175 13.8985 28.1958 13.8602 28.1958C13.8164 28.1958 13.7179 28.2294 13.6412 28.2741C13.5591 28.3189 13.3456 28.414 13.165 28.4811C12.9844 28.5483 12.7599 28.6378 12.6614 28.6769C12.5683 28.7217 12.4589 28.7552 12.4151 28.7552C12.3713 28.7552 12.2892 28.7944 12.229 28.8392C12.1742 28.8839 12.0866 28.9231 12.0428 28.9231C11.999 28.9231 11.8896 28.9622 11.802 29.007C11.7199 29.0517 11.6213 29.0909 11.583 29.0909C11.5502 29.0965 11.4243 29.1413 11.3039 29.2028C11.1834 29.2643 11.0466 29.3091 10.9973 29.3147C10.9535 29.3147 10.8659 29.3538 10.8057 29.3986C10.751 29.4434 10.6579 29.4825 10.6032 29.4825C10.543 29.4825 10.4335 29.5161 10.3569 29.5608C10.2747 29.6 10.0613 29.6895 9.88062 29.7622C9.24017 29.9972 9.11427 30.0531 8.961 30.1315C8.87341 30.1762 8.77488 30.2098 8.73656 30.2098C8.70372 30.2098 8.46286 30.2993 8.21106 30.4056C7.95926 30.5119 7.71293 30.6014 7.66367 30.6014C7.61987 30.6014 7.53229 30.6406 7.47755 30.6853C7.41734 30.7301 7.32428 30.7692 7.26954 30.7692C7.2148 30.7692 7.07795 30.8196 6.96847 30.8811C6.85352 30.9427 6.73309 30.993 6.70025 30.993C6.66193 30.993 6.5634 31.0322 6.48129 31.0769C6.39371 31.1217 6.28423 31.1608 6.23496 31.1608C6.19117 31.1608 6.10359 31.2 6.04337 31.2448C5.98863 31.2895 5.8901 31.3287 5.82441 31.3287C5.7642 31.3287 5.66567 31.3678 5.60545 31.4126C5.55071 31.4573 5.45218 31.4965 5.3865 31.4965C5.32628 31.4965 5.22775 31.5357 5.16754 31.5804C5.1128 31.6252 5.02521 31.6643 4.98142 31.6643C4.93216 31.6643 4.80078 31.7147 4.68035 31.7762C4.55993 31.8378 4.42855 31.8881 4.37929 31.8881C4.33002 31.8881 4.24244 31.9273 4.18222 31.972C4.12748 32.0168 4.03443 32.0559 3.97969 32.0559C3.91947 32.0559 3.80999 32.0895 3.73336 32.1343C3.65125 32.1734 3.43776 32.2629 3.25712 32.3301C3.07648 32.3972 2.85752 32.4867 2.77541 32.5315C2.68783 32.5762 2.5674 32.6154 2.50719 32.6154C2.44698 32.6154 2.32655 32.6657 2.23897 32.7329C2.10759 32.828 2.0638 32.8392 1.99264 32.7776C1.92148 32.7161 1.97074 32.6434 2.36487 32.2294C2.61667 31.9664 2.94511 31.6084 3.0929 31.4406C3.2407 31.2727 3.72241 30.7413 4.16033 30.2657C4.60372 29.7902 5.27702 29.0462 5.66567 28.6154C6.04885 28.1846 6.61814 27.5692 6.91921 27.2448C7.22575 26.9203 7.71841 26.3776 8.014 26.042C8.31507 25.7007 8.80772 25.1636 9.10879 24.8392C9.41533 24.5147 9.92989 23.9496 10.2583 23.5804C10.5922 23.2112 11.1944 22.5455 11.6049 22.0979C12.0155 21.6503 12.5245 21.0965 12.7326 20.8671C13.4442 20.0839 13.3566 20.1343 13.6741 20.3021Z" fill="#094BA9"/>
<path d="M23.2095 23.1888L1.36841 12.2518L22.1968 16.6434L33.2543 12.2518L23.2095 23.1888Z" fill="#ED1C1C"/>
</g>
<defs>
<clipPath id="clip0_125_164">
<rect width="41" height="40" rx="20" fill="white"/>
</clipPath>
</defs>
</svg>
