<svg width="42" height="42" viewBox="0 0 42 42" fill="none" xmlns="http://www.w3.org/2000/svg">
<path d="M18.6611 0.780815C10.8253 2.01369 4.57978 6.97808 1.96231 14.0301C0.653578 17.5973 0.322252 21.789 1.0843 25.2247C2.01201 29.3836 3.86743 32.7863 6.74996 35.6301C12.4653 41.3178 20.8976 43.1589 28.518 40.3808C32.0963 39.0657 35.4593 36.6164 37.6792 33.674C39.6009 31.1589 40.6777 28.874 41.4894 25.6356C41.887 24.1068 41.9367 23.5315 41.9533 21.2466C41.9533 19.0603 41.887 18.3205 41.5557 16.8904C40.9262 14.1123 39.6009 11.1699 38.0105 9.01643C37.1491 7.83287 34.7635 5.46575 33.5873 4.61095C31.4503 3.06575 28.634 1.79999 25.9668 1.17533C24.0286 0.715061 20.3012 0.517803 18.6611 0.780815ZM9.73189 15.4438C9.83129 15.8383 9.99695 16.3973 10.0963 16.7096C10.1957 17.0055 10.3614 17.6466 10.4774 18.1068C10.8253 19.5041 12.0512 24.0247 12.1671 24.2877C12.2334 24.452 12.3328 24.3041 12.4653 23.8767C12.7966 22.8411 14.5527 16.9068 14.8509 15.8219L15.1159 14.8356L16.143 14.7863L17.1536 14.737L17.518 15.937C18.4954 19.2246 18.6942 19.9315 19.2741 21.9863C19.6054 23.2027 19.9533 24.2712 20.0195 24.3534C20.0858 24.4356 20.2349 24.1726 20.3343 23.7781C20.4337 23.3836 20.7319 22.2822 20.9804 21.3288C21.4111 19.7836 21.8584 18.1562 22.521 15.6575L22.753 14.8356L23.8629 14.7863C24.4759 14.7534 24.9729 14.8027 24.9729 14.8685C24.9729 15 24.128 18.0247 23.3162 20.8356C22.6204 23.2849 21.9909 25.4219 21.7093 26.4247L21.3945 27.4931L20.1521 27.5425L18.893 27.5918L18.4623 26.1452C18.2138 25.3562 17.6174 23.3014 17.1204 21.5918C16.4081 19.0767 16.2093 18.5342 16.0768 18.7973C15.9774 18.9616 15.5135 20.4411 15.0497 22.0685C14.5858 23.6959 14.0391 25.5863 13.8238 26.2603L13.4427 27.4931L12.1837 27.5425L10.9081 27.5918L10.7259 26.8849C10.6265 26.4904 10.378 25.652 10.1957 25.0274C10.0301 24.3863 9.69876 23.252 9.46683 22.4794C9.25147 21.7068 8.70478 19.7836 8.24093 18.2055C7.79364 16.6274 7.41261 15.1973 7.41261 15.0493C7.41261 14.8027 7.57828 14.7534 8.48942 14.7534H9.54966L9.73189 15.4438ZM32.5602 15.0164C33.7198 15.4931 34.5979 16.5452 34.8132 17.7452C34.9954 18.7315 34.7138 19.6027 33.8524 20.737C33.7695 20.852 33.9518 21.1644 34.3825 21.5918C35.9894 23.1699 35.6084 25.7014 33.5542 27.0329L32.875 27.4931L29.4126 27.5425L25.9668 27.5918V21.1808V14.7534H28.9488C31.2846 14.7534 32.0798 14.8027 32.5602 15.0164Z" fill="url(#paint0_linear_56_626)"/>
<path d="M28.1205 18.3534V20.0137H29.8765C31.8148 20.0137 32.1295 19.915 32.5271 19.1589C32.8584 18.5178 32.7259 17.7287 32.1627 17.2027C31.7816 16.8411 31.5663 16.8082 29.9262 16.7589L28.1205 16.6931V18.3534Z" fill="url(#paint1_linear_56_626)"/>
<path d="M28.1205 23.7945V25.6027H29.9925C31.5331 25.6027 31.9307 25.5534 32.3614 25.2904C33.4548 24.6329 33.4548 22.9561 32.3614 22.2986C31.9307 22.0356 31.5331 21.9863 29.9925 21.9863H28.1205V23.7945Z" fill="url(#paint2_linear_56_626)"/>
<defs>
<linearGradient id="paint0_linear_56_626" x1="37.4804" y1="7.43835" x2="12.6199" y2="38.8591" gradientUnits="userSpaceOnUse">
<stop stop-color="#4E1175"/>
<stop offset="1" stop-color="#C913AA"/>
</linearGradient>
<linearGradient id="paint1_linear_56_626" x1="32.2092" y1="17.2419" x2="30.4179" y2="20.3472" gradientUnits="userSpaceOnUse">
<stop stop-color="#4E1175"/>
<stop offset="1" stop-color="#C913AA"/>
</linearGradient>
<linearGradient id="paint2_linear_56_626" x1="32.633" y1="22.584" x2="30.6952" y2="25.9882" gradientUnits="userSpaceOnUse">
<stop stop-color="#4E1175"/>
<stop offset="1" stop-color="#C913AA"/>
</linearGradient>
</defs>
</svg>
